<?xml version="1.0" encoding="UTF-8"?>
<svg width="42px" height="49px" viewBox="0 0 42 49" version="1.1" xmlns="http://www.w3.org/2000/svg" xmlns:xlink="http://www.w3.org/1999/xlink">
    <!-- Generator: Sketch 46.1 (44463) - http://www.bohemiancoding.com/sketch -->
    <title>hexagon-rust</title>
    <desc>Created with Sketch.</desc>
    <defs></defs>
    <g id="Page-1" stroke="none" stroke-width="1" fill="none" fill-rule="evenodd">
        <g id="Hexagon---Swag,-goodies" transform="translate(-552.000000, -99.000000)">
            <g id="hexagon-rust" transform="translate(552.000000, 99.000000)">
                <polygon id="Polygon" fill="#37515E" points="21 0 42 12.25 42 36.75 21 49 2.04281037e-14 36.75 7.10542736e-15 12.25"></polygon>
                <path d="M19.9460158,14.1232779 C19.9460158,13.6708882 20.3167956,13.304154 20.7741758,13.304154 C21.231556,13.304154 21.6023359,13.6708882 21.6023359,14.1232779 C21.6023359,14.5756675 21.231556,14.9424018 20.7741758,14.9424018 C20.3167956,14.9424018 19.9460158,14.5756675 19.9460158,14.1232779 L19.9460158,14.1232779 Z M10.0664495,21.5396697 C10.0664495,21.0872801 10.4372294,20.7205459 10.8946096,20.7205459 C11.3519898,20.7205459 11.7227697,21.0872801 11.7227697,21.5396697 C11.7227697,21.9920595 11.3519898,22.3587937 10.8946096,22.3587937 C10.4372294,22.3587937 10.0664495,21.9920595 10.0664495,21.5396697 L10.0664495,21.5396697 Z M29.8253155,21.5778851 C29.8253155,21.1254954 30.1960954,20.7587612 30.6534756,20.7587612 C31.1108558,20.7587612 31.4816357,21.1254954 31.4816358,21.5778851 C31.4816357,22.0302747 31.1108558,22.3970089 30.6534756,22.3970089 C30.1960954,22.3970089 29.8253155,22.0302747 29.8253155,21.5778851 L29.8253155,21.5778851 Z M12.4637971,22.7000953 C12.844836,22.5327389 13.0169697,22.0910234 12.8477671,21.7133514 L12.4803177,20.8915921 L13.9253345,20.8915921 L13.9253345,27.3338908 L11.0099871,27.3338908 C10.650126,26.0836863 10.5380208,24.7764605 10.6798422,23.4841666 L12.4637971,22.7000953 Z M18.5084599,22.8584909 L18.5084599,20.9595888 L21.9495344,20.9595888 C22.1272636,20.9595888 23.2045646,21.1627884 23.2045646,21.9595103 C23.2045646,22.6210294 22.3782698,22.8582273 21.6987947,22.8582273 L18.5084599,22.8584909 Z M13.8104899,33.0825169 C13.8104899,32.6301273 14.1812698,32.2633931 14.63865,32.2633931 C15.0960302,32.2633931 15.4668101,32.6301273 15.4668101,33.0825169 C15.4668101,33.5349066 15.0960302,33.9016408 14.63865,33.9016408 C14.1812698,33.9016408 13.8104899,33.5349066 13.8104899,33.0825169 L13.8104899,33.0825169 Z M26.0812752,33.1207321 C26.0812752,32.6683425 26.4520551,32.3016083 26.9094353,32.3016083 C27.3668154,32.3016083 27.7375953,32.6683425 27.7375953,33.1207321 C27.7375953,33.5731217 27.3668154,33.939856 26.9094353,33.939856 C26.4520551,33.939856 26.0812752,33.5731217 26.0812752,33.1207321 L26.0812752,33.1207321 Z M26.337344,31.263208 C25.9293926,31.1767625 25.5281026,31.4334634 25.4407034,31.8377544 L25.0250246,33.7564229 C22.3199847,34.9683648 19.2151609,34.9536409 16.5219947,33.7160992 L16.1065824,31.7974306 C16.0191833,31.3936669 15.6178933,31.1364388 15.2102083,31.2231479 L13.4976649,31.5868515 C13.1794705,31.2627433 12.8836545,30.9178536 12.6122157,30.5545129 L20.9449773,30.5545129 C21.0393043,30.5545129 21.102189,30.5376456 21.102189,30.4527814 L21.102189,27.537354 C21.102189,27.4524897 21.0393043,27.4356224 20.9449773,27.4356224 L18.5079269,27.4356224 L18.5079269,25.5875861 L21.143757,25.5875861 C21.384371,25.5875861 22.4302296,25.6555828 22.7646378,26.9778301 C22.869357,27.384493 23.0993126,28.7072674 23.2565245,29.1307977 C23.4132034,29.6057208 24.0511106,30.5545129 24.730852,30.5545129 L29.0331277,30.5545129 C28.7445847,30.9365066 28.429014,31.2977782 28.0887907,31.6356089 L26.337344,31.263208 Z M30.9644354,23.5656046 C31.0229333,24.1474771 31.030155,24.7332794 30.9860187,25.3163897 L29.9398937,25.3163897 C29.8351747,25.3163897 29.7930738,25.3843864 29.7930738,25.4858544 L29.7930738,25.9610412 C29.7930738,27.0795617 29.1554331,27.3228215 28.5966649,27.3847566 C28.0645427,27.444056 27.4745985,27.1644259 27.4018547,26.8423636 C27.087964,25.096059 26.5649014,24.723131 25.7388731,24.0787431 C26.7639477,23.4348821 27.8305902,22.4850358 27.8305902,21.2136542 C27.8305902,19.8408048 26.8790587,18.9760861 26.2304933,18.5520288 C25.3205297,17.9587701 24.3130415,17.8399075 24.0412515,17.8399075 L13.2221445,17.8399075 C14.7177785,16.1868356 16.7227461,15.0676415 18.9265368,14.6556557 L20.2018182,15.9789572 C20.4901287,16.2775631 20.9676264,16.2886324 21.26926,16.0032041 L22.6961575,14.6532837 C25.6401392,15.1987077 28.1927537,16.9968637 29.676364,19.570399 L28.6995187,21.7526209 C28.5308491,22.1302929 28.7029828,22.5720084 29.0837552,22.7393648 L30.9644354,23.5656046 Z M33.4006863,23.6009207 L33.3673788,23.2635724 L34.3735346,22.3353374 C34.5781765,22.1466333 34.5017023,21.7668529 34.2400377,21.6703922 L32.9538316,21.1946784 L32.8531094,20.866291 L33.6554228,19.7641107 C33.8190297,19.5400904 33.6687458,19.1824484 33.3932253,19.1376444 L32.03694,18.9194222 L31.873866,18.6181807 L32.4438256,17.3807976 C32.5605354,17.1288405 32.3436364,16.8065148 32.0633196,16.8170569 L30.6867833,16.8644965 L30.4693513,16.6035787 L30.7856402,15.2773781 C30.8495908,15.0080265 30.573271,14.7344581 30.300948,14.7977109 L28.9603839,15.1102853 L28.6960548,14.8952257 L28.7442841,13.533709 C28.7549426,13.2580321 28.4287946,13.042709 28.174591,13.1570912 L26.9238241,13.7210954 L26.6192595,13.5595372 L26.398097,12.217787 C26.3533316,11.9457999 25.9914779,11.7971558 25.7649863,11.9584505 L24.6498478,12.7520097 L24.3183707,12.65265 L23.837409,11.3802144 C23.7398843,11.1208778 23.3556479,11.0462922 23.1653949,11.247647 L22.22692,12.2436152 L21.8858502,12.210671 L21.1610769,11.052354 C21.0145235,10.8177915 20.6220267,10.8177915 20.4760062,11.052354 L19.7512329,12.210671 L19.4098967,12.2436152 L18.4711553,11.247647 C18.2809024,11.0462922 17.8966659,11.1208778 17.7991413,11.3802144 L17.3181796,12.65265 L16.9864358,12.7520097 L15.871564,11.9584505 C15.6450723,11.7966287 15.2829521,11.9457999 15.2381867,12.217787 L15.0170243,13.5595372 L14.7124596,13.7210954 L13.4616927,13.1570912 C13.2074891,13.0421819 12.8813411,13.2580321 12.8919996,13.533709 L12.9399625,14.8952257 L12.6756334,15.1102853 L11.3350692,14.7977109 C11.0627463,14.7349852 10.78616,15.0080265 10.8501106,15.2773781 L11.1658666,16.6035787 L10.9489676,16.8644965 L9.57243119,16.8170569 C9.29477906,16.8091503 9.07601475,17.1288405 9.19165873,17.3807976 L9.7618848,18.6181807 L9.59854434,18.9194222 L8.24225898,19.1376444 C7.96673853,19.1819213 7.81752049,19.5400904 7.98006157,19.7641107 L8.78237498,20.866291 L8.6816528,21.1946784 L7.39518017,21.6703922 C7.1340486,21.7668529 7.05757435,22.1466333 7.26168332,22.3353374 L8.26810567,23.2635724 L8.23479808,23.6009207 L7.06396941,24.3177859 C6.82681933,24.4627403 6.82681933,24.8509543 7.06396941,24.9953816 L8.23479808,25.7122468 L8.26810567,26.0495951 L7.26168332,26.9780937 C7.05757435,27.1662708 7.1340486,27.5457876 7.39518017,27.6427752 L8.6816528,28.1184891 L8.78237498,28.4468766 L7.98006157,29.5493203 C7.81698757,29.7738678 7.967005,30.1317733 8.24252543,30.1755232 L9.59854434,30.3937454 L9.7618848,30.695514 L9.19165873,31.9323699 C9.07548183,32.1837999 9.29477906,32.5071799 9.57243119,32.4961106 L10.9484346,32.4484075 L11.1658666,32.7098525 L10.8501106,34.0363166 C10.78616,34.3051409 11.0627463,34.5781824 11.3350692,34.5149296 L12.6756334,34.2026188 L12.9399625,34.4171512 L12.8919996,35.7789314 C12.8813411,36.0546083 13.2074891,36.270195 13.4616927,36.1552857 L14.7124596,35.591545 L15.0170243,35.7531033 L15.2381867,37.0940629 C15.2829521,37.3671042 15.6450723,37.5146939 15.871564,37.3539265 L16.9859029,36.5598401 L17.3179131,36.6597269 L17.7988748,37.9316354 C17.8963994,38.1899178 18.2806359,38.2660847 18.4708889,38.0636757 L19.4096301,37.0682346 L19.7509665,37.1019695 L20.4757398,38.2600229 C20.6217603,38.4935313 21.014257,38.4940583 21.1608105,38.2600229 L21.8855838,37.1019695 L22.2266535,37.0682346 L23.1651284,38.0636757 C23.3553814,38.2660847 23.7396179,38.1899178 23.8371425,37.9316354 L24.3181042,36.6597269 L24.6501144,36.5598401 L25.7647198,37.3539265 C25.9912114,37.5146939 26.3530652,37.366577 26.3978306,37.0940629 L26.6189931,35.7531033 L26.9235577,35.591545 L28.1743245,36.1552857 C28.4285281,36.270195 28.7541433,36.0551354 28.7440178,35.7789314 L28.6960548,34.4171512 L28.9601174,34.2026188 L30.3006816,34.5149296 C30.5730045,34.5781824 30.8493244,34.3051409 30.7853738,34.0363166 L30.4696178,32.7098525 L30.6865168,32.4484075 L32.0630532,32.4961106 C32.3407054,32.5071799 32.560269,32.1837999 32.4435592,31.9323699 L31.8735996,30.695514 L32.0366736,30.3937454 L33.392959,30.1755232 C33.6690123,30.1317733 33.8187633,29.7738678 33.6551564,29.5493203 L32.8528429,28.4468766 L32.9535651,28.1184891 L34.2397712,27.6427752 C34.5014357,27.5457876 34.57791,27.1662708 34.3732682,26.9780937 L33.3671123,26.0495951 L33.4004199,25.7122468 L34.5712485,24.9953816 C34.8083986,24.8509543 34.8086651,24.4627403 34.571515,24.3177859 L33.4006863,23.6009207 Z" id="Shape" fill="#FFFFFF" fill-rule="nonzero"></path>
            </g>
        </g>
    </g>
</svg>