<?xml version="1.0" encoding="UTF-8"?>
<svg width="42px" height="49px" viewBox="0 0 42 49" version="1.1" xmlns="http://www.w3.org/2000/svg" xmlns:xlink="http://www.w3.org/1999/xlink">
    <!-- Generator: Sketch 46.1 (44463) - http://www.bohemiancoding.com/sketch -->
    <title>hexagon-jenkins</title>
    <desc>Created with Sketch.</desc>
    <defs></defs>
    <g id="Page-1" stroke="none" stroke-width="1" fill="none" fill-rule="evenodd">
        <g id="Hexagon---Swag,-goodies" transform="translate(-104.000000, -386.000000)">
            <g id="hexagon-jenkins" transform="translate(104.000000, 386.000000)">
                <polygon id="Polygon" fill="#168BB9" points="21 0 42 12.25 42 36.75 21 49 2.13162821e-14 36.75 7.54951657e-15 12.25"></polygon>
                <g id="jenkins-waiter" transform="translate(20.500000, 24.750000) scale(-1, 1) rotate(180.000000) translate(-20.500000, -24.750000) translate(10.000000, 10.000000)">
                    <path d="M20.5454241,15.0357431 C20.5454241,9.26797875 16.0112138,4.59223051 10.4179601,4.59223051 C4.82479898,4.59223051 0.290582878,9.26797875 0.290582878,15.0357431 C0.290582878,20.8036475 4.82479898,25.4794657 10.4179601,25.4794657 C16.0112138,25.4794657 20.5454241,20.8036475 20.5454241,15.0357431" id="path22" fill="#168BB9"></path>
                    <path d="M0.727369512,12.4970873 C0.727369512,12.4970873 -0.00578712229,23.3879596 9.94810952,23.6991674 L9.25370114,24.8660507 L3.85241787,23.0378946 L2.30915439,21.2487124 L0.958854404,18.6425951 L0.187177526,15.6086984 L0.418662418,13.5861395" id="path24" fill="#168BB9" fill-rule="nonzero"></path>
                    <path d="M3.50564192,22.2080072 C1.72876389,20.3750668 0.629214131,17.8443302 0.629214131,15.044627 L0.629214131,15.044627 C0.629214131,12.2455072 1.72876389,9.71444388 3.50564192,7.88184192 L3.50564192,7.88184192 C5.28337645,6.04923995 7.73335467,4.9184133 10.4419131,4.9184133 L10.4419131,4.9184133 C13.150541,4.9184133 15.6006928,6.04923995 17.3782653,7.88184192 L17.3782653,7.88184192 C19.1550276,9.71444388 20.2548123,12.2455072 20.2548123,15.044627 L20.2548123,15.044627 C20.2548123,17.8443302 19.1550276,20.3750668 17.3782653,22.2080072 L17.3782653,22.2080072 C15.6006928,24.0402474 13.150541,25.171074 10.4419131,25.1713074 L10.4419131,25.1713074 C7.73335467,25.171074 5.28337645,24.0402474 3.50564192,22.2080072 L3.50564192,22.2080072 Z M3.05586678,7.4385196 C1.16745933,9.38556948 2.82566047e-15,12.0764258 2.82566047e-15,15.044627 L2.82566047e-15,15.044627 C2.82566047e-15,18.0132949 1.16745933,20.7038945 3.05586678,22.6510728 L3.05586678,22.6510728 C4.94383441,24.5986011 7.55726411,25.8057419 10.4419131,25.8053918 L10.4419131,25.8053918 C13.3265852,25.8057419 15.9402811,24.5986011 17.8279247,22.6510728 L17.8279247,22.6510728 C19.7164942,20.7038945 20.884104,18.0130615 20.8838725,15.044627 L20.8838725,15.044627 C20.884104,12.0764258 19.7164942,9.38556948 17.8279247,7.4385196 L17.8279247,7.4385196 C15.9402811,5.49109631 13.3265852,4.28410719 10.4419131,4.28410719 L10.4419131,4.28410719 C7.55726411,4.28410719 4.94383441,5.49109631 3.05586678,7.4385196 L3.05586678,7.4385196 L3.05586678,7.4385196 Z" id="path26" fill="#FFFFFF" fill-rule="nonzero"></path>
                    <polyline id="path28" fill="#168BB9" points="14.7051935 15.0257235 13.1618837 14.7923468 11.0784965 14.5589701 9.72810628 14.5201129 8.41642029 14.5589701 7.41325736 14.8701779 6.52588318 15.8425418 5.8314285 17.8262435 5.67712067 18.2541396 4.75118111 18.5652307 4.21103426 19.4598802 3.82524154 20.7434519 4.24969224 21.871478 5.25271627 22.221543 6.06291339 21.8325041 6.44879871 20.9768285 6.91176849 21.0546597 7.06603002 21.2490624 6.91176849 22.1437119 6.87311052 23.271738 7.10459541 24.8275436 7.09555592 25.7162419 7.79905008 26.8501025 9.0336516 27.7447519 11.194239 28.6782586 13.5861955 28.3281936 15.6695596 26.8112453 16.6341571 25.2554397 17.2514116 24.1274136 17.4056962 21.3268935 16.9427265 18.9152957 16.0939871 16.7760485 15.28379 15.6480224"></polyline>
                    <polygon id="path30" fill="#168BB9" points="7.87622715 8.0633973 7.87622715 7.12989062 8.33919693 3.86261725 8.10771204 3.59026668 4.24969224 4.91281226 3.97954937 5.3795656 3.59375665 9.77474841 2.70652135 12.4197229 2.51355555 13.0420218 5.59994361 15.181269 6.56454115 15.5703079 7.41325736 14.5201129 8.14627742 13.8588401 8.99513252 13.5866062 9.38087894 13.4699179 9.84384873 11.447359 10.1910761 11.0194862 11.0784965 11.3306707 10.4611263 10.1248134 13.8176804 8.53015064 13.3933686 8.29677397"></polygon>
                    <polyline id="path32" fill="#168BB9" points="4.24969224 21.871478 5.25271627 22.221543 6.06291339 21.8325041 6.44879871 20.9768285 6.91176849 21.0546597 7.02751094 21.521413 6.79602605 22.4159458 7.02751094 24.5553097 6.83454513 25.722193 7.52899981 26.5390114 9.0336516 27.7447519 8.6092472 28.3281936 6.48731779 27.2779986 5.59994361 26.5778686 5.09840844 25.4888164 4.32677671 24.4386214 4.09529181 23.1939069 4.24969224 21.871478"></polyline>
                    <path d="M5.8314285,25.5276736 C5.8314285,25.5276736 6.41014073,26.9667908 8.72498965,27.6669208 C11.0398386,28.3670508 8.8407321,28.1726481 8.8407321,28.1726481 L6.33305626,27.2001675 L5.36845872,26.2278036 L4.94414691,25.4498425 L5.8314285,25.5276736" id="path34" fill="#168BB9"></path>
                    <path d="M4.67400404,22.1437119 C4.67400404,22.1437119 3.86380692,24.8665175 6.95028758,25.2554397 L6.83454513,25.722193 L4.71266202,25.2164658 L4.09529181,23.1939069 L4.24969224,21.871478 L4.67400404,22.1437119" id="path36" fill="#168BB9"></path>
                    <path d="M5.90860557,18.5263735 L6.41376347,19.0198485 C6.41376347,19.0198485 6.64176451,18.9931268 6.6802836,18.720893 C6.71880269,18.4485424 6.83454513,15.9980874 8.49350476,14.6755418 C8.64482643,14.554886 7.25899583,14.8701779 7.25899583,14.8701779 L6.02434801,16.8149057" id="path38" fill="#168BB9"></path>
                    <path d="M13.0077148,19.2653607 C13.0077148,19.2653607 13.0976467,20.4443797 13.4125819,20.3537128 C13.7275171,20.263046 13.7275171,19.945537 13.7275171,19.945537 C13.7275171,19.945537 12.962691,19.4466944 13.0077148,19.2653607" id="path40" fill="#168BB9"></path>
                    <path d="M16.2097295,23.5828291 C16.2097295,23.5828291 15.5738405,23.4474706 15.5152749,22.8826991 C15.4567092,22.3178109 16.2097295,22.7660108 16.325472,22.804868" id="path42" fill="#168BB9" fill-rule="nonzero"></path>
                    <path d="M11.5414663,23.5438552 C11.5414663,23.5438552 10.6926112,23.4271669 10.6926112,22.8826991 C10.6926112,22.3381146 11.6572319,22.3769719 11.927259,22.6103485" id="path44" fill="#168BB9" fill-rule="nonzero"></path>
                    <path d="M6.29439829,21.0156857 C6.29439829,21.0156857 4.82826558,21.9103352 4.67400404,21.054543 C4.51969621,20.1988674 4.17237628,19.5764518 4.90548894,18.6819191 L4.40395377,18.8374646 L3.94098399,20.0432052 L3.78672245,21.2100885 L4.67400404,22.1437119 L5.67712067,22.0658808 L6.2558329,21.5991274 L6.29439829,21.0156857" id="path46" fill="#168BB9"></path>
                    <path d="M6.98885296,23.4661408 C6.98885296,23.4661408 7.64474225,26.8889597 10.9627541,27.5502325 C13.6944147,28.0945836 15.1293896,27.4335442 15.6695596,26.8112453 C15.6695596,26.8112453 13.2389682,29.7283369 10.9240961,28.8338042 C8.6092472,27.9391547 6.91176849,26.305518 6.95028758,25.2554397 C7.01598299,23.4668409 6.98885296,23.4661408 6.98885296,23.4661408" id="path48" fill="#168BB9"></path>
                    <path d="M15.9397024,26.422323 C15.9397024,26.422323 14.8209359,26.4611803 14.782278,25.4498425 C14.782278,25.4498425 14.7821622,25.2942969 14.8593624,25.1387514 C14.8593624,25.1387514 15.7468755,26.1500892 16.2869298,25.6055047" id="path50" fill="#168BB9"></path>
                    <path d="M11.0405214,25.0333818 C11.0405214,25.0333818 10.8479144,26.5856867 9.53518677,25.6832191 C8.68642427,25.0997775 8.76364763,24.2829591 8.91790916,24.1274136 C9.07221699,23.9717513 9.03026035,23.6584432 9.14772736,23.8734998 C9.2651365,24.0885564 9.22647852,24.7886864 9.65092922,24.9830891 C10.0753336,25.1776086 10.7710499,25.3948823 11.0405214,25.0333818" id="path52" fill="#168BB9"></path>
                    <path d="M7.41325736,14.5201129 L3.78672245,12.8864762 C3.78672245,12.8864762 5.29137425,6.85754005 4.51969621,4.99052669 L3.97954937,5.18492946 L3.94098399,7.47986227 L2.93800625,11.8361645 L2.51355555,13.0420218 L6.29439829,15.6090485 L7.41325736,14.5201129" id="path54" fill="#168BB9"></path>
                    <path d="M7.78616795,11.185487 L8.30067784,10.5525929 L8.30067784,8.21882616 L7.68330764,8.21882616 C7.68330764,8.21882616 7.60622317,9.85246284 7.60622317,10.0470056 C7.60622317,10.2415018 7.68330764,10.9416318 7.68330764,10.9416318" id="path56" fill="#168BB9"></path>
                    <polyline id="path58" fill="#168BB9" points="7.79905008 7.86876116 6.06291339 7.79104672 6.56454115 7.44098172 7.79905008 7.2464856"></polyline>
                    <polyline id="path60" fill="#168BB9" points="13.7405959 8.25780006 15.1680475 8.29668062 15.5152749 4.71817612 14.0491653 4.52377336 13.7405959 8.25780006"></polyline>
                    <path d="M14.1263655,8.25780006 L16.2869298,8.3744884 C16.2869298,8.3744884 17.1742113,10.6304473 17.1742113,10.7471356 C17.1742113,10.863824 17.9458662,14.0143857 17.9458662,14.0143857 L16.2097295,15.8424251 L15.8625022,16.1536329 L14.9365626,15.2201262 L14.9365626,11.6027879 L14.1263655,8.25780006" id="path62" fill="#168BB9"></path>
                    <path d="M15.0908473,8.53005729 L13.7405959,8.25780006 L13.9334229,7.16863115 C14.4349349,6.93525448 15.28379,7.55767006 15.28379,7.55767006" id="path64" fill="#168BB9"></path>
                    <polyline id="path66" fill="#168BB9" points="15.1295053 15.3368146 17.8301238 13.3142557 17.907324 14.2477623 15.8625022 16.1536329 15.1295053 15.3368146"></polyline>
                    <polyline id="path68" fill="#168BB9" points="9.1379587 0.594882964 8.33919693 3.86261725 7.94192256 6.27372497 7.87622715 8.0633973 11.4914193 8.25742666 13.7405959 8.25780006 13.536079 4.17333495 13.8833064 1.02275458 13.8447641 0.43931291 10.9127071 0.20593624 9.1379587 0.594882964"></polyline>
                    <path d="M13.2389682,8.29668062 C13.2389682,8.29668062 13.0461413,4.25142278 13.6248535,1.37318832 C13.6248535,1.37318832 12.467429,0.634082076 10.7697883,0.439678144 L14.0106231,0.556366479 L14.3963926,0.789743148 L13.9334229,7.16863115 L13.8176804,8.53015064" id="path70" fill="#168BB9"></path>
                    <polyline id="path72" fill="#168BB9" points="15.5810166 5.02903384 17.0856684 5.45690663 19.9405715 5.61247552 20.3649991 6.93489274 19.5933442 9.22981389 18.7060626 9.34650222 17.4714379 8.95755667 16.2869298 8.3744884 15.658101 8.49080333 15.1680475 8.29668062"></polyline>
                    <path d="M15.5538171,5.80734504 C15.5538171,5.80734504 16.5568411,6.27400502 16.7112416,6.23512447 L16.2869298,8.3744884 L16.7884418,8.56889116 C16.7884418,8.56889116 17.1356691,6.5463556 17.1356691,6.31297893 C17.1356691,6.31297893 19.2961176,6.19629059 19.4890603,6.19629059 C19.4890603,6.19629059 19.95203,7.09091672 19.8362876,8.02442339 L20.2607152,6.77973227 L20.2992574,6.07960226 L19.6820029,5.14609558 L18.9875482,4.99052669 L17.8301238,5.02940725 L17.4443542,5.53499446 L16.0939871,5.3405917 L15.6695596,5.18492946" id="path74" fill="#168BB9"></path>
                    <path d="M14.0377068,8.56852943 L13.1889675,10.7467622 L12.3015701,12.0303339 C12.3015701,12.0303339 12.494397,12.5749184 12.7645399,12.5749184 L13.6519372,12.5749184 L14.5006766,12.2637106 L14.4235921,10.82457 L14.0377068,8.56852943" id="path76" fill="#168BB9" fill-rule="nonzero"></path>
                    <path d="M14.2035657,9.30799507 C14.2035657,9.30799507 13.1232257,11.4082917 13.1232257,11.7194762 C13.1232257,11.7194762 13.3160527,12.1862295 13.5861955,12.0695412 C13.8563384,11.9528529 14.4350506,11.6417618 14.4350506,11.6417618 L14.4350506,12.380749 L13.1232257,12.6530996 L12.2359442,12.5364112 L13.7405959,8.95793007 L14.0491653,8.91895617" id="path78" fill="#168BB9"></path>
                    <polyline id="path80" fill="#168BB9" fill-rule="nonzero" points="9.48523233 14.441815 8.41642029 14.5589701 7.41325736 14.8701779 7.41325736 14.5201129 7.90340347 13.9751784 9.44662065 13.2750484"></polyline>
                    <path d="M7.76062359,14.3252434 C7.76062359,14.3252434 8.95670603,13.8195162 9.34249875,13.9362045 L9.38087894,13.4699179 L8.30081673,13.7028278 L7.64488114,14.1695812 L7.76062359,14.3252434" id="path82" fill="#168BB9"></path>
                    <path d="M15.5768499,12.4424771 C14.9222106,12.4618474 14.3307667,12.5402619 13.812935,12.6875226 C13.8481207,12.901529 13.7822632,13.111568 13.8351575,13.2657133 C13.9794884,13.3704994 14.2213901,13.3688658 14.4395646,13.393487 C14.2509044,13.4869544 13.9858542,13.5239446 13.7681427,13.4699179 C13.76305,13.6184622 13.696961,13.7105293 13.6569142,13.8267508 C14.0249751,13.9591921 14.8938537,14.82747 15.382634,14.5399499 C15.6155078,14.4031912 15.7144676,13.6220795 15.7325234,13.242259 C15.74757,12.9272005 15.7041665,12.6093414 15.5768499,12.4424771" id="path84" fill="#168BB9"></path>
                    <path d="M15.5768499,12.4424771 C14.9222106,12.4618474 14.3307667,12.5402619 13.812935,12.6875226 C13.8481207,12.901529 13.7822632,13.111568 13.8351575,13.2657133 C13.9794884,13.3704994 14.2213901,13.3688658 14.4395646,13.393487 C14.2509044,13.4869544 13.9858542,13.5239446 13.7681427,13.4699179 C13.76305,13.6184622 13.696961,13.7105293 13.6569142,13.8267508 C14.0249751,13.9591921 14.8938537,14.82747 15.382634,14.5399499 C15.6155078,14.4031912 15.7144676,13.6220795 15.7325234,13.242259 C15.74757,12.9272005 15.7041665,12.6093414 15.5768499,12.4424771 Z" id="path86"></path>
                    <path d="M12.4463639,13.5213775 C12.4446278,13.4714349 12.4425444,13.4211422 12.4405768,13.3707328 C12.2361756,13.2353744 11.9061939,13.237008 11.6818851,13.1232369 C12.0125612,13.1086508 12.272866,13.0283692 12.4981008,12.9151816 C12.4931239,12.7893915 12.4883784,12.6637182 12.4835172,12.5379282 C12.1088589,12.2793468 11.7666085,11.8942753 11.3254909,11.6517853 C11.116923,11.537104 10.3849447,11.2420109 10.1630432,11.2941589 C10.0374974,11.3235527 10.0261894,11.4806268 9.97600345,11.628681 C9.86908058,11.9457349 9.6228964,12.4504119 9.60142617,12.9276672 C9.57407623,13.5304791 9.51371655,14.5407668 10.1580779,14.4166104 C10.6779235,14.3166085 11.2825389,14.0751803 11.6850101,13.8534725 C11.9309628,13.7178806 12.0732103,13.5503162 12.4463639,13.5213775" id="path88" fill="#168BB9"></path>
                    <path d="M12.4405768,13.3707328 C12.2361756,13.2353744 11.9061939,13.237008 11.6818851,13.1232369 C12.0125612,13.1086508 12.272866,13.0283692 12.4981008,12.9151816 C12.4931239,12.7893915 12.4883784,12.6637182 12.4835172,12.5379282 C12.1088589,12.2793468 11.7666085,11.8942753 11.3254909,11.6517853 C11.116923,11.537104 10.3849447,11.2420109 10.1630432,11.2941589 C10.0374974,11.3235527 10.0261894,11.4806268 9.97600345,11.628681 C9.86908058,11.9457349 9.6228964,12.4504119 9.60142617,12.9276672 C9.57407623,13.5304791 9.51371655,14.5407668 10.1580779,14.4166104 C10.6779235,14.3166085 11.2825389,14.0751803 11.6850101,13.8534725 C11.9309628,13.7178806 12.0732103,13.5503162 12.4463639,13.5213775 C12.4446278,13.4714349 12.4425444,13.4211422 12.4405768,13.3707328 Z" id="path90"></path>
                    <path d="M12.7207893,13.5106421 C13.5894363,14.0945506 13.7525174,12.5077059 12.8184759,12.8021106 C12.7612991,13.1304715 12.6952102,13.2241723 12.7207893,13.5106421 Z" id="path92" fill="#168BB9"></path>
                    <path d="M12.8184759,12.8021106 C12.7612991,13.1304715 12.6952102,13.2241723 12.7207893,13.5106421 C13.5894363,14.0945506 13.7525174,12.5077059 12.8184759,12.8021106 Z" id="path94"></path>
                    <path d="M14.076249,12.5359445 C14.076249,12.5359445 13.8061062,12.9249834 13.9990488,13.0416717 C14.1919915,13.1583601 14.3849341,13.041555 14.5006766,13.2360745 C14.616419,13.4305939 14.5006766,13.5472823 14.5392188,13.7806589 C14.5777611,14.0140356 14.7708195,14.0530095 14.9636464,14.0918667 C15.1564733,14.1307239 15.696759,14.2085551 15.7738435,14.0140356 L15.5423586,14.7141656 L15.0793888,14.8697112 L13.6132793,14.0140356 L13.536079,13.5861395 L13.536079,12.7304639" id="path96" fill="#168BB9"></path>
                    <path d="M10.0252866,11.2523611 C9.97894331,11.8593855 9.92989166,12.4655814 9.8753191,13.0720107 C9.7936628,13.9775122 10.091063,13.8195162 10.8696162,13.8195162 C10.9885299,13.8195162 11.6017913,13.6765729 11.6456577,13.5861395 C11.8560774,13.1528757 11.2938006,13.2491436 11.8880224,12.9224162 C12.3896501,12.6466817 13.2757743,13.089864 13.0731093,13.7028278 C12.9596817,13.8391198 12.4821283,13.7453024 12.3109453,13.8348023 C12.0095519,13.9923316 11.7081586,14.1498608 11.4067305,14.3073901 C11.0232527,14.5079773 10.1369549,14.8003983 9.72810628,14.5201129 C8.69216509,13.809831 9.79348919,12.0351181 10.1630432,11.2941589" id="path98" fill="#168BB9"></path>
                    <path d="M11.0405214,25.0333818 C9.98897818,25.2802943 9.46647048,24.5897327 9.14772736,23.8734998 C8.86311668,23.943046 8.97637067,24.3332518 9.0482583,24.5320887 C9.23647867,25.0539189 9.99499679,25.7485646 10.6147629,25.6543971 C10.8814682,25.6139063 11.2423878,25.3680439 11.0405214,25.0333818" id="path100" fill="#FFFFFF"></path>
                    <path d="M16.1640113,23.8261243 C16.1805624,23.8254242 16.1973451,23.8248407 16.2138963,23.8241406 C16.4515155,23.3264648 16.6571898,22.7992669 16.9569628,22.3599354 C16.7561496,21.8883978 15.4363385,21.4711203 15.4567092,22.3178109 C15.7421301,22.4436009 16.2348457,22.3434823 16.4878586,22.5041621 C16.3415602,22.908954 16.130446,23.2535346 16.1640113,23.8261243" id="path102" fill="#FFFFFF"></path>
                    <path d="M11.5788743,23.8131719 C11.8043406,23.3964778 11.8777213,22.9586632 12.1982121,22.6437214 C12.3425429,22.5019451 12.6232184,22.3291296 12.484096,21.9348398 C12.4515723,21.8418392 12.2139531,21.634484 12.0767983,21.5937598 C11.5757492,21.4446321 10.408232,21.562954 10.8036082,22.192721 C11.2179778,22.173234 11.774942,21.9214206 12.0846688,22.2246936 C11.846818,22.6080148 11.422784,23.3663722 11.5788743,23.8131719" id="path104" fill="#FFFFFF"></path>
                    <path d="M15.9759298,19.5780855 C15.2215205,19.0895114 14.3803044,18.5582294 13.1441751,18.6814523 C12.8800509,18.912962 12.7793549,19.428141 13.0359559,19.7684041 C13.1695227,19.5368945 13.0856094,19.1110988 13.4578372,19.0470369 C14.1592364,18.9260311 14.9755678,19.4796005 15.4800892,19.6730698 C15.792941,20.2048185 15.4531212,20.4003882 15.1712883,20.742635 C14.5943122,21.4438152 13.8203425,22.31291 13.8484679,23.3626382 C14.0816889,23.5331199 14.1018281,23.1024232 14.1352777,23.0240087 C14.4365553,22.3131433 15.194784,21.4040245 15.7481487,20.7956116 C15.8840303,20.6457837 16.1077605,20.5020237 16.1326451,20.4029553 C16.2044054,20.1148518 15.9459525,19.7696877 15.9759298,19.5780855" id="path106" fill="#FFFFFF"></path>
                    <path d="M6.03036662,20.0924476 C5.7939048,20.2285062 5.73761925,20.8278175 5.46001099,20.844854 C5.06328061,20.8691252 5.13561964,20.0673597 5.13720531,19.5985059 C4.86412259,19.8484523 4.81610104,20.6180119 5.01671743,21.0132353 C4.7880798,21.126423 4.68598339,20.8883788 4.55916439,20.8044799 C4.7221529,21.9982015 6.29123852,21.358166 6.03036662,20.0924476" id="path108" fill="#FFFFFF"></path>
                    <path d="M16.456261,19.0809932 C16.1050984,18.407118 15.6083318,17.6649802 14.5778768,17.6433929 C14.5569274,17.8610166 14.5408392,18.1921781 14.5790342,18.3232191 C15.3667773,18.3995333 15.8531271,18.8037417 16.456261,19.0809932" id="path110" fill="#FFFFFF"></path>
                    <path d="M11.5194521,18.644112 C12.176684,18.2956807 13.3845722,18.2582237 14.2778724,18.2845953 C14.3257898,18.0872753 14.3246323,17.8435134 14.3264842,17.602902 C13.1782034,17.5451413 11.8205445,17.8316112 11.5194521,18.644112" id="path112" fill="#FFFFFF"></path>
                    <path d="M11.3945313,17.9943914 C11.8490172,16.8439611 13.4110772,16.9764024 14.728342,17.0081416 C14.670355,16.8587805 14.5446587,16.6823478 14.3884064,16.6185192 C13.9662937,16.4453537 12.8020405,16.3139627 12.2160365,16.6277376 C11.8443875,16.8269246 11.6056108,17.2769915 11.4019851,17.5408238 C11.3036503,17.6682475 10.8140019,17.9936913 11.3945313,17.9943914" id="path114" fill="#FFFFFF"></path>
                    <path d="M15.9210679,11.648553 C15.3877267,10.7276254 14.8774183,9.78176138 14.2446543,8.96945888 C14.509936,9.75583323 14.6234793,11.071996 14.6635262,12.0753756 C15.2185112,12.3372242 15.6937497,12.016448 15.9210679,11.648553" id="path116" fill="#168BB9"></path>
                    <path d="M18.7910176,8.33865341 C18.1939023,8.2181377 17.7743359,7.63306239 17.1918042,7.67061269 C17.5119478,8.12561552 18.0729514,8.31741613 18.7910176,8.33865341" id="path118" fill="#FFFFFF"></path>
                    <path d="M19.0544474,7.39653513 C18.5677504,7.34471384 17.9960985,7.26526076 17.5024569,7.30619503 C17.7361409,7.66606185 18.6365014,7.54189379 19.0544474,7.39653513" id="path120" fill="#FFFFFF"></path>
                    <path d="M19.2230841,6.58427931 C18.6760853,6.57233042 17.9962142,6.58332246 17.4762991,6.62730229 C17.7838268,6.96031913 18.8683335,6.75087524 19.2230841,6.58427931" id="path122" fill="#FFFFFF"></path>
                    <path d="M15.2085574,2.20868847 C14.9061224,2.10586271 14.732393,2.01593101 14.3271787,2.01647944 C14.2985903,2.66108914 14.2130566,3.64651046 14.2386357,4.26099123 C14.4379442,4.24768876 14.7318143,4.40452955 14.8918861,4.36145988 C14.9703594,3.66889128 15.2427014,2.96716264 15.2085574,2.20868847 Z" id="path124" fill="#168BB9"></path>
                    <path d="M14.0100444,14.5684219 C13.7353875,14.3876717 13.5014721,14.1619964 13.237695,13.9689939 C12.6527327,13.9398218 12.333515,14.0098348 11.9037633,14.3484644 C11.9108236,14.3756528 11.9539956,14.3635172 11.9556159,14.39689 C12.5817826,14.1155545 13.3777434,14.511478 14.0100444,14.5684219" id="path126" fill="#168BB9"></path>
                    <path d="M10.722901,10.2652012 C10.8949406,11.0167907 11.5690478,11.4060513 12.181198,11.8199449 C12.813036,11.0115047 13.1973009,9.97183501 13.6204553,8.96854871 C12.620672,9.27239346 11.5991292,9.76540168 10.722901,10.2652012" id="path128" fill="#168BB9"></path>
                    <path d="M14.2386357,4.26099123 C14.2130566,3.64651046 14.2985903,2.66108914 14.3271787,2.01647944 C14.732393,2.01593101 14.9061224,2.10586271 15.2085574,2.20868847 C15.2427014,2.96716264 14.9703594,3.66889128 14.8918861,4.36145988 C14.7318143,4.40452955 14.4379442,4.24768876 14.2386357,4.26099123 L14.2386357,4.26099123 Z M7.92904042,7.75566682 C8.19624343,5.2791903 8.58325145,3.19740039 9.29307672,1.00443101 C10.8684819,0.522180297 12.7676649,0.480153827 14.1601623,0.915319633 C13.9044873,2.1530398 14.0161787,3.65990628 13.8667552,4.98072487 C13.7541378,5.97348589 13.8115461,6.97236137 13.6571456,7.98521611 C11.9698523,8.33910849 9.5849213,8.06794814 7.92904042,7.75566682 L7.92904042,7.75566682 Z M14.0561099,7.96967323 C14.0418735,6.90608239 14.1033328,5.85693758 14.1838895,4.7920165 C14.5889881,4.85332455 14.8638764,4.89425882 15.2402708,4.97744593 C15.1180468,6.00265797 15.1330933,7.15627385 14.8841313,8.06316392 C14.5963956,8.06038674 14.3430354,8.06653621 14.0561099,7.96967323 L14.0561099,7.96967323 Z M16.111117,8.14111173 C15.9188688,8.18554665 15.6950229,8.14283872 15.5113396,8.13924471 C15.5976835,7.27223872 15.8071773,6.31552273 15.8809053,5.40544707 C16.1699141,5.39638039 16.3243146,5.53380424 16.5620496,5.58002449 C16.5747812,6.3788845 16.4928356,7.47948887 16.111117,8.14111173 L16.111117,8.14111173 Z M19.2227369,5.27490783 C19.8251763,5.42240189 20.2040014,6.16629002 20.0354804,6.93023688 C19.9224,7.44366555 19.7210081,8.41045174 19.5054957,8.73890607 C19.3462341,8.98185118 18.914399,9.29992024 18.5696023,9.07730224 C18.0087144,8.71520667 17.0206211,8.61009381 16.6115873,8.17178909 C16.8166829,7.48332792 16.8803413,6.53769732 16.964949,5.66535867 C17.6656538,5.62132049 18.5278193,5.85976144 19.1105825,5.60673445 C18.7037478,5.47387311 18.1758465,5.47282292 17.8243367,5.2791903 C18.1116094,5.13930432 18.7841888,5.16756624 19.2227369,5.27490783 L19.2227369,5.27490783 Z M13.6204553,8.96854871 C13.1973009,9.97183501 12.813036,11.0115047 12.181198,11.8199449 C11.5690478,11.4060513 10.8949406,11.0167907 10.722901,10.2652012 C11.5991292,9.76540168 12.620672,9.27239346 13.6204553,8.96854871 Z M14.6635262,12.0753756 C14.6234793,11.071996 14.509936,9.75583323 14.2446543,8.96945888 C14.8774183,9.78176138 15.3877267,10.7276254 15.9210679,11.648553 C15.6937497,12.016448 15.2185112,12.3372242 14.6635262,12.0753756 L14.6635262,12.0753756 Z M13.4811014,12.4989543 C13.2413988,12.5249758 13.0379236,12.2211193 12.7262292,12.3525104 C12.6548161,12.272929 12.5898846,12.1866963 12.5170826,12.1089819 C13.2055186,11.2725482 13.5183705,10.0858395 14.0500912,9.10288032 C14.3353964,10.047099 14.3025255,11.0815644 14.3653737,12.1121324 C13.973354,12.0870445 13.755874,12.4695488 13.4811014,12.4989543 Z M12.7207893,13.5106421 C12.6952102,13.2241723 12.7612991,13.1304715 12.8184759,12.8021106 C13.7525174,12.5077059 13.5894363,14.0945506 12.7207893,13.5106421 Z M11.6850101,13.8534725 C11.2825389,14.0751803 10.6779235,14.3166085 10.1580779,14.4166104 C9.51371655,14.5408834 9.57407623,13.5304791 9.60142617,12.9276672 C9.6228964,12.4504119 9.86908058,11.9457349 9.97600345,11.628681 C10.0261894,11.4806268 10.0374974,11.3235527 10.1630432,11.2941589 C10.3849447,11.2420109 11.116923,11.537104 11.3254909,11.6517853 C11.7666085,11.8942753 12.1088589,12.2793468 12.4835172,12.5379282 C12.4883784,12.6637182 12.4931239,12.7893915 12.4981008,12.9151816 C12.272866,13.0283692 12.0125612,13.1086508 11.6818851,13.1232369 C11.9061939,13.237008 12.2361756,13.2353744 12.4405768,13.3707328 C12.4425444,13.4211422 12.4446278,13.4714349 12.4463639,13.5213775 C12.0732103,13.5503162 11.9309628,13.7178806 11.6850101,13.8534725 L11.6850101,13.8534725 Z M7.84078681,14.5574532 C7.50675411,14.2155564 8.77766404,13.7495032 9.1823112,13.7244152 C9.18005422,13.9407553 9.30460467,14.1447265 9.27951171,14.299922 C8.79891435,14.3849878 8.16730782,14.3288607 7.84078681,14.5574532 L7.84078681,14.5574532 Z M11.9556159,14.39689 C11.9539956,14.3635172 11.9108236,14.3756528 11.9037633,14.3484644 C12.333515,14.0098348 12.6527327,13.9398218 13.237695,13.9689939 C13.5014721,14.1619964 13.7353875,14.3876717 14.0100444,14.5684219 C13.3777434,14.511478 12.5817826,14.1155545 11.9556159,14.39689 L11.9556159,14.39689 Z M15.7325234,13.242259 C15.7144676,13.6220795 15.6155078,14.4031912 15.382634,14.5399499 C14.8938537,14.8275867 14.0249751,13.9591921 13.6569142,13.8267508 C13.696961,13.7105293 13.76305,13.6184622 13.7681427,13.4699179 C13.9858542,13.5239446 14.2509044,13.4869544 14.4395646,13.393487 C14.2213901,13.3688658 13.9794884,13.3704994 13.8351575,13.2657133 C13.7822632,13.111568 13.8481207,12.901529 13.812935,12.6875226 C14.3307667,12.5402619 14.9222106,12.4618474 15.5768499,12.4424771 C15.7041665,12.6093414 15.74757,12.9272005 15.7325234,13.242259 L15.7325234,13.242259 Z M7.27844056,14.2267584 C7.17354318,14.3021391 6.46394939,15.232962 6.36673731,15.1943381 C5.08272534,14.6838266 3.88211738,13.8010794 2.80924278,12.9661744 C3.83216294,10.7532851 4.24508569,8.04214835 4.31804973,5.42906479 C5.4898494,4.87652219 6.51910067,4.07998428 8.10920511,3.99680884 C7.92519777,5.30931922 7.75723234,6.48031 7.65278635,7.71601613 C7.253255,7.88580932 6.68005212,7.7083147 6.30615772,7.7686659 C6.30298638,8.22292192 6.87718465,7.96758451 6.92500943,8.2730629 C6.96105163,8.50411747 6.60907885,8.52162072 6.72368702,8.88545495 C7.01598299,8.77833505 7.16948062,8.54172612 7.48120975,8.45287962 C7.76605191,9.08112961 7.47722821,10.192726 7.51828206,10.7178235 C7.52605995,10.8164135 7.5671138,11.26403 7.78616795,11.185487 C7.98003655,11.1159758 7.7750914,9.99504432 7.79634171,9.4980687 C7.81569385,9.04019535 7.74149136,8.59715308 7.92541768,8.3097147 C9.46194495,8.52057052 11.0233337,8.6568625 12.685835,8.70284937 C12.3200889,8.86106708 11.8855918,9.01080155 11.409219,9.28150682 C11.1509745,9.42827741 10.3369347,9.73367412 10.2624197,9.98096004 C10.1435175,10.3750049 10.5743803,10.5849039 10.6480735,10.9227166 C9.87247183,10.4962557 9.72115016,11.3314875 9.53767523,11.923214 C9.37143436,12.4591635 9.27680333,12.8595212 9.2360157,13.1686286 C8.56788085,13.4897549 7.85353005,13.8149653 7.27844056,14.2267584 L7.27844056,14.2267584 Z M15.0539255,15.0817339 C16.1237329,15.604731 16.3165598,13.1270876 15.8972249,12.3289394 C15.9620407,12.0908952 16.1849607,11.9997616 16.2759342,11.7857552 C15.6789347,10.7075666 15.0158462,9.70112974 14.4066937,8.63562522 C14.8598254,8.92000636 15.5070572,8.68648967 16.0402826,8.89935253 C16.2351929,8.97706696 16.3762829,9.42691216 16.5238545,9.78677898 C16.9297633,10.7768562 17.355927,12.0250829 17.5455131,12.9699084 C17.5883378,13.1851984 17.7050062,13.6542855 17.6788484,13.8458877 C17.6322042,14.1889514 17.1705076,14.443332 16.9356662,14.6554714 C16.5030209,15.0473108 16.2305632,15.3921248 15.7792834,15.7585262 C15.5962946,15.4861756 15.2035805,15.3032083 15.0539255,15.0817339 L15.0539255,15.0817339 Z M4.83179572,24.6464433 C4.32203127,24.0809716 4.42873423,23.0214415 4.4904481,22.2676349 C5.41186214,22.8520101 6.63484312,22.2214263 6.62331517,21.2274751 C7.06322906,21.2392606 6.78765787,21.7813946 6.70808494,22.1306428 C6.44803481,23.2713879 7.14619324,24.5107347 6.7397405,25.5539285 C5.9505622,25.4936006 5.30221932,25.1686236 4.83179572,24.6464433 L4.83179572,24.6464433 Z M8.47926844,27.9284194 C7.32523523,27.5986581 5.84620881,26.7532512 5.37198886,25.7080737 C5.73919335,25.7618671 5.99410451,25.9485684 6.35634364,25.9716727 C6.49324381,25.9806577 6.6725983,25.9137953 6.82993858,25.9532359 C7.14348487,26.0316505 7.40810682,26.7404154 7.64464966,27.0041311 C7.87523176,27.2616622 8.15237705,27.3716993 8.34204419,27.6064763 C8.46389784,27.6657539 8.64406253,27.6616698 8.65098393,27.8461541 C8.59817065,27.903098 8.54255641,27.9465061 8.47926844,27.9284194 L8.47926844,27.9284194 Z M14.4866718,27.6182618 C13.2888532,28.299605 11.2613812,28.8121001 9.98721889,28.1717146 C8.95910189,27.6549019 7.56937077,26.7998098 7.09555592,25.7162419 C7.53817818,24.6705978 6.96444288,23.7124699 6.92782197,22.6508394 C6.90837724,22.0859512 7.19163373,21.5928263 7.21333544,20.9778787 C7.06187487,20.7259486 6.599125,20.6949095 6.2787962,20.7121794 C6.17097054,21.2561804 5.98220619,21.8676273 5.42656143,21.9290053 C4.64032299,22.0157048 4.06545341,21.359683 4.02973529,20.674139 C3.98746615,19.8679393 4.64393416,18.5317412 5.57439925,18.6245084 C5.93383742,18.6603317 6.02213733,19.0235825 6.41376347,19.0198485 C6.62602354,18.5928859 6.08633967,18.458811 6.03081801,18.1534376 C6.01635021,18.0745563 6.07557562,17.7662657 6.11002057,17.6216888 C6.27902769,16.9177081 6.65578092,16.0066056 7.02660815,15.4706561 C7.49726323,14.7908299 8.4219412,14.6883775 9.41673595,14.6217485 C9.59441218,15.0076368 10.2489473,14.9758976 10.6754351,14.8749621 C10.1643164,15.07905 9.6891358,15.5738086 9.2953337,16.0117399 C8.84298907,16.5141999 8.3847763,17.0531833 8.36162781,17.7099052 C9.21644365,16.5143166 9.92265776,15.4701893 11.4770441,14.944275 C12.6531957,14.5466012 14.026827,15.1265422 14.930544,15.7663443 C15.3055496,16.032277 15.5293954,16.4542221 15.7959503,16.8404604 C16.793303,18.2868124 17.2587033,20.3512624 17.156387,22.3522339 C17.1142568,23.1774538 17.1161086,23.9998732 16.8414518,24.5550763 C16.5544105,25.1356008 15.5835629,25.6549806 15.0152675,25.1298831 C14.9099419,25.6944212 15.4878439,26.0435527 16.1666734,25.8403983 C15.6826384,26.4701653 15.1746449,27.2268891 14.4866718,27.6182618 L14.4866718,27.6182618 Z M16.7183019,8.99863096 C17.654311,9.46775307 19.4031794,10.2613271 19.9899936,8.99690397 C20.2065477,8.53082743 20.4606024,7.74295946 20.5727568,7.26184179 C20.7312082,6.58308908 20.400995,5.15643417 19.7089709,4.92867021 C19.0977351,4.72752286 18.3845301,4.73977513 17.6482924,4.88887949 C17.5616013,4.96157632 17.4650721,5.08829985 17.3975943,5.22039104 C16.8718921,5.24095153 16.3796395,5.19194243 15.9643556,4.97407364 C16.003708,4.58211752 15.7407412,4.51921084 15.4942097,4.43848585 C15.3114524,3.70791186 15.8598401,2.7538447 15.7285882,2.08767099 C15.6349526,1.6130762 15.0557774,1.53969091 14.6300766,1.45090275 C14.6161876,1.18716378 14.6487112,0.967009065 14.6777625,0.743888133 C14.5804231,0.382290821 14.1438426,0.176445598 13.7301791,0.126032736 C12.3691637,-0.0389720367 10.3026634,-0.113087449 8.99354685,0.361506295 C8.62824054,1.26487821 8.34045852,2.36362724 8.03618321,3.39517545 C6.75940514,3.25770493 5.72676261,3.95058859 4.75326447,4.40452955 C4.41621089,4.5620588 3.94994245,4.64883991 3.82402624,4.91932347 C3.70195269,5.18119543 3.75190713,5.68308363 3.72161733,6.15717666 C3.64453286,7.36805151 3.57852494,8.53598505 3.26135592,9.77579861 C3.11894641,10.3321569 2.87072516,10.8230764 2.69756289,11.3591543 C2.53751424,11.8560015 2.25788049,12.4700156 2.18495117,12.9654742 C2.076813,13.6997939 2.76266802,13.7406348 3.20122772,14.0588439 C3.87917752,14.5509186 4.41132656,14.8230358 5.14556192,15.2671516 C5.3630304,15.3986594 6.01883867,15.7315712 6.09343468,15.8848997 C6.2417239,16.1888728 5.83889389,16.617469 5.73119554,16.8557466 C5.56083424,17.2325333 5.47199034,17.5526094 5.44758025,17.9243784 C4.83165683,18.0225133 4.3647518,18.3920652 4.08272218,18.8087593 C3.61618753,19.4983873 3.2926411,20.7742576 3.69629288,21.7447545 C3.72794844,21.8211853 3.88582114,21.9714799 3.90910852,22.0888684 C3.95504669,22.320028 3.82266048,22.627385 3.8144312,22.8732473 C3.77202316,24.1346482 4.02612413,25.2214834 4.86841663,25.6018874 C5.21035454,26.9751924 6.43419201,27.4317938 7.58722983,28.1143039 C8.01824313,28.3693846 8.49336587,28.5323982 8.98405597,28.714432 C10.7442902,29.3675366 13.4449897,29.2445471 14.9058909,28.1306403 C15.5253445,27.6582859 16.5155211,26.6609507 16.869693,25.9388833 C17.8051234,24.032546 17.7386873,20.8466044 17.0843952,18.5276571 C16.996431,18.2163326 16.8688828,17.758681 16.6907552,17.3846948 C16.5665635,17.1235463 16.1805624,16.601016 16.2274381,16.3704398 C16.2757027,16.1320456 17.1075437,15.4952773 17.2859028,15.3218785 C17.6070881,15.0095038 18.2172823,14.5949101 18.2667043,14.2007369 C18.3198301,13.7812424 18.0833683,13.2073692 17.9635748,12.8025773 C17.563106,11.4516881 17.1723595,10.2029829 16.7183019,8.99863096 L16.7183019,8.99863096 Z" id="path130" fill="#FFFFFF"></path>
                    <path d="M10.4736497,18.3498241 C10.5244259,18.41797 10.8036082,18.5214726 11.194239,18.3318541 C11.194239,18.3318541 10.7312692,18.2540229 10.7697883,17.4758284 L10.5768688,17.5148023 C10.5768688,17.5148023 10.3774908,18.2204167 10.4736497,18.3498241" id="path132" fill="#168BB9"></path>
                    <path d="M13.8563384,11.661132 C13.8563384,11.5430318 13.7613138,11.4472656 13.6440667,11.4472656 C13.5269354,11.4472656 13.4319108,11.5430318 13.4319108,11.661132 C13.4319108,11.7792206 13.5269354,11.8751384 13.6440667,11.8751384 C13.7613138,11.8751384 13.8563384,11.7792206 13.8563384,11.661132" id="path134" fill="#FFFFFF"></path>
                    <path d="M14.0684943,10.6692812 C14.0684943,10.5511809 13.9734697,10.4554148 13.8562227,10.4554148 C13.7390913,10.4554148 13.6440667,10.5511809 13.6440667,10.6692812 C13.6440667,10.7873814 13.7390913,10.8832876 13.8562227,10.8832876 C13.9734697,10.8832876 14.0684943,10.7873814 14.0684943,10.6692812" id="path136" fill="#FFFFFF"></path>
                </g>
            </g>
        </g>
    </g>
</svg>