<?xml version="1.0" encoding="UTF-8"?>
<svg width="42px" height="49px" viewBox="0 0 42 49" version="1.1" xmlns="http://www.w3.org/2000/svg" xmlns:xlink="http://www.w3.org/1999/xlink">
    <!-- Generator: Sketch 46.1 (44463) - http://www.bohemiancoding.com/sketch -->
    <title>hexagon-redis</title>
    <desc>Created with Sketch.</desc>
    <defs></defs>
    <g id="Page-1" stroke="none" stroke-width="1" fill="none" fill-rule="evenodd">
        <g id="Hexagon---Swag,-goodies" transform="translate(-696.000000, -247.000000)">
            <g id="hexagon-redis" transform="translate(696.000000, 247.000000)">
                <polygon id="Polygon" fill="#C6302B" points="21 0 42 12.25 42 36.75 21 49 2.22044605e-14 36.75 8.43769499e-15 12.25"></polygon>
                <g id="Group-11" transform="translate(6.000000, 11.000000)" fill-rule="nonzero">
                    <path d="M28.6181773,19.9419576 C27.0602053,20.7536123 18.9895869,24.0703289 17.2713931,24.9656452 C15.5531994,25.8610755 14.5987107,25.852413 13.2413296,25.2038643 C11.8840626,24.5553157 3.29548863,21.0878029 1.7483502,20.3486398 C0.975180123,19.9793432 0.56852459,19.6674927 0.56852459,19.3729673 L0.56852459,16.4236095 C0.56852459,16.4236095 11.7498412,13.9906972 13.554931,13.3434023 C15.3599069,12.6961074 15.9861974,12.6727414 17.5222743,13.2351209 C19.0585792,13.7977283 28.2437942,15.454092 29.7619672,16.0098606 L29.761283,18.9175014 C29.7615111,19.2090634 29.4111898,19.5288925 28.6181773,19.9419576" id="Shape" fill="#FFFFFF"></path>
                    <path d="M28.6176071,17.0100389 C27.0597492,17.8213516 18.9893588,21.1381822 17.2711651,22.0333846 C15.5530853,22.9289289 14.5985966,22.9201524 13.2413296,22.2716037 C11.8839486,21.6235109 3.2957167,18.1554283 1.74869232,17.4167211 C0.20166793,16.6775579 0.169281455,16.1688633 1.68893699,15.5741134 C3.20859252,14.9791355 11.7497272,11.6298204 13.5550451,10.9825255 C15.3600209,10.3354586 15.9861974,10.3118647 17.5222743,10.8744721 C19.0584652,11.4368515 27.080732,14.6284177 28.5986769,15.1840723 C30.1171921,15.7404108 30.175465,16.1984982 28.6176071,17.0100389" id="Shape" fill="#C6302B"></path>
                    <path d="M28.6181773,15.1697108 C27.0602053,15.9814794 18.9895869,19.2980821 17.2713931,20.1937404 C15.5531994,21.0888287 14.5987107,21.0801662 13.2413296,20.4316175 C11.8839486,19.7834108 3.29548863,16.3155561 1.7483502,15.576393 C0.975180123,15.2070964 0.56852459,14.8957018 0.56852459,14.6010624 L0.56852459,11.6513627 C0.56852459,11.6513627 11.7498412,9.21856433 13.554931,8.57126944 C15.3599069,7.92397456 15.9861974,7.90049459 17.5222743,8.46298803 C19.0586932,9.02548148 28.2439082,10.6815032 29.7619672,11.2373858 L29.761283,14.1453686 C29.7615111,14.4368166 29.4111898,14.7566457 28.6181773,15.1697108" id="Shape" fill="#FFFFFF"></path>
                    <path d="M28.6176071,12.2377921 C27.0597492,13.0493328 18.9893588,16.3659354 17.2711651,17.2614797 C15.5530853,18.156682 14.5985966,18.1479055 13.2413296,17.4993569 C11.8839486,16.8512641 3.2957167,13.3832954 1.74869232,12.6444743 C0.20166793,11.9055391 0.169281455,11.3967304 1.68893699,10.8017526 C3.20859252,10.2071166 11.7498412,6.85757361 13.5550451,6.21039271 C15.3600209,5.5632118 15.9861974,5.53973183 17.5222743,6.10222527 C19.0584652,6.66460474 27.080732,9.85594292 28.5986769,10.4118255 C30.1171921,10.96805 30.175465,11.4262514 28.6176071,12.2377921" id="Shape" fill="#C6302B"></path>
                    <path d="M28.6181773,10.2205663 C27.0602053,11.032107 18.9895869,14.3489377 17.2713931,15.2445959 C15.5531994,16.1397983 14.5987107,16.1310218 13.2413296,15.4824731 C11.8839486,14.8342664 3.29548863,11.3662977 1.7483502,10.6274765 C0.975180123,10.2578379 0.56852459,9.94632941 0.56852459,9.65203192 L0.56852459,6.70221828 C0.56852459,6.70221828 11.7498412,4.26953387 13.554931,3.62235296 C15.3599069,2.97494409 15.9861974,2.95169208 17.5222743,3.51407155 C19.0586932,4.07656499 28.2439082,5.73258672 29.7619672,6.2884693 L29.761283,9.19633815 C29.7615111,9.48755816 29.4111898,9.80738726 28.6181773,10.2205663" id="Shape" fill="#FFFFFF"></path>
                    <path d="M28.6176071,7.28864762 C27.0597492,8.10018831 18.9893588,11.417019 17.2711651,12.3122213 C15.5530853,13.2074236 14.5985966,13.1986471 13.2413296,12.5504404 C11.8840626,11.9018917 3.2957167,8.43415098 1.74880635,7.69521583 C0.20166793,6.95639465 0.169395492,6.44747201 1.68893699,5.85260812 C3.20859252,5.25785821 11.7498412,1.90877111 13.5550451,1.26136224 C15.3600209,0.614067354 15.9861974,0.590815346 17.5222743,1.15330879 C19.0584652,1.71580223 27.080732,4.90714042 28.5986769,5.463023 C30.1171921,6.0187916 30.175465,6.47710692 28.6176071,7.28864762" id="Shape" fill="#C6302B"></path>
                    <path d="M18.7326618,4.41941814 L16.2227099,4.67986343 L15.6608502,6.03121546 L14.7533447,4.52325431 L11.8550972,4.262923 L14.0176927,3.48341081 L13.3688228,2.28684421 L15.3935477,3.07832435 L17.3022971,2.45371157 L16.7863943,3.69096918 L18.7326618,4.41941814 M15.5110057,10.9753448 L10.8267126,9.03346011 L17.5389237,8.00364688 L15.5110057,10.9753448 M9.01660512,5.1705492 C10.997996,5.1705492 12.6042055,5.79288237 12.6042055,6.56042662 C12.6042055,7.32819883 10.997996,7.95041802 9.01660512,7.95041802 C7.03521424,7.95041802 5.42900471,7.32808485 5.42900471,6.56042662 C5.42900471,5.79288237 7.03521424,5.1705492 9.01660512,5.1705492" id="Shape" fill="#FFFFFF"></path>
                    <path d="M21.6989892,4.78882873 L25.6715782,6.35788339 L21.7024103,7.9254563 L21.6989892,4.78871475 L21.6989892,4.78882873 Z M17.3040077,6.52646045 L21.6989892,4.78882873 L21.7024103,7.9254563 L21.271465,8.09391939 L17.3040077,6.52646045 Z" id="Combined-Shape" fill="#FFFFFF"></path>
                </g>
            </g>
        </g>
    </g>
</svg>