<?xml version="1.0" encoding="UTF-8"?>
<svg width="42px" height="49px" viewBox="0 0 42 49" version="1.1" xmlns="http://www.w3.org/2000/svg" xmlns:xlink="http://www.w3.org/1999/xlink">
    <!-- Generator: Sketch 46.1 (44463) - http://www.bohemiancoding.com/sketch -->
    <title>hexagon-php</title>
    <desc>Created with Sketch.</desc>
    <defs></defs>
    <g id="Page-1" stroke="none" stroke-width="1" fill="none" fill-rule="evenodd">
        <g id="Hexagon---Swag,-goodies" transform="translate(-104.000000, -99.000000)">
            <g id="hexagon-php" transform="translate(104.000000, 99.000000)">
                <polygon id="Polygon" fill="#6082BC" points="21 0 42 12.25 42 36.75 21 49 1.9095836e-14 36.75 5.32907052e-15 12.25"></polygon>
                <g id="Group-8" transform="translate(6.000000, 17.000000)" fill-rule="nonzero" fill="#FFFFFF">
                    <path d="M3.17668874,3.21848473 L7.50978436,3.21848473 C8.78167744,3.22921121 9.70326836,3.5932119 10.2745571,4.31052619 C10.8458245,5.0278526 11.0344532,6.00747805 10.8404463,7.24940251 C10.7649832,7.81683987 10.5979101,8.37356588 10.3392301,8.91958358 C10.0913066,9.46560736 9.74638271,9.95809564 9.3044614,10.3970515 C8.76550918,10.9537775 8.1888422,11.307085 7.57445741,11.4569741 C6.96005432,11.6068631 6.32410473,11.6818062 5.66660254,11.6818062 L3.72641115,11.6818062 L3.11201569,14.7330985 L0.864627323,14.7330985 L3.17668874,3.21848473 L3.17668874,3.21848473 M5.06837686,5.04926014 L4.09828117,9.86709016 C4.16294812,9.87778636 4.22762115,9.8831496 4.2923003,9.8831496 L4.51865597,9.8831496 C5.5534186,9.89384579 6.41572386,9.79214715 7.10557782,9.57802036 C7.79541348,9.35319133 8.25890569,8.57163324 8.49604832,7.23334308 C8.69005831,6.1091888 8.49603917,5.46145731 7.91399091,5.29015163 C7.34270521,5.11885808 6.62591127,5.03856092 5.76361212,5.04926014 C5.63425992,5.05995632 5.51030427,5.06531957 5.3917421,5.06531957 C5.2839486,5.06532563 5.17077077,5.06532563 5.0522086,5.06531957 L5.06837686,5.04926014" id="Shape"></path>
                    <path d="M13.4005166,0.151132934 L15.6317336,0.151132934 L15.0011684,3.21848473 L17.0060358,3.21848473 C18.1054685,3.2399074 18.9246563,3.46473643 19.4636116,3.89298093 C20.0133234,4.32124056 20.1750091,5.13491752 19.9486656,6.33401481 L18.8653951,11.6818062 L16.6018385,11.6818062 L17.6366072,6.57490631 C17.7443793,6.0395969 17.712049,5.65952467 17.5395976,5.43468654 C17.367128,5.20986053 16.995261,5.0974445 16.4239816,5.09743843 L14.6292984,5.08137901 L13.3035009,11.6818062 L11.072293,11.6818062 L13.4005105,0.151132934 L13.4005105,0.151132934" id="Shape"></path>
                    <path d="M22.344622,3.21848473 L26.6777161,3.21848473 C27.9496031,3.22921121 28.8712001,3.5932119 29.4424858,4.31052619 C30.0137531,5.0278526 30.2023788,6.00747805 30.0083719,7.24940251 C29.9329088,7.81683987 29.7658388,8.37356588 29.5071557,8.91958358 C29.2592322,9.46560736 28.9143084,9.95809564 28.4723871,10.3970515 C27.9334379,10.9537775 27.3567677,11.307085 26.742386,11.4569741 C26.127986,11.6068631 25.4920304,11.6818062 24.8345311,11.6818062 L22.8943368,11.6818062 L22.2799429,14.7330985 L20.0325575,14.7330985 L22.344622,3.21848473 L22.344622,3.21848473 M24.2363024,5.04926014 L23.2662067,9.86709016 C23.3308768,9.87778636 23.3955498,9.8831496 23.4602259,9.8831496 L23.6865816,9.8831496 C24.7213443,9.89384579 25.5836526,9.79214715 26.2735035,9.57802036 C26.9633421,9.35319133 27.4268312,8.57163324 27.6639739,7.23334308 C27.8579839,6.1091888 27.6639648,5.46145731 27.0819165,5.29015163 C26.5106309,5.11885808 25.7938369,5.03856092 24.9315377,5.04926014 C24.8021855,5.05995632 24.6782299,5.06531957 24.5596677,5.06531957 C24.4518742,5.06532563 24.3386964,5.06532563 24.2201343,5.06531957 L24.2363024,5.04926014" id="Shape"></path>
                </g>
            </g>
        </g>
    </g>
</svg>