<?xml version="1.0" encoding="UTF-8"?>
<svg width="42px" height="49px" viewBox="0 0 42 49" version="1.1" xmlns="http://www.w3.org/2000/svg" xmlns:xlink="http://www.w3.org/1999/xlink">
    <!-- Generator: Sketch 46.1 (44463) - http://www.bohemiancoding.com/sketch -->
    <title>hexagon-hadoop</title>
    <desc>Created with Sketch.</desc>
    <defs></defs>
    <g id="Page-1" stroke="none" stroke-width="1" fill="none" fill-rule="evenodd">
        <g id="Hexagon---Swag,-goodies" transform="translate(-402.000000, -461.000000)">
            <g id="hexagon-hadoop" transform="translate(402.000000, 461.000000)">
                <polygon id="Polygon" fill="#76C9FF" points="21 0 42 12.25 42 36.75 21 49 2.48689958e-14 36.75 1.11022302e-14 12.25"></polygon>
                <g id="Hadoop_logo" transform="translate(4.000000, 11.000000)">
                    <g id="g10" transform="translate(16.673399, 13.036626) scale(-1, 1) rotate(-180.000000) translate(-16.673399, -13.036626) translate(0.145621, 0.286626)">
                        <path d="M3.66934632,9.27814105 C3.53503567,8.91193653 3.40054537,8.54559704 3.26623471,8.17919005 C2.93361319,7.84945076 2.60101412,7.51912659 2.26830276,7.18920734 C1.90462428,6.82828926 1.82640927,6.83076377 1.91183273,6.3202505 C2.01214466,5.72040754 2.30005586,5.10225322 2.83006756,4.56991931 C3.3872962,4.01036582 4.5572877,3.21845613 5.39919384,3.59174674 C5.32095637,3.30834821 5.2170739,3.01120493 5.08485168,2.72067532 C4.52030231,1.48067743 5.89614998,1.23779333 6.85900532,0.976912821 C7.65921026,0.760168514 9.62305159,0.182573617 9.90644909,1.23612866 C10.0338881,1.7101767 10.0536721,1.96491593 10.008288,2.41752574 C10.2573051,2.97428978 10.3368225,3.06305709 10.5429257,3.36944604 C10.8257618,3.7896623 10.8054389,3.94960542 10.743572,4.47107401 C10.7316029,4.57158398 10.7170288,4.68118214 10.7001642,4.79635918 C11.6530714,4.6527478 12.5692627,4.65447996 13.5031046,4.77053433 C13.2195724,4.60505731 12.9352317,4.46011869 12.5602353,4.26697218 C11.6702055,3.80867101 12.5089229,2.45655546 12.89252,1.86442846 C13.6975755,0.621663615 14.4194082,-0.233368494 15.7793569,0.503832096 C16.2362062,0.751552731 16.2714625,1.01542515 16.5565891,1.44189516 C16.7140746,1.52843541 17.5257322,2.21992511 18.0084286,2.61055977 C18.1913795,2.39068858 18.5415617,2.35019665 19.0726289,2.31175181 C19.3398579,2.29229319 20.3878223,2.29892937 20.6656058,2.29715222 C21.4989785,2.29191077 21.9991235,2.3785635 22.0643139,3.28839469 C22.0951912,3.71983621 22.0767097,3.81159543 21.8648128,4.18873277 C21.8520128,4.66467043 21.8393474,5.14069806 21.8266821,5.61652324 C21.8121754,6.15261391 21.7099996,6.48145338 21.5000115,6.98229357 C21.3090438,7.43713043 21.2020848,7.82533557 20.979117,8.26642767 C21.0097249,8.43935071 21.0339776,8.61778515 21.0504604,8.804228 C21.3337906,8.53086247 21.6170533,8.25729449 21.9004059,7.98386148 C22.4405005,7.46270783 22.8867954,7.03704766 23.7103099,7.07600989 C24.5679353,7.11650183 25.5497662,7.79332445 25.8012085,8.62122696 C25.8850376,8.89758439 25.9686196,9.17387433 26.0524487,9.45011928 C27.3457922,9.20525558 28.8572979,9.26131441 29.9834324,9.86320446 C31.6396684,10.748673 32.4146101,12.5289007 32.6050838,14.412068 C32.7591784,15.9354644 32.4625542,18.4972314 31.7375102,19.8872294 C31.5243333,20.2959729 30.5616127,20.8131674 30.1395705,20.3847402 C29.8216129,20.0618846 29.6032037,19.5700426 29.2599155,19.2762061 C28.9940338,19.048619 28.6646684,18.935939 28.3760611,18.8168252 C28.1526217,19.4210773 27.8314978,19.8907387 27.4382894,20.3600402 C27.125609,20.7330158 26.8310058,20.9188963 26.4186647,21.1775497 C25.6038632,21.6886929 24.9715859,22.3339543 24.2301938,22.9462373 C21.9867052,24.7993055 20.0601187,24.7424818 17.2648134,23.5638967 C15.9312283,23.0015313 15.2879923,22.2383708 14.4700245,21.1422768 C13.9757407,21.1164519 13.6361353,21.0205535 13.1136464,20.5586306 C12.7279608,20.217666 12.3688859,19.8668709 12.021331,19.5034109 C9.40839259,19.086254 7.78563878,18.5874609 6.06883832,17.0628047 C5.37022532,16.4423559 4.86237791,15.7548029 4.46625019,14.9819019 C4.09850713,14.5748005 3.73287496,14.1575087 3.24732658,13.9702335 C2.905498,13.8385448 2.91185311,13.8388822 2.7914204,14.1609505 C3.19785553,14.466912 3.19143305,15.0428648 3.22904721,15.5641534 C3.48545233,15.5519158 3.58156495,15.2638157 3.75591504,15.0433597 C3.85878699,15.5043378 3.91843071,16.2202351 3.43413987,16.4714876 C3.51289383,16.6823605 3.60200011,16.8948982 3.68360602,17.1274568 C2.96927366,17.0032366 0.5202657,15.3496361 1.82697067,14.0884475 C1.912978,13.7382597 1.98070596,13.4970178 2.09433443,13.2602525 C2.39331654,12.6373741 3.06558839,12.5306329 3.6514038,12.7595023 C3.49086428,12.0221667 3.45832522,11.2199091 3.55495433,10.093716 C3.57812915,9.82372483 3.61702332,9.55132661 3.66934632,9.27814105" id="path66" fill="#FFFFFF"></path>
                        <polygon id="path70" fill="#71CAFF" points="12.1121664 19.2393585 9.93303725 18.8846042 7.9445839 18.0114632 6.25574143 16.9472453 4.64863961 14.9825993 3.74071218 14.0193412 2.86283118 13.6952033 2.63063387 14.2636875 3.03661987 14.8507306 3.12783703 15.6786106 3.39978185 15.6676328 3.69692255 15.3961344 3.61677631 16.2394463 3.28741093 16.4607797 3.29740395 16.7821507 2.51718505 16.3400013 1.81066746 15.5049677 1.66337711 14.7586564 1.96548064 14.161018 2.24728374 13.1457278 2.82038893 12.873892 3.42327106 12.9035411 3.99489413 13.2362723 3.61358752 11.2989134 3.99489413 9.14328043 3.57514247 8.14794378 2.20030533 6.66402699 2.44474128 5.77747867 3.09601657 4.7501309 4.32410232 3.88436842 4.97548989 3.79508372 5.69970297 3.77047362 5.24788383 1.91232141 6.9094869 1.23012236 8.9796809 0.957274235 9.68783779 1.4211093 9.74233903 2.67629167 10.5323039 3.98607066 10.5867827 5.02297902 12.4935179 4.88652122 14.2640336 5.05026608 12.4935179 3.98607066 12.7931512 2.70360123 13.9099215 0.957274235 14.9995197 0.493371681 15.8711355 0.84810349 16.22527 1.55756711 18.0502646 2.94916229 18.4043767 2.64900461 21.2644682 2.53990135 21.8364955 3.00373642 21.8909743 3.82237078 21.700321 4.1770576 21.5641016 6.38726465 20.6107452 8.29733651 20.7741367 9.14328043 21.3462089 8.84312275 22.9533107 7.34231183 23.7432082 7.28778269 24.6148464 7.6425145 25.4865519 8.29733651 25.9223373 9.71628624 28.482818 9.55258636 30.035441 10.1529017 31.2884307 11.3262004 32.1873083 13.0179983 32.4052683 15.0098863 32.2145477 17.3292866 31.7242835 19.4030359 31.2339295 20.0579254 30.553012 20.2762669 29.3544561 18.9664879 28.2649253 18.584469 27.3115465 20.1670961 26.3581901 21.0402596 25.8405967 21.3677044 23.7704701 23.0867893 22.108867 23.9872398 20.4472639 24.1236976 18.5133567 23.7962529 16.8245143 23.1686505 15.6532428 22.2136258 14.7271258 21.0948337 13.7737694 20.8219856 12.1121664 19.2393585"></polygon>
                        <path d="M5.79213277,14.3146399 C3.92550442,12.1337445 4.34015851,9.48863161 4.85748245,6.89721552 C4.58140568,7.59597128 4.30526155,8.29465954 4.02920724,8.99341529 C3.92748056,9.63395265 3.82575389,10.27449 3.72402721,10.9150274 C3.7530631,11.5701193 3.78214391,12.2251888 3.81124717,12.8802582 C4.07279476,13.506196 4.33436481,14.1321338 4.5959124,14.758139 C4.98828993,15.3403905 5.38066746,15.9227094 5.77304499,16.5050284 C6.38336013,17.0145293 6.99369773,17.5240303 7.60401287,18.0335088 C8.27246716,18.3100687 8.94096637,18.586696 9.60942067,18.8632559 C10.3941084,18.9651606 11.178841,19.0670428 11.963596,19.1689475 C11.2369577,18.3392229 10.5104091,17.5094082 9.78377076,16.6796836 C8.0335779,16.1110194 7.00140021,15.7280332 5.79213277,14.3146399" id="path72" fill="#76C9FF"></path>
                        <path d="M14.579319,20.9595232 C13.2816414,19.6912709 12.5728333,18.7347615 11.7470282,17.249765 C11.1563174,16.1874592 10.4937241,15.1643855 9.87269739,14.1169718 C9.55855733,13.5867974 9.52889266,13.1422185 9.43500321,12.5308803 C9.12984564,12.8948128 8.82468807,13.2587228 8.51950804,13.6226328 C8.66484469,14.0593833 8.81015889,14.4961112 8.95549555,14.9327942 C9.44957729,15.8208047 9.9436815,16.7088378 10.4377183,17.5967808 C11.484021,18.6303823 12.5303236,19.6639164 13.5766263,20.6974954 C13.9108197,20.784868 14.2450581,20.8721731 14.579319,20.9595232" id="path74" fill="#76C9FF"></path>
                        <path d="M20.98783,24.1038566 C19.9485337,23.7134919 18.2225038,23.58493 18.1027672,22.3899456 C18.0174785,21.5413248 18.1666327,21.1149222 18.6772647,20.2170811 C17.416056,21.5244306 17.1041391,21.3221059 14.6664715,20.9158369 C15.0152391,21.4108058 15.3640066,21.9057521 15.7127742,22.400721 C16.3230893,22.7791631 16.9334943,23.1576951 17.5438094,23.5361597 C18.3284971,23.7108599 19.1132522,23.8855376 19.8979848,24.0602378 C20.2612591,24.0747924 20.6245558,24.0893245 20.98783,24.1038566" id="path76" fill="#76C9FF"></path>
                        <path d="M23.8556914,7.93992773 C24.2017193,7.72599537 24.1942863,7.57097876 24.1364166,7.42430799 C24.409372,7.53374868 24.68226,7.64309939 24.9552153,7.7524051 C25.132058,7.99025021 25.3088334,8.22802782 25.4856537,8.46594041 C25.6169103,8.80481288 25.7481669,9.14366285 25.8794235,9.48258031 C25.711698,9.60889264 25.5440399,9.73522747 25.3762919,9.86160728 C24.6432984,9.76786846 23.91026,9.67412964 23.1772666,9.58039082 C23.122698,9.43194291 23.0680844,9.28349499 23.0134709,9.13511456 C23.0291229,8.92417409 23.04473,8.71330112 23.0603146,8.50236065 C23.1304678,8.37737556 23.2006884,8.25232298 23.2708416,8.12740537 C23.3800687,8.07269628 23.4892284,8.01798718 23.5983431,7.96334557 C23.6842157,7.95549463 23.7699536,7.9476437 23.8556914,7.93992773" id="path78" fill="#76C9FF"></path>
                        <path d="M23.6509805,11.707207 C22.548717,11.3884455 22.5573177,11.3006455 22.2317923,10.2051813 C22.6615146,10.8958387 22.9796743,11.2443842 23.6509805,11.707207" id="path80" fill="#76C9FF"></path>
                        <path d="M30.9803314,19.9051358 C30.7844009,19.8144564 30.5936353,19.7707926 30.471159,19.5912109 C30.2074332,19.2047154 29.9814563,18.8795877 29.5453565,18.6082468 C29.3257346,18.4715415 29.0985451,18.3830216 28.8656292,18.3103386 C28.6724383,18.2501406 28.5564519,18.3038824 28.3919826,18.1855335 C28.4895548,18.1684594 28.5870822,18.1513628 28.6846545,18.1341987 C28.8997626,18.1341987 29.1148483,18.1341987 29.329934,18.1341987 C29.5951195,18.298281 29.86026,18.4623408 30.1253782,18.6263556 C30.281404,18.7904379 30.4372951,18.9544303 30.5932535,19.1185126 C30.7222645,19.3807203 30.8512979,19.6429955 30.9803314,19.9051358" id="path82" fill="#76C9FF"></path>
                        <path d="M13.4218131,17.4546541 C12.9881161,16.2659685 12.6092572,15.2469666 11.9522556,14.1707136 C12.7940944,15.0792625 13.3043671,15.8514886 13.7865021,16.8787014 C13.9737645,17.2776819 14.0091555,17.7459261 14.5308135,17.5717883 C14.5542354,17.1733702 14.6383339,16.7750196 14.6617557,16.3766015 C14.9436262,18.4006356 15.7384192,19.247007 17.5860271,20.0324829 C17.0635383,19.9699229 16.5410494,19.9074978 16.0186279,19.8450053 C15.5273307,19.7355871 15.036056,19.6262814 14.5447588,19.5169307 C14.3029952,19.1653707 14.0612315,18.8138333 13.8195352,18.4623408 C13.6869312,18.1264378 13.5543946,17.7905122 13.4218131,17.4546541" id="path84" fill="#76C9FF"></path>
                        <path d="M17.0011549,17.5015123 C17.3995731,15.6228892 17.9732397,13.8200085 18.2224589,11.9115788 C18.3843233,10.6715134 18.4020188,10.0757421 17.7791506,9.0059228 C17.0984801,9.04999152 16.6758765,8.97307935 16.0174826,8.75698741 C13.3963478,7.89624144 11.8931284,6.63073363 10.1270141,9.18064548 C10.6907999,8.91454601 11.2546532,8.64837905 11.8183941,8.38214461 C12.2203155,8.46128384 12.6222369,8.54042307 13.0241584,8.6195623 C13.7337749,9.03359229 14.4434139,9.44757729 15.1530529,9.86160728 C15.706711,9.97102548 16.2603916,10.0803312 16.8140048,10.1896819 C16.993385,10.9395925 17.172698,11.689548 17.3520782,12.4394361 C17.2194967,13.4316009 17.0868927,14.4236757 16.9543786,15.4157729 C16.9388389,15.8844446 16.9232318,16.3531387 16.9075798,16.8218777 C16.9388389,17.0484526 16.9700306,17.27496 17.0011549,17.5015123" id="path86" fill="#76C9FF"></path>
                        <path d="M21.5162923,5.87758372 C21.296109,4.35133037 22.0232414,3.53082888 21.7222158,3.10939786 C21.6369271,2.99003665 21.5213898,2.78184064 21.3924238,2.72476951 C20.9316895,2.52089264 20.2983118,2.76289941 20.2529952,2.6435157 C19.7461134,2.6435157 19.2392765,2.6435157 18.7323273,2.6435157 C18.5296599,2.72953856 18.3269027,2.81544894 18.1241006,2.90133682 C18.4360175,3.26850865 18.7479793,3.63568048 19.0598962,4.00278483 C19.3639759,4.666785 19.6681229,5.33085267 19.97227,5.99478536 C20.1672573,6.66656899 20.3622222,7.33835262 20.5570748,8.01020373 C20.6584871,8.01020373 20.759877,8.01020373 20.8612219,8.01020373 C21.0796311,7.29932289 21.2979504,6.58846455 21.5162923,5.87758372" id="path88" fill="#76C9FF"></path>
                        <path d="M18.9604601,10.3145995 C19.0839693,9.62158011 19.2984711,9.45693542 19.6238842,8.7861191 C19.4072715,7.69175719 19.0593348,6.39027905 18.6405937,5.42470397 C18.4640204,5.01749012 18.3214908,4.79298486 18.0101578,4.47829507 C17.4845475,3.94659102 16.9531659,3.48340833 16.3570207,3.02256516 C15.9279946,2.69122869 15.628496,2.85740308 15.0990682,2.93251561 C14.8739221,2.52363709 14.8117184,2.29649985 14.3973337,2.08893372 C13.7600038,1.76972233 13.1896607,2.45763524 12.6894484,2.86223961 C13.0505669,2.29719722 13.4116853,1.73217731 13.7727365,1.16713491 C14.0223373,0.932799112 14.2718708,0.698440815 14.5214044,0.464037527 C14.731909,0.43285874 14.9424809,0.401612467 15.1530529,0.370298707 C15.4337781,0.542209449 15.7144809,0.714075199 15.9952061,0.885918454 C16.1433947,1.16713491 16.2915833,1.44835137 16.4397045,1.72954534 C16.7516214,1.96390363 17.0636056,2.19823944 17.3754552,2.43264272 C17.7576376,2.76071735 18.1397526,3.08881446 18.5218227,3.41688908 C18.7635864,3.76066558 19.0052827,4.10435209 19.2470463,4.44806109 C19.4653208,4.85426264 19.68373,5.26050919 19.9020494,5.66671074 C20.1827746,6.51033762 20.4634998,7.35403199 20.7442923,8.19768137 C20.7676468,8.51804003 20.7910687,8.83828621 20.8144231,9.15850989 C20.4634998,9.31480875 20.1126213,9.47104011 19.761698,9.62727148 C19.5043497,9.86945822 19.2178308,10.0724803 18.9604601,10.3145995" id="path90" fill="#76C9FF"></path>
                        <path d="M10.5677623,5.43237494 C11.7485103,5.43237494 12.9954369,5.49797187 14.0768835,5.99478536 C14.3829393,6.4547287 14.6849979,6.83033635 15.0594778,7.23683035 C14.7186598,6.59201884 14.6117906,6.22754648 14.5214044,5.50262844 C14.404385,5.33085267 14.2874555,5.15894193 14.1704586,4.98707618 C13.2814393,4.96361335 12.3925098,4.94021801 11.5034905,4.91675519 C11.2149506,4.94804645 10.9263881,4.97929273 10.6378931,5.01049401 C10.6067238,5.04178527 10.5755322,5.07303155 10.5443405,5.10423283 C10.5521552,5.21365103 10.5599925,5.32300173 10.5677623,5.43237494" id="path92" fill="#76C9FF"></path>
                        <path d="M10.4039666,6.25260648 C10.3734262,6.52986373 10.3428633,6.80723346 10.3123003,7.08462568 C10.1105761,5.86827057 10.1590816,5.05314551 9.60025853,3.96355264 C9.1827974,3.47899921 8.6688419,3.03810957 8.08017455,2.80217658 C8.12987017,2.50343612 8.14471373,2.31679081 8.11587994,2.09775196 C8.01217712,1.30991396 6.43887191,1.65794211 5.79175102,1.68932335 C6.83010417,1.42149173 7.86845731,1.15375008 8.90672064,0.885918454 C9.14066954,0.979657274 9.37459598,1.07339609 9.60858979,1.16713491 C9.68658024,1.62019463 9.76454823,2.07332183 9.84253869,2.52638154 C10.0608581,2.9325831 10.2792672,3.33882964 10.4975417,3.7449637 C10.5365032,3.99500138 10.5755322,4.24497156 10.6145386,4.49491925 C10.5443405,5.080815 10.4741872,5.66671074 10.4039666,6.25260648" id="path94" fill="#76C9FF"></path>
                        <path d="M8.64937236,13.1190706 C8.61672101,12.527641 8.57859035,12.2810451 8.83894777,11.7586767 C9.16995245,11.0947215 9.57645494,10.4709658 9.93611375,9.81474912 C9.97505284,10.2522419 10.0140144,10.6896898 10.0530433,11.1271151 C9.58516795,11.7911378 9.11729261,12.4551379 8.64937236,13.1190706" id="path96" fill="#76C9FF"></path>
                        <path d="M3.84701993,8.65132597 C3.74574238,8.4353915 3.64446482,8.21941204 3.54318727,8.00350006 C3.82193633,7.06300749 4.06967335,6.46723621 4.60044856,5.64560994 C4.50801876,5.31267629 4.43883114,5.16704031 4.22614829,4.89569939 C3.75903646,4.96770754 3.34427008,4.98849339 2.87098279,4.98707618 C3.39353902,4.58089712 3.91602789,4.17469557 4.43844939,3.76842653 C4.6957303,3.81530719 4.95310103,3.86216535 5.21044931,3.90904601 C5.46775268,4.16684463 5.72510096,4.42459827 5.98247169,4.68239689 C5.61587391,5.25268075 5.24941085,5.82294211 4.8829478,6.39320346 C4.53761606,7.14590347 4.19228431,7.89867096 3.84701993,8.65132597" id="path98" fill="#76C9FF"></path>
                        <path d="M30.9837672,20.2163163 C31.3019269,18.7821371 31.7123143,17.4588608 31.674251,15.9900385 C31.6275196,14.1880576 31.2769107,11.9118487 29.61021,10.8251803 C27.7437164,9.60826277 25.5526855,10.1838331 23.5047681,10.7052342 C24.3392188,10.3615477 25.1736245,10.0179061 26.0079629,9.67412964 C26.7878,9.63505493 27.5676372,9.59602521 28.347407,9.556928 C28.8777331,9.71322685 29.4079693,9.86945822 29.938228,10.0256221 C30.3515348,10.3693761 30.7648639,10.7130851 31.1781033,11.0567941 C31.4900202,11.7129433 31.8019371,12.3691826 32.1138989,13.0253318 C32.2308509,13.7831383 32.3478478,14.5408773 32.4647773,15.2985488 C32.3712023,16.0407434 32.2776272,16.782803 32.1840521,17.5249076 C32.0125091,18.2592513 31.8408986,18.993595 31.6694005,19.7278036 C31.440886,19.8906712 31.212349,20.0534713 30.9837672,20.2163163" id="path100" fill="#76C9FF"></path>
                        <path d="M3.12911704,15.9419656 C2.28173158,15.3894982 1.9489304,15.146929 2.04180933,14.1230231 C2.12622226,13.8163642 2.2106801,13.5096378 2.2951604,13.2030014 C2.41476223,13.1218826 2.53443142,13.0408312 2.65405571,12.9597124 C2.80186255,12.9104247 2.94966938,12.8610695 3.09747622,12.8117144 C3.36488489,12.8751742 3.63231601,12.9386116 3.89979204,13.0020715 C4.037022,13.428609 4.17427442,13.855124 4.31150438,14.2816615 C3.93143286,14.0948362 3.55140625,13.9079884 3.17137964,13.7211632 C3.08339617,13.7211632 2.99543516,13.7211632 2.90745169,13.7211632 C2.8089138,13.8727379 2.71037591,14.0243127 2.61183801,14.1758875 C2.73150721,14.3521399 2.85113149,14.5283923 2.97080069,14.7046447 C3.03412723,15.0395354 3.09747622,15.3744487 3.16080276,15.709272 C3.24171252,15.6845944 3.32268965,15.6599843 3.40359941,15.6353067 C3.5021373,15.5576972 3.6006752,15.4801776 3.69921309,15.4026356 C3.68513304,15.5788879 3.67107545,15.7551403 3.65695048,15.9313927 C3.59009832,16.0441852 3.52326861,16.1569777 3.45637153,16.2697928 C3.38951936,16.326234 3.32268965,16.3825853 3.25579257,16.4390265 C3.21357488,16.2733021 3.17137964,16.1076226 3.12911704,15.9419656" id="path102" fill="#76C9FF"></path>
                        <path d="M22.139924,24.0103877 C22.8918929,23.3108671 23.8149558,22.7027908 24.4164457,21.8478487 C24.6492269,21.5168496 24.9079225,21.3476159 24.4124934,20.880204 C24.9359254,21.0299792 25.1303963,21.0137149 25.5493844,20.96283 C26.3115934,20.8704409 27.0259932,19.7850547 27.0715793,19.0072272 C27.0625968,18.9344767 26.8598621,18.7693821 26.270521,18.6064021 C26.2588213,18.5837041 25.937922,18.6504034 25.9458939,18.6286502 C26.007132,18.4607661 26.0889849,18.4350538 26.2139313,18.3564994 C26.2410585,18.1697866 26.2585069,17.881889 26.3854295,17.6777647 C26.756294,17.6842659 27.11867,17.6438414 27.481832,17.5717883 C27.6040387,17.3687438 27.5855797,17.1657217 27.575407,16.9624972 C27.7157584,16.9858926 27.8561322,17.0093554 27.9964836,17.0327732 C27.9574547,17.3531319 27.9185156,17.6733556 27.8795541,17.9936017 C28.0042535,18.2045422 28.1290202,18.4154827 28.2538319,18.6263556 C28.0744067,19.0325572 27.8950713,19.4387587 27.7157584,19.8450053 C27.3726049,20.1730799 27.0294963,20.501177 26.6863878,20.8293191 C26.653422,20.8308938 26.6202542,20.832626 26.5872885,20.8342232 C26.2014008,21.0715059 25.8155805,21.3086536 25.4297602,21.5458688 C24.8004021,22.0616686 24.1710441,22.5775358 23.5416861,23.093358 C23.0743946,23.3990495 22.6071705,23.7047411 22.139924,24.0103877" id="path104" fill="#76C9FF"></path>
                        <path d="M23.4067467,18.2362384 C23.367089,18.1667272 23.3071758,18.0556444 23.2304204,17.9787322 C23.5436623,17.6819039 23.698206,17.483156 23.8098583,17.0633671 C23.4557462,16.8872497 23.1017014,16.7111323 22.7475893,16.5349924 C22.4479559,16.2472747 22.1483226,15.9595121 21.8487117,15.6717944 C21.454358,15.8844446 21.3560671,16.047762 21.1652342,16.4531762 C20.9430074,16.3942605 20.7324355,16.3375043 20.5489232,16.4049683 C20.6653587,16.4040685 20.7369042,16.4332227 20.853205,16.5052758 C21.0439032,16.7037313 21.2345565,16.9021642 21.4252098,17.1006197 C21.7620082,17.3561238 22.0988066,17.6116279 22.4355376,17.867087 C22.655923,17.9390726 22.8763532,18.0110133 23.0967386,18.0829314 C23.180882,18.1176195 23.3225134,18.2014828 23.4067467,18.2362384" id="path106" fill="#76C9FF"></path>
                        <path d="M24.3841761,17.1776443 C23.2575925,16.5699954 22.1785711,15.9588597 21.6025466,14.8048172 C21.6025466,16.2696578 23.0707567,16.9144693 24.3841761,17.1776443" id="path108" fill="#76C9FF"></path>
                        <path d="M21.3788602,20.0591401 C20.542366,19.4877765 19.9508243,18.3347463 20.0251768,17.2109827 C19.7526706,18.1840038 19.8492323,19.1034631 20.6859062,19.7755616 C20.8271109,19.8443079 20.9682258,19.9130542 21.1093407,19.981778 C21.1992329,20.0075579 21.2890578,20.0333153 21.3788602,20.0591401" id="path110" fill="#76C9FF"></path>
                        <path d="M22.9778329,11.3845538 C23.1507233,11.47881 23.4645939,11.6084292 23.6374843,11.7026854 C23.4596311,11.6725864 23.1407752,11.6071019 22.962922,11.5770704 C22.4878606,11.4967164 22.4319895,11.3823267 22.3582658,10.9137676 C22.3235035,10.6931316 22.2756493,10.4193836 22.2408871,10.1986801 C22.3340131,10.4482004 22.4460471,10.7382126 22.554578,10.9761927 C22.6694192,11.2278725 22.7340931,11.2516053 22.9778329,11.3845538 L22.9778329,11.3845538 Z M14.1633399,23.4518465 C14.5366746,24.0128172 14.7516255,24.1953009 15.326123,24.550685 C14.5460388,24.3624426 14.3973337,24.2177514 14.1633399,23.4518465 Z M14.040482,22.2159878 C14.6937783,23.5316156 15.1884439,24.0160566 16.5562074,24.6622178 C15.009131,24.2823585 14.5543701,24.0122323 14.040482,22.2159878 Z M0.0503468448,15.36806 C0.193707352,16.0268412 0.32732186,16.2753492 0.732791365,16.8161414 C0.0750486866,16.3558156 -0.0106891606,16.1667408 0.0503468448,15.36806 Z M14.6938906,4.34208471 C14.6741067,4.50193786 14.6542329,4.66192597 14.6343142,4.82180161 C14.5984741,5.1114314 14.5998889,5.34680199 14.6229289,5.63834389 C14.6451381,5.92050516 14.6672351,6.20266643 14.6893769,6.48489519 C14.6073219,6.19807735 14.4433465,5.91125951 14.3613589,5.62444166 C14.3285728,5.50964704 14.3014008,5.41680804 14.2858611,5.33098764 C13.0617052,5.08043257 11.8464644,5.0647532 10.6219941,5.28358959 C10.5438913,5.7376841 10.4487893,6.21089979 10.3690248,6.5500647 C10.3448394,6.17013792 10.360424,5.11984472 10.3584479,4.53178941 C10.3569209,4.07612021 10.3377657,3.9201363 10.1032554,3.53256103 C9.88365602,3.16966335 9.79064236,3.08735225 9.48326162,2.47428193 C9.50879435,2.08747151 9.50928838,1.83165249 9.40668591,1.46448066 C9.23601864,0.854154784 7.51483922,1.32705554 7.06072954,1.45159073 C6.50156967,1.60489768 5.34552348,1.83279976 5.6362417,2.57956095 C5.89213032,3.23674498 6.05426423,3.9296294 6.179278,4.84929113 C5.15482526,6.32765153 4.20203031,8.35371028 4.01925913,10.1487626 C3.87731337,11.5426298 3.96248981,12.4005413 4.2635828,13.2531214 C4.74066519,14.6039547 5.40804159,15.7732942 6.47904608,16.7148891 C7.92363225,17.984671 9.27408194,18.4947344 11.3884698,18.8170951 C10.8800385,18.2469463 10.3769743,17.6439764 9.82866074,16.9975002 C9.2735879,16.3429257 8.94370603,15.6818724 8.59132303,14.9660201 C8.10442727,13.9772521 8.11484696,13.6010146 8.76032854,12.7330251 C9.31654665,11.9849816 9.61680876,11.6481563 9.85965032,10.9163096 C9.65907137,10.5021446 9.58617848,10.1522044 9.51872,9.58664458 C10.1997722,8.84096318 10.7058231,8.32993251 11.367069,8.17248639 C12.015672,8.01805466 12.5573609,8.04801869 13.1375847,8.34511699 C14.4264146,9.00522544 15.6188847,9.85746811 17.0727004,9.89271858 C17.7452866,11.5491985 17.6773117,12.9331902 17.3543688,14.5358383 C17.1338712,15.6303352 17.045461,16.6666812 16.9768348,17.7825263 C16.7041489,16.6333878 16.6530161,15.6228217 16.8552568,14.4782048 C17.0991763,13.0987347 17.2887517,11.5747084 16.6103044,10.36238 C15.2957622,10.2615551 14.1691336,9.46039973 12.9842537,8.84568723 C12.5080471,8.59850649 12.0122137,8.57448128 11.4850315,8.7194199 C10.9957105,8.85403307 10.6655367,9.17828345 10.1383994,9.78732708 C10.1301804,10.3987777 10.2678819,10.6810065 10.548158,11.2347111 C10.9985175,12.1239814 11.4956533,12.951749 12.0411149,13.8268246 C11.3731322,13.0190781 10.7403159,12.34437 10.2145933,11.5323718 C10.0136326,12.10594 9.7263502,12.3970995 9.25034571,13.0428783 C8.78541214,13.6735851 8.7367046,13.9498301 9.08432688,14.6796971 C9.43385794,15.4132085 9.7303025,16.0579525 10.3252351,16.7014367 C11.353191,17.8134576 12.2948477,19.051116 13.4190061,20.1462428 C14.0293437,20.7408668 14.2771481,20.7203284 15.0867846,20.8432664 C15.8184981,20.9543492 16.5330325,21.0946538 17.2793201,21.2683417 C16.5575323,21.2009451 15.8598849,21.1761325 15.1572522,21.158676 C15.1499315,21.1584735 15.1427455,21.1582261 15.1354697,21.1582261 C15.8267844,22.0426598 16.2279872,22.5354691 17.3507533,23.0241618 C20.115114,24.2268846 21.8715497,24.3569537 24.0430437,22.5283831 C24.605819,22.05447 25.0973632,21.5943917 25.6680431,21.1855132 C25.4611539,21.1677867 25.2828516,21.1306241 25.0470163,21.0378301 C25.3340293,21.0926067 25.6654831,21.03828 25.9633199,20.9837509 C26.0469694,20.9294242 26.1328419,20.8764472 26.2209377,20.8244151 C26.62369,20.5866825 26.8523392,20.4553762 27.1247781,20.0750894 C27.4127566,19.6732295 27.6527463,19.2716845 27.8643288,18.8290852 C27.7256841,18.8786879 27.6094507,18.920642 27.5058377,18.9515058 C27.4295764,18.9865089 27.3466231,19.0096568 27.2586621,19.0181376 C27.0844243,19.0349192 26.9177093,18.9919978 26.7788176,18.9063573 C26.773226,18.9037479 26.7676793,18.9012059 26.7620203,18.8984614 C26.5392097,18.7898081 26.1940127,18.6659028 25.9630055,18.6283353 C26.080766,18.5875959 26.3413704,18.5723439 26.4642957,18.6210692 C26.4807786,18.6276379 26.4975309,18.6326094 26.51471,18.6367486 C26.4592655,18.5422449 26.4230437,18.4348738 26.4119054,18.3189319 C26.3971516,18.1651975 26.4283433,18.0176494 26.4943422,17.8895375 C26.4945667,17.8890876 26.4947913,17.8886377 26.4950159,17.8881877 C26.5159001,17.839035 26.5448687,17.7936391 26.5767565,17.7609756 C26.4711,17.7220808 26.3633775,17.6775172 26.252309,17.6291744 C26.7674098,17.7077962 27.2318942,17.721316 27.7347115,17.6549317 C27.7678793,17.4961584 27.8012942,17.3279369 27.8322388,17.156791 C27.7699228,17.1518195 27.7077865,17.1470954 27.6455378,17.1421914 C27.6405076,17.1417415 27.6354101,17.1412916 27.6303799,17.1408417 C27.3925011,17.3313112 27.1274504,17.2993001 26.7653663,17.2165166 C25.664248,16.9649717 25.923011,16.3459851 25.4163762,15.4133884 C25.9423683,16.0575026 25.9034067,16.7313783 26.7605382,16.9347378 C26.9602863,16.9821133 27.0962587,17.0413665 27.2314451,17.0210081 C26.9881095,16.898385 26.7775825,16.6951605 26.6941352,16.45916 C26.4588613,15.7936301 26.6049615,15.2328619 26.3465129,14.6112658 C26.6666937,15.1669275 26.6859835,15.709272 26.9722554,16.2938855 C27.07506,16.5039261 27.4566586,16.8400991 27.6909218,16.8452731 C27.755214,16.8466228 27.8193714,16.8480175 27.8837309,16.8494123 C27.9401859,16.479451 27.974499,16.1122117 27.9526042,15.8075324 C27.9126995,15.2516232 27.7685081,14.4264651 27.6822088,14.110763 C27.9722084,14.4841886 28.1042959,15.2751535 28.2316676,15.831895 C28.364339,16.411717 28.3308567,17.1074133 28.2147356,17.7302242 C28.0554087,18.5848289 28.9339859,18.4458291 29.4440565,18.8485664 C29.8189855,19.1446974 30.0770524,19.6174631 30.4208347,19.9523764 C30.7618548,20.2844777 31.2985809,19.79646 31.4326446,19.4717597 C32.0142606,18.062393 32.2791991,15.8450324 32.1255986,14.4243055 C31.9532246,12.8300707 31.1844584,11.0896826 29.7807875,10.304769 C27.991431,9.30432584 25.8815793,9.91555153 24.1038102,10.5155295 C23.7243675,10.643574 23.4605069,10.8302193 23.1269422,11.0407098 C23.2177776,10.6310664 23.2590297,10.1975103 23.1382152,9.78838437 C22.9464166,9.13929872 22.636678,8.07726287 23.5164678,7.8813719 C23.85129,7.80684425 24.0031165,7.81761961 24.4758648,8.06196591 C24.0932333,7.97531318 23.9003568,7.99654895 23.6373945,8.04520675 C23.3990891,8.08918549 23.272728,8.24089526 23.2061453,8.41968963 C23.2893905,8.35944663 23.4251832,8.32667066 23.6572009,8.27067932 C24.3094193,8.1132332 24.9309401,8.42767554 25.0524732,8.88080274 C25.1233675,9.14548499 25.111286,9.28450729 25.2614508,9.64517791 C25.3963228,9.60353871 25.5359332,9.56540881 25.6790242,9.53076571 C25.5983165,9.26696078 25.5174741,9.00284092 25.4366991,8.73903599 C25.2270703,8.05406999 24.4104274,7.50171506 23.6892908,7.51440253 C23.022678,7.52625767 22.6000744,7.94456181 22.1399015,8.35465509 C21.8228421,8.63726627 21.5177519,8.90763989 21.2153116,9.17540403 C20.385689,9.43761178 19.7206929,9.7440682 18.9507141,10.3150944 C19.4986458,9.66996797 19.8704086,9.31287413 20.6345937,8.9918856 C20.5233905,7.85624441 20.1294186,7.02825191 19.7935185,5.9414035 C19.6415572,5.44987645 18.4413396,3.48077635 18.1087406,3.28875462 C17.871558,3.15191439 16.3861015,1.89846417 16.1065889,1.73316711 C15.8984871,1.4562248 15.7158058,1.07368854 15.4029457,0.908031548 C14.4494995,0.403007189 13.8368265,1.37002198 13.3237019,2.18681171 C13.0900225,2.55888757 12.4413745,3.6305515 13.0068895,3.93077668 C13.5415946,4.21453513 13.8410258,4.41717475 14.3865548,4.77593325 C14.466701,4.62959991 14.6043127,4.48841805 14.6939355,4.34219719 L14.6938906,4.34208471 Z M16.5565891,1.44182767 C16.2714176,1.01542515 16.2362062,0.751552731 15.7793569,0.503832096 C14.4193633,-0.233368494 13.6975755,0.621596129 12.89252,1.86442846 C12.5089229,2.45662294 11.6702055,3.80867101 12.5602353,4.26701717 C12.9352317,4.46011869 13.2194601,4.60485485 13.5029699,4.77026438 C12.5692627,4.65421001 11.6528918,4.65281529 10.7000294,4.79642667 C10.7168941,4.68124962 10.7316029,4.57165146 10.7435047,4.47114149 C10.8054389,3.94960542 10.8257618,3.7896623 10.5429257,3.36944604 C10.3367552,3.06298961 10.2573051,2.97428978 10.008288,2.41752574 C10.0536047,1.96491593 10.033933,1.7101767 9.90644909,1.23612866 C9.62305159,0.182641103 7.65921026,0.760101027 6.85900532,0.976912821 C5.89614998,1.23772585 4.52030231,1.48060994 5.08485168,2.72067532 C5.21714127,3.01120493 5.32102374,3.30834821 5.39919384,3.59174674 C4.5572877,3.21845613 3.3872962,4.01029833 2.83006756,4.56991931 C2.30005586,5.10225322 2.01214466,5.72040754 1.91183273,6.3202505 C1.82640927,6.83076377 1.90462428,6.82828926 2.26830276,7.18920734 C2.60101412,7.51912659 2.93361319,7.84945076 3.26623471,8.17919005 C3.40054537,8.54546206 3.53510303,8.91141913 3.66934632,9.27744369 C3.61702332,9.5508767 3.57812915,9.82361235 3.55495433,10.093716 C3.45832522,11.2199091 3.49079691,12.0218968 3.6514038,12.7591649 C3.06558839,12.530183 2.39338391,12.6374416 2.0944018,13.2602525 C1.98070596,13.4970178 1.912978,13.7381923 1.82710541,14.088335 C0.520310613,15.3496361 2.9692063,17.0031691 3.68360602,17.1275243 C3.60193274,16.8950332 3.51244471,16.6823605 3.43369075,16.4714876 C3.91818369,16.2202351 3.85878699,15.5043378 3.75591504,15.0434272 C3.58163232,15.2637482 3.4853176,15.5518483 3.22897985,15.5642209 C3.19143305,15.0429772 3.19792289,14.4669795 2.79155514,14.1609505 C2.91185311,13.8388147 2.90554291,13.8385448 3.24743886,13.9702335 C3.7330097,14.1575087 4.09864187,14.5746881 4.46645229,14.9818344 C4.86258001,15.7548029 5.37036005,16.4424009 6.06890568,17.0628047 C7.78550404,18.5873934 9.4080782,19.0861865 12.0207471,19.5032759 C12.3685041,19.8668259 12.7278935,20.2175985 13.1136464,20.5586756 C13.63627,21.020666 13.9756059,21.1165869 14.4698898,21.1424117 C15.2878127,22.2383708 15.931363,23.0015987 17.2648807,23.5638967 C20.0600513,24.7424818 21.9867052,24.7993055 24.2301938,22.9462373 C24.9715859,22.3339543 25.6038632,21.6886929 26.4186647,21.1775497 C26.8310058,20.9188963 27.1256763,20.7329708 27.4382894,20.3600402 C27.8314304,19.8907387 28.1525094,19.4214147 28.3759937,18.8173426 C28.6647358,18.9363889 28.9940338,19.0485515 29.2599155,19.2762061 C29.6032037,19.5700426 29.8216129,20.0618846 30.1395705,20.3847402 C30.5616127,20.8131674 31.5243333,20.2959729 31.7375102,19.8872294 C32.4625542,18.4972314 32.7591784,15.9354644 32.6050838,14.412068 C32.4146101,12.5289007 31.6396684,10.748673 29.9834324,9.86320446 C28.8572979,9.26131441 27.3458596,9.20525558 26.0523813,9.45018677 C25.9685522,9.17387433 25.8850376,8.89758439 25.8012085,8.62127196 C25.5496988,7.79332445 24.5679353,7.11656931 23.7103099,7.0759649 C22.8868627,7.03704766 22.4405005,7.46277532 21.9004508,7.98386148 C21.6171207,8.25729449 21.3336109,8.53054753 21.0502808,8.80398055 C21.0337979,8.61771766 21.0094778,8.43910326 20.9788476,8.26622521 C21.2019052,7.82502063 21.3090438,7.43713043 21.4999441,6.98229357 C21.7099996,6.48138589 21.8122428,6.15261391 21.8266821,5.61652324 C21.8393474,5.14063058 21.8520801,4.66460294 21.8648128,4.18873277 C22.0767097,3.81159543 22.0952361,3.71983621 22.0643812,3.28825972 C21.9991235,2.37869847 21.4990459,2.29191077 20.6656058,2.29715222 C20.3879346,2.29892937 19.3398579,2.29242817 19.0726963,2.31175181 C18.5416067,2.35019665 18.1915142,2.39082356 18.008496,2.61055977 C17.5257996,2.21992511 16.7140746,1.52843541 16.5565891,1.44182767 Z M20.8187572,7.57237348 C20.651099,6.972598 20.4257509,6.40640833 20.2200294,5.75745766 C20.0253565,5.14312758 19.0268631,3.35923307 18.4391389,2.92691423 C18.5535309,2.84158873 18.763519,2.80816039 19.1375498,2.77583433 C19.4021739,2.75295639 20.4454225,2.74809736 20.7073743,2.74357576 C21.2840725,2.73349777 21.5029308,2.77691412 21.5612496,3.43475052 C21.5897466,3.75677385 21.5646181,3.81697185 21.4038091,4.0992681 C21.3895494,4.60276276 21.3753121,5.1063924 21.3611647,5.60988706 C21.3477359,6.08724194 21.2562717,6.36220464 21.0689195,6.80705349 C20.9567731,7.07328794 20.8959167,7.32177342 20.8187572,7.57237348 Z M3.25267116,15.8120765 C3.38213127,15.826811 3.46221014,15.7587621 3.56234243,15.6585221 C3.54381605,15.8980318 3.49964466,16.0756115 3.33178442,16.1735119 C3.32001736,16.1345497 3.30894644,16.095655 3.2985043,16.0561078 C3.27818142,15.9790157 3.26367471,15.897132 3.25267116,15.8120765 Z M4.06612526,14.0815638 C3.97293195,13.8400295 3.88647551,13.5910716 3.80507171,13.3338353 C3.79157552,13.2913188 3.77864074,13.2485098 3.7660428,13.2059258 C3.27360035,12.996695 2.62609771,12.8637465 2.37822596,13.3821782 C2.25786062,13.6337906 2.18993056,13.8807014 2.10214919,14.1987655 C1.29118773,15.0403678 2.50344184,16.1514438 3.16374453,16.5499744 C3.06819331,16.3442079 3.00033062,16.1884265 2.95400343,16.0280559 C2.75322237,15.3329894 3.04488376,14.7126756 2.41514398,14.208776 C2.7110945,13.6105302 2.69746358,13.3719652 3.38601619,13.6484126 C3.65165082,13.7550189 3.87068878,13.9046816 4.06612526,14.0815638 L4.06612526,14.0815638 Z M3.87637021,8.41786749 C4.24963749,7.1246677 4.88530571,5.85398592 5.5900268,4.78576379 C5.58995943,4.77957753 5.58989206,4.77345875 5.58984715,4.76716 C5.54572067,4.5835066 5.49461032,4.40450977 5.38753906,4.2608534 C4.88384605,3.58580792 3.60251661,4.57673545 3.23165214,4.95603236 C2.82622754,5.37071473 2.55486658,5.86183685 2.49026004,6.32236508 C2.44328163,6.65835812 2.48886775,6.6665015 2.72286156,6.90416664 C3.03821426,7.22396291 3.35388134,7.54400663 3.6690993,7.86373542 C3.73810726,8.04853609 3.80736224,8.2331343 3.87637021,8.41786749 L3.87637021,8.41786749 Z M27.7282441,18.7975015 C27.800104,18.7263482 27.8580859,18.6416076 27.8980805,18.5478688 C27.9198405,18.5678898 27.9431501,18.586831 27.9675151,18.6048049 C27.9379852,18.6714367 27.9079387,18.7371236 27.8772635,18.8018432 C27.8261981,18.8007184 27.7766148,18.7993012 27.7282441,18.7975015 Z M21.5582405,16.4713526 C21.492556,16.6093401 21.4611173,16.7549311 21.4599721,16.8987224 C21.2182084,16.705261 20.9553584,16.521855 20.6826051,16.4158786 C21.0591959,16.7527715 21.5707261,17.5472907 21.9413885,17.7980932 C22.362016,18.082819 22.9328755,18.02739 23.4232969,18.2546622 C23.2558633,18.1022551 23.0412942,17.9794521 22.8228176,17.8625654 C23.0635034,17.7743154 23.2714704,17.5957685 23.3901291,17.3465632 C23.4401615,17.2414641 23.4700732,17.131731 23.4821771,17.0219304 C23.8116548,17.1303363 24.135204,17.1816485 24.4084737,17.1777118 C23.430932,16.9028166 22.3911192,16.2599172 21.6741595,15.4085519 C21.7546875,15.6305826 21.8672381,15.8309502 22.0028063,16.0098796 C21.8149151,16.1082749 21.6562843,16.2655861 21.5582405,16.4713526 L21.5582405,16.4713526 Z M17.0250932,20.0139241 C16.4852906,19.8029162 15.9929155,19.6445927 15.4666765,19.5121391 C14.9865176,18.8799701 14.6940253,18.5524579 14.5835183,17.7051192 C14.4535417,18.5386906 14.4264819,18.6934373 14.7968299,19.3156183 C14.6895116,19.2609767 14.5896937,19.1858417 14.4466701,19.0633536 C13.9292788,18.6201694 13.2548511,16.8785664 12.9851968,16.2558905 C13.1563581,17.0053512 13.6917818,18.8786879 14.2432167,19.4247215 C14.6058622,19.7838625 14.6880969,19.7756291 15.1994475,19.8240845 C15.8085051,19.8819204 16.41635,19.9449979 17.0250932,20.0139241 L17.0250932,20.0139241 Z M28.2923443,18.1966913 C28.7302406,18.155187 28.980605,18.0874755 29.3727131,18.2817693 C30.1035956,18.6440821 30.6413772,19.2355792 30.9900774,19.9430183 C30.7767657,19.099009 30.3474702,18.3818069 29.4569912,18.0636753 C29.0196788,17.9075789 28.7376961,18.0687818 28.2923443,18.1966913 L28.2923443,18.1966913 Z M19.8881265,18.1142452 C20.0531124,18.8461593 20.3460537,19.5513713 21.480789,20.0969551 C19.9767837,19.7197053 19.6948009,19.0869514 19.8881265,18.1142452 Z M0.3861347,13.8125624 C0.515168139,15.2762782 0.799329144,15.9081323 1.83748019,17.0096478 C0.535333824,16.090526 0.210392323,15.6728517 0.3861347,13.8125624 L0.3861347,13.8125624 Z" id="path136" fill="#FFFFFF"></path>
                        <path d="M21.7544405,16.2357345 C21.6539264,16.4462926 21.7437962,16.7000195 21.9545029,16.800462 C22.1652546,16.901017 22.4190548,16.8111699 22.5195688,16.6004769 C22.5291127,16.5805233 22.5367029,16.5599849 22.5428784,16.5394015 C22.3416482,16.3898738 22.1571254,16.213554 22.0024919,16.0093622 C21.8982277,16.0513163 21.8060673,16.1275986 21.7544405,16.2357345" id="path138" fill="#76C9FF"></path>
                        <path d="M26.4630157,18.0604359 C26.4798354,18.2348887 26.6283384,18.363518 26.8024415,18.3466689 C26.9765221,18.3297747 27.1050615,18.1738808 27.0883092,17.9994056 C27.0847386,17.962288 27.0747007,17.9274649 27.0596775,17.8954088 C26.9002833,17.8682342 26.7409339,17.8213761 26.5767116,17.7609081 C26.508018,17.8313191 26.4533596,17.9598585 26.4630157,18.0604359" id="path140" fill="#76C9FF"></path>
                    </g>
                </g>
            </g>
        </g>
    </g>
</svg>