<?xml version="1.0" encoding="UTF-8"?>
<svg width="42px" height="49px" viewBox="0 0 42 49" version="1.1" xmlns="http://www.w3.org/2000/svg" xmlns:xlink="http://www.w3.org/1999/xlink">
    <!-- Generator: Sketch 46.1 (44463) - http://www.bohemiancoding.com/sketch -->
    <title>hexagon-git</title>
    <desc>Created with Sketch.</desc>
    <defs></defs>
    <g id="Page-1" stroke="none" stroke-width="1" fill="none" fill-rule="evenodd">
        <g id="Hexagon---Swag,-goodies" transform="translate(-250.000000, -386.000000)">
            <g id="hexagon-git" transform="translate(250.000000, 386.000000)">
                <polygon id="Polygon" fill="#DE4C36" points="21 0 42 12.25 42 36.75 21 49 2.08721929e-14 36.75 7.10542736e-15 12.25"></polygon>
                <path d="M34.6896371,23.0640299 L21.9590748,10.3246451 C21.2263829,9.590792 20.0373847,9.590792 19.3034235,10.3246451 L16.6601477,12.9704538 L20.0132684,16.3262995 C20.7926064,16.0627348 21.6864969,16.239609 22.3074922,16.8610501 C22.9322954,17.4866194 23.1071387,18.3884553 22.8374167,19.1712108 L26.0693212,22.4054357 C26.851515,22.13552 27.7533386,22.3098538 28.3781417,22.9360581 C29.2507718,23.8089972 29.2507718,25.224308 28.3781417,26.0978821 C27.504877,26.9717738 26.0908989,26.9717738 25.2173169,26.0978821 C24.5607818,25.4405581 24.3986312,24.4752126 24.7311826,23.6661007 L21.7166423,20.6497136 L21.7166423,28.5871398 C21.9292468,28.6925656 22.1301103,28.8332393 22.3074922,29.0101135 C23.1801223,29.8833701 23.1801223,31.2983633 22.3074922,32.1728901 C21.4348622,33.0458292 20.0199321,33.0458292 19.1479367,32.1728901 C18.2753066,31.2983633 18.2753066,29.8833701 19.1479367,29.0101135 C19.363397,28.7944985 19.6134452,28.6312789 19.8796767,28.5220424 L19.8796767,20.5109452 C19.6134452,20.4020263 19.3640316,20.2400769 19.1479367,20.0231917 C18.4869591,19.362057 18.3279818,18.3909957 18.6668795,17.5787083 L15.3610395,14.2698596 L6.6315655,23.004966 C5.89855624,23.7394542 5.89855624,24.929306 6.6315655,25.6631591 L19.3627624,38.4025439 C20.0957716,39.1360795 21.2844525,39.1360795 22.018731,38.4025439 L34.6896371,25.722223 C35.423281,24.9883699 35.423281,23.7975655 34.6896371,23.0640299" id="Fill-1" fill="#FFFFFF"></path>
            </g>
        </g>
    </g>
</svg>