<?xml version="1.0" encoding="UTF-8"?>
<svg width="42px" height="49px" viewBox="0 0 42 49" version="1.1" xmlns="http://www.w3.org/2000/svg" xmlns:xlink="http://www.w3.org/1999/xlink">
    <!-- Generator: Sketch 46.1 (44463) - http://www.bohemiancoding.com/sketch -->
    <title>hexagon-github</title>
    <desc>Created with Sketch.</desc>
    <defs></defs>
    <g id="Page-1" stroke="none" stroke-width="1" fill="none" fill-rule="evenodd">
        <g id="Hexagon---Swag,-goodies" transform="translate(-552.000000, -386.000000)">
            <g id="hexagon-github" transform="translate(552.000000, 386.000000)">
                <polygon id="Polygon" fill="#9CDAF0" points="21 0 42 12.25 42 36.75 21 49 2.48689958e-14 36.75 1.11022302e-14 12.25"></polygon>
                <path d="M7,24.6024717 C7,31.054333 11.0851735,36.5280534 16.7500671,38.4589448 C17.4626056,38.5941192 17.7242002,38.1421673 17.7242002,37.7564727 C17.7242002,37.4082593 17.7109789,36.2579462 17.7048404,35.0377486 C13.7384233,35.9210982 12.901462,33.314818 12.901462,33.314818 C12.2529056,31.6269505 11.3184366,31.1781422 11.3184366,31.1781422 C10.0248652,30.2718203 11.4159444,30.29044 11.4159444,30.29044 C12.8476321,30.3932113 13.6014874,31.7952537 13.6014874,31.7952537 C14.8731019,34.0276881 16.9368192,33.3822843 17.7504069,33.0091641 C17.8783711,32.0656026 18.2478617,31.4209243 18.6556,31.0565094 C15.4888409,30.6872581 12.1598837,29.435141 12.1598837,23.8397878 C12.1598837,22.2455027 12.7168347,20.9428462 13.6288746,19.9202113 C13.4808422,19.5521692 12.9928313,18.0671843 13.7669909,16.0557686 C13.7669909,16.0557686 14.964235,15.6633032 17.6887858,17.5526024 C18.8260615,17.2290541 20.0457347,17.0667964 21.2573807,17.0612347 C22.4690267,17.0667964 23.6896444,17.2290541 24.8290449,17.5526024 C27.5502903,15.6633032 28.7458818,16.0557686 28.7458818,16.0557686 C29.5219302,18.0671843 29.0336831,19.5521692 28.8856508,19.9202113 C29.7998155,20.9428462 30.352989,22.2455027 30.352989,23.8397878 C30.352989,29.4484408 27.0176572,30.6833891 23.8428708,31.0449023 C24.3542553,31.4980632 24.8099211,32.3867327 24.8099211,33.7491174 C24.8099211,35.7027394 24.7933944,37.2752612 24.7933944,37.7564727 C24.7933944,38.1450691 25.050031,38.6004064 25.7727216,38.4570102 C31.4345459,36.5239425 35.5145254,31.0521567 35.5145254,24.6024717 C35.5145254,16.5374638 29.1311909,10 21.2573807,10 C13.3842789,10 7,16.5374638 7,24.6024717 Z" id="Fill-51" fill="#FFFFFE"></path>
            </g>
        </g>
    </g>
</svg>