<?xml version="1.0" encoding="UTF-8"?>
<svg width="42px" height="49px" viewBox="0 0 42 49" version="1.1" xmlns="http://www.w3.org/2000/svg" xmlns:xlink="http://www.w3.org/1999/xlink">
    <!-- Generator: Sketch 46.1 (44463) - http://www.bohemiancoding.com/sketch -->
    <title>hexagon-elasticsearch</title>
    <desc>Created with Sketch.</desc>
    <defs></defs>
    <g id="Page-1" stroke="none" stroke-width="1" fill="none" fill-rule="evenodd">
        <g id="Hexagon---Swag,-goodies" transform="translate(-250.000000, -315.000000)">
            <g id="hexagon-elasticsearch" transform="translate(250.000000, 315.000000)">
                <polygon id="Polygon" fill="#3CBEB1" points="21 0 42 12.25 42 36.75 21 49 2.22044605e-14 36.75 8.43769499e-15 12.25"></polygon>
                <g id="Group-12" transform="translate(6.000000, 9.000000)" fill-rule="nonzero">
                    <path d="M29.7574057,16.0284832 C29.7574057,13.5643195 28.2323905,11.4350696 25.9687583,10.5977279 C26.0646313,10.0768989 26.1124632,9.54830214 26.1116465,9.01865252 C26.1116465,4.44905492 22.418448,0.74084405 17.8673499,0.74084405 C15.2224924,0.74084405 12.7444709,2.00882179 11.1956219,4.18593294 C10.4331713,3.5877827 9.50388473,3.27679954 8.52693074,3.27679954 C6.12029631,3.27679954 4.14266865,5.23853537 4.14266865,7.678883 C4.14266865,8.20524147 4.23800348,8.73159994 4.40472541,9.21009723 C2.11737357,9.99957768 0.56852459,12.2006194 0.56852459,14.6408525 C0.56852459,17.1051308 2.09353986,19.2583113 4.3808917,20.095653 C4.2856709,20.5980808 4.23800348,21.1244393 4.23800348,21.6746139 C4.23800348,26.2202809 7.93120205,29.9286062 12.4584664,29.9286062 C15.1271576,29.9286062 17.5814594,28.6366979 19.1301944,26.4835173 C19.892645,27.0815531 20.8457653,27.4165813 21.8227193,27.4165813 C24.2293537,27.4165813 26.2069814,25.454731 26.2069814,23.0144979 C26.2069814,22.4881394 26.1116465,21.9617809 25.9449246,21.4832836 C28.184609,20.6698726 29.7572917,18.4688309 29.7572917,16.0284832 L29.7574057,16.0284832 Z" id="Shape" fill="#FFFFFF"></path>
                    <path d="M11.9819063,13.2771524 L18.4869123,16.2677891 L25.0633054,10.478075 C25.1591798,9.99758638 25.2070465,9.50868857 25.2061936,9.01865252 C25.2061936,4.9515973 21.9180541,1.64997745 17.8673499,1.64997745 C15.4368818,1.64997745 13.1733636,2.84616343 11.8151843,4.85576044 L10.7190618,10.5498667 L11.9819063,13.2772669 L11.9819063,13.2771524 Z" id="Shape" fill="#3CBEB1"></path>
                    <path d="M5.09578893,21.6747284 C5.09578893,25.7417836 8.40776219,29.067334 12.4584664,29.067334 C14.9127682,29.067334 17.1764004,27.8472174 18.5582994,25.8375059 L19.6305882,20.1435141 L18.1770741,17.3682527 L11.6483484,14.3777306 L5.23867715,20.1913753 C5.14345635,20.6698726 5.09578893,21.1723005 5.09578893,21.6747284 Z" id="Shape" fill="#3CBEB1"></path>
                    <path d="M5.19112377,8.87506898 L9.64688699,9.92778592 L10.6475607,4.83182985 C10.0281123,4.35333256 9.28938135,4.11414117 8.50309703,4.11414117 C6.57302275,4.11414117 4.97662039,5.69310208 4.97662039,7.65495241 C4.97662039,8.06165794 5.04812152,8.49229405 5.19100973,8.87506898 L5.19112377,8.87506898 Z" id="Shape" fill="#3CBEB1"></path>
                    <path d="M4.80978443,9.95160201 C2.80832305,10.5976134 1.42631004,12.5355332 1.42631004,14.6408525 C1.42631004,16.6984252 2.68915451,18.5406226 4.59539508,19.2583113 L10.862064,13.564205 L9.71827408,11.1001558 L4.80978443,9.95171651 L4.80978443,9.95160201 Z" id="Shape" fill="#3CBEB1"></path>
                    <path d="M19.7020893,25.8135753 C20.3215377,26.2921871 21.0602686,26.5553091 21.8227193,26.5553091 C23.7527935,26.5553091 25.3491959,24.9763482 25.3491959,23.0144979 C25.3491959,22.5838618 25.2776948,22.1770417 25.1348066,21.7942668 L20.6790433,20.7416644 L19.7020893,25.8135753 L19.7020893,25.8135753 Z" id="Shape" fill="#3CBEB1"></path>
                    <path d="M20.6075422,19.5692945 L25.5160319,20.7177338 C27.5174932,20.0479063 28.8995063,18.1339171 28.8995063,16.0284832 C28.8995063,13.9709105 27.6366618,12.1527582 25.7304212,11.411139 L19.2970303,17.0572696 L20.6075422,19.569409 L20.6075422,19.5692945 Z" id="Shape" fill="#3CBEB1"></path>
                </g>
            </g>
        </g>
    </g>
</svg>