<?xml version="1.0" encoding="UTF-8"?>
<svg width="42px" height="49px" viewBox="0 0 42 49" version="1.1" xmlns="http://www.w3.org/2000/svg" xmlns:xlink="http://www.w3.org/1999/xlink">
    <!-- Generator: Sketch 46.1 (44463) - http://www.bohemiancoding.com/sketch -->
    <title>hexagon-fsbuckets</title>
    <desc>Created with Sketch.</desc>
    <defs></defs>
    <g id="Page-1" stroke="none" stroke-width="1" fill="none" fill-rule="evenodd">
        <g id="Hexagon---Swag,-goodies" transform="translate(-251.000000, -461.000000)">
            <g id="hexagon-fsbuckets" transform="translate(251.000000, 461.000000)">
                <polygon id="Polygon" fill="#2589E1" points="21 0 42 12.25 42 36.75 21 49 2.48689958e-14 36.75 1.11022302e-14 12.25"></polygon>
                <g id="Group-14" transform="translate(9.000000, 10.000000)">
                    <polygon id="Rectangle-21" fill="#FFFFFF" points="0.140013727 0.601823708 19.2771266 0.601823708 23.674674 5.56670901 23.674674 27.4787234 0.140013727 27.4787234"></polygon>
                    <rect id="Rectangle-20" fill="#2589E1" x="1.99313658" y="13.3221884" width="19.8284146" height="11.899696"></rect>
                    <rect id="Rectangle-20" fill="#2589E1" x="6.07000686" y="2.85866261" width="11.8599863" height="8.00151976"></rect>
                    <rect id="Rectangle-20" fill="#FFFFFF" x="13.8531229" y="4.29483283" width="2.594372" height="4.92401216"></rect>
                    <path d="M4.1866807,18.3980243 L3.92038435,18.3980243 L3.92038435,16.243769 L5.21382376,16.243769 L5.21382376,16.4591945 L4.1866807,16.4591945 L4.1866807,17.1977964 L5.03629286,17.1977964 L5.03629286,17.4132219 L4.1866807,17.4132219 L4.1866807,18.3980243 Z M5.88907521,18.3980243 L5.62277886,18.3980243 L5.62277886,16.8592705 L5.88907521,16.8592705 L5.88907521,18.3980243 Z M5.91760696,16.3791793 L5.91760696,16.4037994 C5.91760696,16.4427813 5.91602188,16.4674012 5.91285167,16.4776596 C5.90968146,16.487918 5.89964261,16.5002279 5.88273482,16.5145897 C5.86582703,16.5310031 5.82672836,16.5392097 5.76543762,16.5392097 L5.74958665,16.5392097 C5.70309023,16.5392097 5.67455876,16.5381839 5.66399139,16.5361322 C5.65342402,16.5340805 5.64074337,16.5268998 5.62594906,16.5145897 C5.61115474,16.5002279 5.60217261,16.487918 5.5990024,16.4776596 C5.59583219,16.4674012 5.59424711,16.4427813 5.59424711,16.4037994 L5.59424711,16.3791793 C5.59424711,16.3401974 5.59583219,16.3155776 5.5990024,16.3053191 C5.60217261,16.2950607 5.61221146,16.2827508 5.62911925,16.2683891 C5.64180009,16.256079 5.65342402,16.2488982 5.66399139,16.2468465 C5.67455876,16.2447948 5.70309023,16.243769 5.74958665,16.243769 L5.76226743,16.243769 C5.82567164,16.243769 5.86688375,16.2519756 5.88590502,16.2683891 C5.90069933,16.2827508 5.90968146,16.2950607 5.91285167,16.3053191 C5.91602188,16.3155776 5.91760696,16.3401974 5.91760696,16.3791793 Z M6.29803032,16.1206687 L6.56432666,16.1206687 L6.56432666,18.0133359 C6.56432666,18.0605246 6.56644011,18.0897606 6.57066705,18.1010448 C6.574894,18.1123291 6.58968809,18.1261777 6.61504978,18.1425912 C6.64252494,18.163108 6.65890411,18.1790083 6.6641878,18.1902926 C6.66947148,18.2015768 6.67211328,18.2308128 6.67211328,18.2780015 L6.67211328,18.3980243 L6.57700744,18.3980243 C6.53685144,18.3980243 6.51043342,18.3959727 6.49775258,18.3918693 C6.48507174,18.3877659 6.4628806,18.375456 6.43117849,18.3549392 L6.36143421,18.3087766 C6.3297321,18.2882598 6.31123949,18.2718466 6.3059558,18.2595365 C6.30067212,18.2472264 6.29803032,18.2174774 6.29803032,18.1702888 L6.29803032,16.1206687 Z M8.26038079,18.1210486 L8.45059246,18.274924 L8.37450779,18.3364742 C8.33646527,18.3672494 8.3105756,18.3852013 8.29683802,18.3903305 C8.28310045,18.3954598 8.25721078,18.3980243 8.21916826,18.3980243 L7.37272629,18.3980243 C7.32200293,18.3980243 7.27128032,18.3775078 7.22055695,18.3364742 L7.14447228,18.274924 C7.09374891,18.2338904 7.06838761,18.1825991 7.06838761,18.1210486 L7.06838761,17.1362462 C7.06838761,17.0746957 7.09374891,17.0234045 7.14447228,16.9823708 L7.22055695,16.9208207 C7.27128032,16.879787 7.32200293,16.8592705 7.37272629,16.8592705 L8.11138164,16.8592705 C8.15365111,16.8592705 8.20437372,16.879787 8.26355098,16.9208207 L8.34280585,16.9823708 C8.39352921,17.0193011 8.41889052,17.0705924 8.41889052,17.1362462 L8.41889052,17.7671353 L7.33468396,17.7671353 L7.33468396,18.056421 C7.33468396,18.0871962 7.33626904,18.1071998 7.33943925,18.1164324 C7.34260946,18.1256649 7.35370503,18.1374619 7.37272629,18.1518237 C7.39174756,18.1661855 7.40654165,18.174905 7.41710902,18.1779825 C7.42767639,18.18106 7.45198097,18.1825988 7.49002349,18.1825988 L8.10504125,18.1825988 C8.14308378,18.1825988 8.16897344,18.1800342 8.18271102,18.174905 C8.1964486,18.1697758 8.22233826,18.1518239 8.26038079,18.1210486 Z M8.15259417,17.5670973 L8.15259417,17.2008739 C8.15259417,17.1700986 8.15100909,17.150095 8.14783888,17.1408625 C8.14466867,17.1316299 8.1335731,17.1198329 8.11455183,17.1054711 C8.09553057,17.0911094 8.08073648,17.0823898 8.07016911,17.0793123 C8.05960174,17.0762348 8.03529716,17.074696 7.99725463,17.074696 L7.49002349,17.074696 C7.45198097,17.074696 7.42767639,17.0762348 7.41710902,17.0793123 C7.40654165,17.0823898 7.39174756,17.0911094 7.37272629,17.1054711 C7.35370503,17.1198329 7.34260946,17.1316299 7.33943925,17.1408625 C7.33626904,17.150095 7.33468396,17.1700986 7.33468396,17.2008739 L7.33468396,17.5670973 L8.15259417,17.5670973 Z M10.7331326,17.4132219 L9.97545608,17.4132219 C9.92473271,17.4132219 9.8740101,17.3927054 9.82328673,17.3516717 L9.73769148,17.2808891 C9.69330853,17.2460105 9.67111739,17.2049774 9.67111739,17.1577888 L9.67111739,16.5207447 C9.67111739,16.4591942 9.6964787,16.4079029 9.74720206,16.3668693 L9.82328673,16.3053191 C9.8740101,16.2642855 9.92473271,16.243769 9.97545608,16.243769 L10.8187278,16.243769 C10.8694512,16.243769 10.9201738,16.2642855 10.9708972,16.3053191 L11.0469819,16.3668693 C11.0977052,16.4079029 11.1230665,16.4591942 11.1230665,16.5207447 L11.1230665,16.643845 L10.8567702,16.643845 L10.8567702,16.5853723 C10.8567702,16.5545971 10.8551851,16.5345935 10.8520149,16.5253609 C10.8488447,16.5161284 10.8377491,16.5043314 10.8187278,16.4899696 C10.7997066,16.4756078 10.7849125,16.4668883 10.7743451,16.4638108 C10.7637778,16.4607333 10.7394732,16.4591945 10.7014306,16.4591945 L10.0927533,16.4591945 C10.0547108,16.4591945 10.0304062,16.4607333 10.0198388,16.4638108 C10.0092714,16.4668883 9.99447734,16.4756078 9.97545608,16.4899696 C9.95643481,16.5043314 9.94533924,16.5161284 9.94216903,16.5253609 C9.93899882,16.5345935 9.93741374,16.5545971 9.93741374,16.5853723 L9.93741374,17.0716185 C9.93741374,17.1023938 9.93899882,17.1223974 9.94216903,17.1316299 C9.94533924,17.1408625 9.95643481,17.1526595 9.97545608,17.1670213 C9.99447734,17.1813831 10.0092714,17.1901026 10.0198388,17.1931801 C10.0304062,17.1962576 10.0547108,17.1977964 10.0927533,17.1977964 L10.8504298,17.1977964 C10.9011532,17.1977964 10.9518758,17.2183129 11.0025991,17.2593465 L11.0786838,17.3208967 C11.1294072,17.3619303 11.1547685,17.4132216 11.1547685,17.474772 L11.1547685,18.1210486 C11.1547685,18.1825991 11.1294072,18.2338904 11.0786838,18.274924 L11.0025991,18.3364742 C10.9518758,18.3775078 10.9011532,18.3980243 10.8504298,18.3980243 L9.94375413,18.3980243 C9.89303076,18.3980243 9.84230816,18.3775078 9.79158479,18.3364742 L9.71550012,18.274924 C9.66477675,18.2338904 9.63941545,18.1825991 9.63941545,18.1210486 L9.63941545,17.9979483 L9.90571179,17.9979483 L9.90571179,18.056421 C9.90571179,18.0871962 9.90729688,18.1071998 9.91046709,18.1164324 C9.9136373,18.1256649 9.92473287,18.1374619 9.94375413,18.1518237 C9.96277539,18.1661855 9.97756949,18.174905 9.98813685,18.1779825 C9.99870422,18.18106 10.0230088,18.1825988 10.0610513,18.1825988 L10.7331326,18.1825988 C10.7711751,18.1825988 10.7954797,18.18106 10.8060471,18.1779825 C10.8166144,18.174905 10.8314085,18.1661855 10.8504298,18.1518237 C10.8694511,18.1374619 10.8805466,18.1256649 10.8837168,18.1164324 C10.886887,18.1071998 10.8884721,18.0871962 10.8884721,18.056421 L10.8884721,17.5393997 C10.8884721,17.5086245 10.886887,17.4886209 10.8837168,17.4793883 C10.8805466,17.4701557 10.8694511,17.4583587 10.8504298,17.443997 C10.8314085,17.4296352 10.8166144,17.4209157 10.8060471,17.4178381 C10.7954797,17.4147606 10.7711751,17.4132219 10.7331326,17.4132219 Z M12.6035474,19.1981763 L11.6905314,19.1981763 L11.6905314,19.1181611 C11.6905314,19.0709724 11.6931732,19.0417364 11.6984569,19.0304521 C11.7037405,19.0191679 11.7201197,19.0032676 11.7475949,18.9827508 L12.5242926,18.9827508 C12.5623351,18.9827508 12.5866397,18.981212 12.597207,18.9781345 C12.6077744,18.975057 12.6225685,18.9663375 12.6415898,18.9519757 C12.660611,18.9376139 12.6717066,18.9258169 12.6748768,18.9165843 C12.678047,18.9073518 12.6796321,18.8873482 12.6796321,18.8565729 L12.6796321,18.250304 L12.6669513,18.250304 C12.6627244,18.2687691 12.6373631,18.2974922 12.5908666,18.3364742 C12.5401433,18.3775078 12.4894207,18.3980243 12.4386973,18.3980243 L11.8870834,18.3980243 C11.8363601,18.3980243 11.7856375,18.3775078 11.7349141,18.3364742 L11.6588294,18.274924 C11.6081061,18.2338904 11.5827447,18.1825991 11.5827447,18.1210486 L11.5827447,16.8592705 L11.8490411,16.8592705 L11.8490411,18.056421 C11.8490411,18.0871962 11.8506262,18.1071998 11.8537964,18.1164324 C11.8569666,18.1256649 11.8680622,18.1374619 11.8870834,18.1518237 C11.9061047,18.1661855 11.9208988,18.174905 11.9314662,18.1779825 C11.9420335,18.18106 11.9663381,18.1825988 12.0043806,18.1825988 L12.4101655,18.1825988 C12.4482081,18.1825988 12.4740977,18.1805471 12.4878353,18.1764438 C12.5015729,18.1723404 12.5274626,18.1590047 12.5655051,18.1364362 C12.6035476,18.1138677 12.6257387,18.0974545 12.6320792,18.087196 C12.6384196,18.0769376 12.6415898,18.0564211 12.6415898,18.0256459 L12.6415898,16.8592705 L12.9078861,16.8592705 L12.9078861,18.9212006 C12.9078861,18.9827511 12.8825248,19.0340423 12.8318014,19.075076 L12.7557168,19.1366261 C12.7049934,19.1776598 12.6542708,19.1981763 12.6035474,19.1981763 Z M14.2964313,17.5055471 C14.3471547,17.5055471 14.3978773,17.5260636 14.4486007,17.5670973 L14.5246854,17.6286474 C14.5754087,17.6696811 14.60077,17.7209723 14.60077,17.7825228 L14.60077,18.1210486 C14.60077,18.1825991 14.5754087,18.2338904 14.5246854,18.274924 L14.4486007,18.3364742 C14.3978773,18.3775078 14.3471547,18.3980243 14.2964313,18.3980243 L13.5926481,18.3980243 C13.5419248,18.3980243 13.4912022,18.3775078 13.4404788,18.3364742 L13.3643941,18.274924 C13.3136708,18.2338904 13.2883095,18.1825991 13.2883095,18.1210486 L13.2883095,17.9979483 L13.5546058,17.9979483 L13.5546058,18.056421 C13.5546058,18.0871962 13.5561909,18.1071998 13.5593611,18.1164324 C13.5625313,18.1256649 13.5736269,18.1374619 13.5926481,18.1518237 C13.6116694,18.1661855 13.6264635,18.174905 13.6370309,18.1779825 C13.6475982,18.18106 13.6719028,18.1825988 13.7099453,18.1825988 L14.1791341,18.1825988 C14.2171767,18.1825988 14.2414812,18.18106 14.2520486,18.1779825 C14.262616,18.174905 14.2774101,18.1661855 14.2964313,18.1518237 C14.3154526,18.1374619 14.3265482,18.1256649 14.3297184,18.1164324 C14.3328886,18.1071998 14.3344737,18.0871962 14.3344737,18.056421 L14.3344737,17.8071429 C14.3323602,17.7907294 14.3196796,17.7722645 14.2964313,17.7517477 C14.2774101,17.7373859 14.262616,17.7286664 14.2520486,17.7255889 C14.2414812,17.7225114 14.2171767,17.7209726 14.1791341,17.7209726 L13.6243501,17.7209726 C13.5736267,17.7209726 13.5229041,17.7004561 13.4721807,17.6594225 L13.3960961,17.5978723 C13.3453727,17.5568387 13.3200114,17.5055474 13.3200114,17.443997 L13.3200114,17.1362462 C13.3200114,17.0746957 13.3453727,17.0234045 13.3960961,16.9823708 L13.4721807,16.9208207 C13.5229041,16.879787 13.5736267,16.8592705 13.6243501,16.8592705 L14.2964313,16.8592705 C14.3471547,16.8592705 14.3978773,16.879787 14.4486007,16.9208207 L14.5246854,16.9823708 C14.5754087,17.0234045 14.60077,17.0746957 14.60077,17.1362462 L14.60077,17.2593465 L14.3344737,17.2593465 L14.3344737,17.2008739 C14.3344737,17.1700986 14.3328886,17.150095 14.3297184,17.1408625 C14.3265482,17.1316299 14.3154526,17.1198329 14.2964313,17.1054711 C14.2774101,17.0911094 14.262616,17.0823898 14.2520486,17.0793123 C14.2414812,17.0762348 14.2171767,17.074696 14.1791341,17.074696 L13.7416473,17.074696 C13.7036048,17.074696 13.6793002,17.0762348 13.6687328,17.0793123 C13.6581654,17.0823898 13.6433713,17.0911094 13.6243501,17.1054711 C13.6053288,17.1198329 13.5942333,17.1316299 13.591063,17.1408625 C13.5878928,17.150095 13.5863077,17.1700986 13.5863077,17.2008739 L13.5863077,17.3793693 C13.5863077,17.4101445 13.5878928,17.4301481 13.591063,17.4393807 C13.5942333,17.4486133 13.6053288,17.4604103 13.6243501,17.474772 C13.6433713,17.4891338 13.6581654,17.4978533 13.6687328,17.5009309 C13.6793002,17.5040084 13.7036048,17.5055471 13.7416473,17.5055471 L14.2964313,17.5055471 Z M15.3457658,16.4284195 L15.3457658,16.8592705 L15.7515507,16.8592705 C15.7790258,16.8797873 15.795405,16.8956876 15.8006887,16.9069719 C15.8059724,16.9182561 15.8086142,16.9474922 15.8086142,16.9946809 L15.8086142,17.074696 L15.3457658,17.074696 L15.3457658,18.056421 C15.3457658,18.0871962 15.3473508,18.1071998 15.3505211,18.1164324 C15.3536913,18.1256649 15.3647868,18.1374619 15.3838081,18.1518237 C15.4028294,18.1661855 15.4176235,18.174905 15.4281908,18.1779825 C15.4387582,18.18106 15.4630628,18.1825988 15.5011053,18.1825988 L15.789593,18.1825988 C15.8170682,18.2031156 15.8334473,18.2190159 15.838731,18.2303002 C15.8440147,18.2415844 15.8466565,18.2708204 15.8466565,18.3180091 L15.8466565,18.3980243 L15.3838081,18.3980243 C15.3330847,18.3980243 15.2823621,18.3775078 15.2316388,18.3364742 L15.1555541,18.274924 C15.1048307,18.2338904 15.0794694,18.1825991 15.0794694,18.1210486 L15.0794694,17.074696 L14.9273001,17.074696 C14.8998249,17.0541792 14.8834457,17.0382789 14.8781621,17.0269947 C14.8728784,17.0157104 14.8702366,16.9864744 14.8702366,16.9392857 L14.8702366,16.8592705 L15.0794694,16.8592705 L15.0794694,16.4284195 L15.3457658,16.4284195 Z M17.3715201,18.1210486 L17.5617318,18.274924 L17.4856471,18.3364742 C17.4476046,18.3672494 17.4217149,18.3852013 17.4079774,18.3903305 C17.3942398,18.3954598 17.3683501,18.3980243 17.3303076,18.3980243 L16.4838656,18.3980243 C16.4331423,18.3980243 16.3824197,18.3775078 16.3316963,18.3364742 L16.2556116,18.274924 C16.2048883,18.2338904 16.1795269,18.1825991 16.1795269,18.1210486 L16.1795269,17.1362462 C16.1795269,17.0746957 16.2048883,17.0234045 16.2556116,16.9823708 L16.3316963,16.9208207 C16.3824197,16.879787 16.4331423,16.8592705 16.4838656,16.8592705 L17.222521,16.8592705 C17.2647905,16.8592705 17.3155131,16.879787 17.3746903,16.9208207 L17.4539452,16.9823708 C17.5046686,17.0193011 17.5300299,17.0705924 17.5300299,17.1362462 L17.5300299,17.7671353 L16.4458233,17.7671353 L16.4458233,18.056421 C16.4458233,18.0871962 16.4474084,18.1071998 16.4505786,18.1164324 C16.4537488,18.1256649 16.4648444,18.1374619 16.4838656,18.1518237 C16.5028869,18.1661855 16.517681,18.174905 16.5282484,18.1779825 C16.5388157,18.18106 16.5631203,18.1825988 16.6011628,18.1825988 L17.2161806,18.1825988 C17.2542231,18.1825988 17.2801128,18.1800342 17.2938504,18.174905 C17.3075879,18.1697758 17.3334776,18.1518239 17.3715201,18.1210486 Z M17.2637335,17.5670973 L17.2637335,17.2008739 C17.2637335,17.1700986 17.2621484,17.150095 17.2589782,17.1408625 C17.255808,17.1316299 17.2447124,17.1198329 17.2256912,17.1054711 C17.2066699,17.0911094 17.1918758,17.0823898 17.1813084,17.0793123 C17.1707411,17.0762348 17.1464365,17.074696 17.108394,17.074696 L16.6011628,17.074696 C16.5631203,17.074696 16.5388157,17.0762348 16.5282484,17.0793123 C16.517681,17.0823898 16.5028869,17.0911094 16.4838656,17.1054711 C16.4648444,17.1198329 16.4537488,17.1316299 16.4505786,17.1408625 C16.4474084,17.150095 16.4458233,17.1700986 16.4458233,17.2008739 L16.4458233,17.5670973 L17.2637335,17.5670973 Z M19.1436589,17.0069909 L19.1563397,17.0069909 C19.1584532,16.9885257 19.1785309,16.9659576 19.2165734,16.9392857 L19.2641263,16.9054331 C19.3021688,16.8828646 19.3280585,16.8695289 19.3417961,16.8654255 C19.3555337,16.8613222 19.3814233,16.8592705 19.4194658,16.8592705 L19.9235268,16.8592705 C19.9742502,16.8592705 20.0249728,16.879787 20.0756961,16.9208207 L20.1517808,16.9823708 C20.2025042,17.0234045 20.2278655,17.0746957 20.2278655,17.1362462 L20.2278655,18.3980243 L19.9615691,18.3980243 L19.9615691,17.2008739 C19.9615691,17.1700986 19.959984,17.150095 19.9568138,17.1408625 C19.9536436,17.1316299 19.9425481,17.1198329 19.9235268,17.1054711 C19.9045055,17.0911094 19.8897114,17.0823898 19.8791441,17.0793123 C19.8685767,17.0762348 19.8442721,17.074696 19.8062296,17.074696 L19.4575082,17.074696 C19.4194657,17.074696 19.393576,17.0767477 19.3798384,17.0808511 C19.3661008,17.0849544 19.3402112,17.0982902 19.3021686,17.1208587 C19.2535588,17.1495822 19.2281975,17.1762537 19.226084,17.2008739 L19.226084,18.3980243 L18.9597876,18.3980243 L18.9597876,17.2008739 C18.9597876,17.1700986 18.9582025,17.150095 18.9550323,17.1408625 C18.9518621,17.1316299 18.9407666,17.1198329 18.9217453,17.1054711 C18.902724,17.0911094 18.8879299,17.0823898 18.8773626,17.0793123 C18.8667952,17.0762348 18.8424906,17.074696 18.8044481,17.074696 L18.4842584,17.074696 C18.4462159,17.074696 18.4203262,17.0767477 18.4065887,17.0808511 C18.3928511,17.0849544 18.3669614,17.0982902 18.3289189,17.1208587 C18.2908764,17.1434272 18.2686852,17.1598404 18.2623448,17.1700988 C18.2560044,17.1803572 18.2528342,17.2008737 18.2528342,17.2316489 L18.2528342,18.3980243 L17.9865379,18.3980243 L17.9865379,17.2008739 C17.9865379,17.1700986 17.9849528,17.150095 17.9817826,17.1408625 C17.9786124,17.1316299 17.9675168,17.1198329 17.9484955,17.1054711 C17.9294743,17.0911094 17.9183787,17.0793124 17.9152085,17.0700798 C17.9120383,17.0608472 17.9104532,17.0408436 17.9104532,17.0100684 L17.9104532,16.8592705 L18.02141,16.8592705 C18.0594525,16.8592705 18.0853422,16.8618351 18.0990798,16.8669643 C18.1128174,16.8720935 18.1323667,16.8849163 18.1577284,16.9054331 C18.191544,16.932105 18.2084515,16.9577506 18.2084515,16.9823708 L18.2211323,16.9823708 C18.2211323,16.9577506 18.2443801,16.932105 18.2908766,16.9054331 C18.3289191,16.8828646 18.3548088,16.8695289 18.3685463,16.8654255 C18.3822839,16.8613222 18.4081736,16.8592705 18.4462161,16.8592705 L18.9217453,16.8592705 C18.9724687,16.8592705 19.0231913,16.879787 19.0739146,16.9208207 C19.1182976,16.9598026 19.1415454,16.9885257 19.1436589,17.0069909 Z" id="File-System" stroke="#FFFFFF" stroke-width="0.35" fill="#FFFFFF"></path>
                    <path d="M5.36355815,21.1689535 L5.27934111,21.1056448 C5.24871658,21.082197 5.22702453,21.0687147 5.21426431,21.0651976 C5.20150409,21.0616804 5.17598403,21.0599218 5.13770337,21.0599218 L4.24194032,21.0599218 L4.24194032,21.9392097 L5.24106064,21.9392097 C5.28699744,21.9392097 5.3163455,21.9374512 5.32910573,21.933934 C5.34186595,21.9304168 5.35972999,21.9204517 5.38269839,21.9040382 C5.40566678,21.8876248 5.41906482,21.8741425 5.42289288,21.863591 C5.42672095,21.8530395 5.42863495,21.8301782 5.42863495,21.7950065 L5.42863495,21.295571 C5.42863495,21.2580545 5.42608295,21.2334347 5.42097886,21.2217108 C5.41587477,21.2099869 5.39673473,21.1924013 5.36355815,21.1689535 Z M4.24194032,19.9696049 L4.24194032,20.8137212 L5.07262656,20.8137212 C5.11856336,20.8137212 5.14854943,20.8119627 5.16258567,20.8084455 C5.17662192,20.8049283 5.19639996,20.7937908 5.2219204,20.7750326 L5.32144963,20.7011724 C5.35207416,20.6777246 5.3699382,20.660139 5.37504229,20.6484151 C5.38014638,20.6366912 5.38269839,20.610899 5.38269839,20.5710378 L5.38269839,20.1138081 C5.38269839,20.0786364 5.38078438,20.0557751 5.37695632,20.0452236 C5.37312825,20.0346721 5.35973022,20.0211898 5.33676182,20.0047764 C5.31379342,19.9883629 5.29592938,19.9783978 5.28316916,19.9748806 C5.27040894,19.9713634 5.24106087,19.9696049 5.19512407,19.9696049 L4.24194032,19.9696049 Z M5.40566667,20.8981329 L5.40566667,20.9157186 C5.4362912,20.9157186 5.47201928,20.9309595 5.51285199,20.9614416 L5.69659826,21.0986105 C5.71956666,21.1173687 5.73424069,21.1343681 5.7406208,21.1496092 C5.74700091,21.1648503 5.75019092,21.1935734 5.75019092,21.2357794 L5.75019092,21.8688667 C5.75019092,21.9392101 5.71956685,21.9978287 5.65831779,22.0447243 C5.63790143,22.0587929 5.60727736,22.0822404 5.56644465,22.1150673 C5.50519559,22.1619629 5.44394745,22.1854103 5.38269839,22.1854103 L3.92038435,22.1854103 L3.92038435,19.7234043 L5.33676182,19.7234043 C5.39801088,19.7234043 5.45925902,19.7468517 5.52050809,19.7937473 L5.61238122,19.8640903 C5.67363028,19.9109859 5.70425435,19.9696045 5.70425435,20.0399479 L5.70425435,20.6413808 C5.70425435,20.6906212 5.6838383,20.7304818 5.6430056,20.760964 L5.51285199,20.8524099 C5.47201928,20.882892 5.4362912,20.8981329 5.40566667,20.8981329 Z M8.13506433,19.7234043 L8.4566203,19.7234043 L8.4566203,21.8688667 C8.4566203,21.9392101 8.42599623,21.9978287 8.36474717,22.0447243 L8.27287403,22.1150673 C8.21162497,22.1619629 8.15037683,22.1854103 8.08912777,22.1854103 L6.78759171,22.1854103 C6.72634265,22.1854103 6.66509451,22.1619629 6.60384545,22.1150673 L6.51197231,22.0447243 C6.45072325,21.9978287 6.42009918,21.9392101 6.42009918,21.8688667 L6.42009918,19.7234043 L6.74165515,19.7234043 L6.74165515,21.7950065 C6.74165515,21.8301782 6.74356915,21.8530395 6.74739722,21.863591 C6.75122528,21.8741425 6.76462332,21.8876248 6.78759171,21.9040382 C6.81056011,21.9204517 6.82842415,21.9304168 6.84118437,21.933934 C6.8539446,21.9374512 6.88329266,21.9392097 6.92922946,21.9392097 L7.94749002,21.9392097 C7.99342682,21.9392097 8.02277488,21.9374512 8.0355351,21.933934 C8.04829533,21.9304168 8.06615937,21.9204517 8.08912777,21.9040382 C8.11209616,21.8876248 8.1254942,21.8741425 8.12932226,21.863591 C8.13315033,21.8530395 8.13506433,21.8301782 8.13506433,21.7950065 L8.13506433,19.7234043 Z M11.189846,20.180634 L10.86829,20.180634 L10.86829,20.1138081 C10.86829,20.0786364 10.866376,20.0557751 10.862548,20.0452236 C10.8587199,20.0346721 10.8453219,20.0211898 10.8223535,20.0047764 C10.7993851,19.9883629 10.781521,19.9783978 10.7687608,19.9748806 C10.7560006,19.9713634 10.7266525,19.9696049 10.6807157,19.9696049 L9.73136002,19.9696049 C9.68542322,19.9696049 9.65607516,19.9713634 9.64331493,19.9748806 C9.63055471,19.9783978 9.61269067,19.9883629 9.58972227,20.0047764 C9.56675388,20.0211898 9.55335584,20.0346721 9.54952778,20.0452236 C9.54569971,20.0557751 9.54378571,20.0786364 9.54378571,20.1138081 L9.54378571,21.7950065 C9.54378571,21.8301782 9.54569971,21.8530395 9.54952778,21.863591 C9.55335584,21.8741425 9.56675388,21.8876248 9.58972227,21.9040382 C9.61269067,21.9204517 9.63055471,21.9304168 9.64331493,21.933934 C9.65607516,21.9374512 9.68542322,21.9392097 9.73136002,21.9392097 L10.6807157,21.9392097 C10.7266525,21.9392097 10.7560006,21.9374512 10.7687608,21.933934 C10.781521,21.9304168 10.7993851,21.9204517 10.8223535,21.9040382 C10.8453219,21.8876248 10.8587199,21.8741425 10.862548,21.863591 C10.866376,21.8530395 10.86829,21.8301782 10.86829,21.7950065 L10.86829,21.7281806 L11.189846,21.7281806 L11.189846,21.8688667 C11.189846,21.9392101 11.1592219,21.9978287 11.0979729,22.0447243 L11.0060997,22.1150673 C10.9448507,22.1619629 10.8836025,22.1854103 10.8223535,22.1854103 L9.58972227,22.1854103 C9.52847321,22.1854103 9.46722507,22.1619629 9.40597601,22.1150673 L9.31410287,22.0447243 C9.25285381,21.9978287 9.22222974,21.9392101 9.22222974,21.8688667 L9.22222974,20.0399479 C9.22222974,19.9696045 9.25285381,19.9109859 9.31410287,19.8640903 L9.40597601,19.7937473 C9.46722507,19.7468517 9.52847321,19.7234043 9.58972227,19.7234043 L10.8223535,19.7234043 C10.8836025,19.7234043 10.9448507,19.7468517 11.0060997,19.7937473 L11.0979729,19.8640903 C11.1592219,19.9109859 11.189846,19.9696045 11.189846,20.0399479 L11.189846,20.180634 Z M11.760225,19.7234043 L12.081781,19.7234043 L12.081781,20.8137212 L12.4952101,20.8137212 L13.0732452,19.9590534 C13.1089739,19.9027787 13.15491,19.8570562 13.2110549,19.8218845 L13.2837878,19.7761615 C13.3246205,19.750369 13.3533306,19.7351281 13.3699189,19.7304386 C13.3865072,19.725749 13.4177693,19.7234043 13.4637061,19.7234043 L13.5479231,19.7234043 L13.5479231,19.8605732 C13.5479231,19.9145031 13.5440951,19.9485019 13.5364389,19.9625706 C13.5287828,19.9766392 13.5019868,19.9953972 13.45605,20.018845 L13.4139414,20.0399479 C13.3731087,20.0610509 13.3463127,20.0774641 13.3335524,20.089188 C13.3207922,20.1009119 13.3003762,20.1267041 13.2723037,20.1665653 L12.812938,20.8488927 C12.7746574,20.9075122 12.7427573,20.9368215 12.7172368,20.9368215 L12.7172368,20.9508901 C12.7427573,20.9508901 12.7746574,20.9790271 12.812938,21.0353018 L13.2991,21.7422492 C13.3246205,21.7821105 13.3443985,21.8079027 13.3584348,21.8196266 C13.372471,21.8313505 13.3999051,21.8477637 13.4407378,21.8688667 L13.4828463,21.8899696 C13.5287831,21.9134174 13.5555791,21.9321754 13.5632353,21.946244 C13.5708914,21.9603127 13.5747194,21.9943115 13.5747194,22.0482414 L13.5747194,22.1854103 L13.4675341,22.1854103 C13.4215973,22.1854103 13.3903352,22.1830656 13.3737469,22.178376 C13.3571587,22.1736865 13.3284486,22.1584456 13.2876159,22.1326531 L13.214883,22.0869301 C13.1766023,22.0611375 13.1510823,22.0417934 13.138322,22.0288971 C13.1255618,22.0160008 13.1051458,21.9884501 13.0770733,21.946244 L12.4798979,21.0599218 L12.081781,21.0599218 L12.081781,22.1854103 L11.760225,22.1854103 L11.760225,19.7234043 Z M15.8447514,21.9392097 L15.8447514,22.1854103 L14.1297863,22.1854103 L14.1297863,19.7234043 L15.8447514,19.7234043 L15.8447514,19.9696049 L14.4513422,19.9696049 L14.4513422,20.8137212 L15.6303808,20.8137212 L15.6303808,21.0599218 L14.4513422,21.0599218 L14.4513422,21.9392097 L15.8447514,21.9392097 Z M16.1088867,19.7234043 L18.1300956,19.7234043 L18.1300956,19.9696049 L17.2802691,19.9696049 L17.2802691,22.1854103 L16.9587132,22.1854103 L16.9587132,19.9696049 L16.1088867,19.9696049 L16.1088867,19.7234043 Z M19.7187352,21.0599218 L18.8038319,21.0599218 C18.7425829,21.0599218 18.6813347,21.0364744 18.6200856,20.9895788 L18.5167284,20.9086843 C18.4631354,20.8688231 18.4363394,20.8219282 18.4363394,20.7679983 L18.4363394,20.0399479 C18.4363394,19.9696045 18.4669635,19.9109859 18.5282125,19.8640903 L18.6200856,19.7937473 C18.6813347,19.7468517 18.7425829,19.7234043 18.8038319,19.7234043 L19.8220925,19.7234043 C19.8833415,19.7234043 19.9445897,19.7468517 20.0058387,19.7937473 L20.0977119,19.8640903 C20.1589609,19.9109859 20.189585,19.9696045 20.189585,20.0399479 L20.189585,20.180634 L19.868029,20.180634 L19.868029,20.1138081 C19.868029,20.0786364 19.866115,20.0557751 19.862287,20.0452236 C19.8584589,20.0346721 19.8450609,20.0211898 19.8220925,20.0047764 C19.7991241,19.9883629 19.78126,19.9783978 19.7684998,19.9748806 C19.7557396,19.9713634 19.7263915,19.9696049 19.6804547,19.9696049 L18.9454697,19.9696049 C18.8995329,19.9696049 18.8701848,19.9713634 18.8574246,19.9748806 C18.8446644,19.9783978 18.8268003,19.9883629 18.8038319,20.0047764 C18.7808635,20.0211898 18.7674655,20.0346721 18.7636374,20.0452236 C18.7598094,20.0557751 18.7578953,20.0786364 18.7578953,20.1138081 L18.7578953,20.669518 C18.7578953,20.7046897 18.7598094,20.727551 18.7636374,20.7381025 C18.7674655,20.748654 18.7808635,20.7621363 18.8038319,20.7785497 C18.8268003,20.7949632 18.8446644,20.8049283 18.8574246,20.8084455 C18.8701848,20.8119627 18.8995329,20.8137212 18.9454697,20.8137212 L19.8603729,20.8137212 C19.921622,20.8137212 19.9828701,20.8371687 20.0441192,20.8840643 L20.1359923,20.9544073 C20.1972414,21.0013029 20.2278655,21.0599215 20.2278655,21.1302649 L20.2278655,21.8688667 C20.2278655,21.9392101 20.1972414,21.9978287 20.1359923,22.0447243 L20.0441192,22.1150673 C19.9828701,22.1619629 19.921622,22.1854103 19.8603729,22.1854103 L18.7655514,22.1854103 C18.7043024,22.1854103 18.6430542,22.1619629 18.5818052,22.1150673 L18.489932,22.0447243 C18.428683,21.9978287 18.3980589,21.9392101 18.3980589,21.8688667 L18.3980589,21.7281806 L18.7196149,21.7281806 L18.7196149,21.7950065 C18.7196149,21.8301782 18.7215289,21.8530395 18.7253569,21.863591 C18.729185,21.8741425 18.742583,21.8876248 18.7655514,21.9040382 C18.7885198,21.9204517 18.8063839,21.9304168 18.8191441,21.933934 C18.8319043,21.9374512 18.8612524,21.9392097 18.9071892,21.9392097 L19.7187352,21.9392097 C19.764672,21.9392097 19.7940201,21.9374512 19.8067803,21.933934 C19.8195405,21.9304168 19.8374045,21.9204517 19.8603729,21.9040382 C19.8833413,21.8876248 19.8967394,21.8741425 19.9005674,21.863591 C19.9043955,21.8530395 19.9063095,21.8301782 19.9063095,21.7950065 L19.9063095,21.2041251 C19.9063095,21.1689534 19.9043955,21.1460921 19.9005674,21.1355406 C19.8967394,21.1249891 19.8833413,21.1115068 19.8603729,21.0950934 C19.8374045,21.0786799 19.8195405,21.0687147 19.8067803,21.0651976 C19.7940201,21.0616804 19.764672,21.0599218 19.7187352,21.0599218 Z" id="BUCKETS" stroke="#FFFFFF" stroke-width="0.5" fill="#FFFFFF"></path>
                </g>
            </g>
        </g>
    </g>
</svg>