<?xml version="1.0" encoding="UTF-8"?>
<svg width="42px" height="49px" viewBox="0 0 42 49" version="1.1" xmlns="http://www.w3.org/2000/svg" xmlns:xlink="http://www.w3.org/1999/xlink">
    <!-- Generator: Sketch 46.1 (44463) - http://www.bohemiancoding.com/sketch -->
    <title>hexagon-java</title>
    <desc>Created with Sketch.</desc>
    <defs></defs>
    <g id="Page-1" stroke="none" stroke-width="1" fill="none" fill-rule="evenodd">
        <g id="Hexagon---Swag,-goodies" transform="translate(-403.000000, -30.000000)">
            <g id="hexagon-java" transform="translate(403.000000, 30.000000)">
                <polygon id="Polygon" fill="#F98633" points="21 0 42 12.25 42 36.75 21 49 1.59872116e-14 36.75 2.22044605e-15 12.25"></polygon>
                <g id="Group-3" transform="translate(9.000000, 7.000000)" fill-rule="nonzero" fill="#FFFFFF">
                    <path d="M7.93967471,23.7989633 C7.93967471,23.7989633 6.76776265,24.4796112 8.77290119,24.7104918 C11.2036446,24.9893475 12.4444927,24.9473693 15.1240051,24.4406314 C15.1240051,24.4406314 15.8283514,24.8814034 16.8114387,25.2652049 C10.8080119,27.8408725 3.22505151,25.1152825 7.93967471,23.7989633" id="Shape"></path>
                    <path d="M7.20535642,20.4407004 C7.20535642,20.4407004 5.88957791,21.4151964 7.89771367,21.6220894 C10.4933041,21.8889513 12.5434009,21.9129389 16.0921064,21.2292925 C16.0921064,21.2292925 16.5836501,21.727035 17.3539351,21.9998939 C10.0976713,24.1197974 2.01117841,22.1648086 7.20535642,20.4407004" id="Shape"></path>
                    <path d="M13.3916134,14.7406489 C14.8722389,16.4437679 13.0019751,17.9789738 13.0019751,17.9789738 C13.0019751,17.9789738 16.7574887,16.0389773 15.0340886,13.6102336 C13.4215856,11.3464046 12.186732,10.2189878 18.8765215,6.33899482 C18.8765215,6.33899482 8.37726847,8.96263768 13.3916134,14.7406489" id="Shape"></path>
                    <path d="M21.3312427,26.281679 C21.3312427,26.281679 22.1974385,26.9983084 20.3751303,27.550023 C16.9103469,28.5994802 5.95251948,28.9173157 2.91034367,27.5920012 C1.81635927,27.1152479 3.86945329,26.4555892 4.51385506,26.3176605 C5.18822901,26.1707365 5.57187285,26.1977224 5.57187285,26.1977224 C4.35500253,25.340166 -2.29282598,27.8828509 2.19400868,28.6084755 C14.4346451,30.5964472 24.5052961,27.7149377 21.3312427,26.281679" id="Shape"></path>
                    <path d="M8.50315161,16.9595011 C8.50315161,16.9595011 2.92832697,18.2848155 6.53098246,18.7645674 C8.05057177,18.968462 11.0807587,18.9204868 13.9041376,18.6866078 C16.2119951,18.4917086 18.5258471,18.0779226 18.5258471,18.0779226 C18.5258471,18.0779226 17.7136012,18.4257428 17.1231492,18.8275349 C11.4644025,20.317764 0.530552942,19.6251222 3.67763137,18.1019102 C6.33916054,16.8125772 8.50315161,16.9595011 8.50315161,16.9595011" id="Shape"></path>
                    <path d="M18.5018693,22.5516086 C24.2565271,19.5591564 21.5949979,16.6866422 19.7397202,17.0734422 C19.2841432,17.1693925 19.0803324,17.2503507 19.0803324,17.2503507 C19.0803324,17.2503507 19.2481765,16.9864872 19.571876,16.8695477 C23.2464647,15.5772161 26.0698436,20.6805764 18.3849779,22.701531 C18.3849779,22.701531 18.4748944,22.6205729 18.5018693,22.5516086" id="Shape"></path>
                    <path d="M15.0340886,0.0722364181 C15.0340886,0.0722364181 18.220131,3.2595877 12.0128934,8.16505025 C7.03451502,12.0990153 10.8769479,14.3418552 12.0098961,16.9025306 C9.10259512,14.2788878 6.97157344,11.970082 8.40124622,9.8201941 C10.5022957,6.66882421 16.3198949,5.13661676 15.0340886,0.0722364181" id="Shape"></path>
                    <path d="M9.06962572,30.6564161 C14.5934977,31.0102332 23.072626,30.4615169 23.2734396,27.8468694 C23.2734396,27.8468694 22.8867986,28.839356 18.7086774,29.6249497 C13.9940542,30.5124906 8.18244933,30.4075448 4.73265194,29.8408381 C4.73265194,29.8378395 5.43999528,30.4225371 9.06962572,30.6564161" id="Shape"></path>
                </g>
            </g>
        </g>
    </g>
</svg>