<?xml version="1.0" encoding="UTF-8"?>
<svg width="42px" height="49px" viewBox="0 0 42 49" version="1.1" xmlns="http://www.w3.org/2000/svg" xmlns:xlink="http://www.w3.org/1999/xlink">
    <!-- Generator: Sketch 46.1 (44463) - http://www.bohemiancoding.com/sketch -->
    <title>hexagon-kafka</title>
    <desc>Created with Sketch.</desc>
    <defs></defs>
    <g id="Page-1" stroke="none" stroke-width="1" fill="none" fill-rule="evenodd">
        <g id="Hexagon---Swag,-goodies" transform="translate(-402.000000, -315.000000)">
            <g id="hexagon-kafka" transform="translate(402.000000, 315.000000)">
                <polygon id="Polygon" fill="#282828" points="21 0 42 12.25 42 36.75 21 49 4.53415083e-13 36.75 4.40092407e-13 12.25"></polygon>
                <path d="M18.696714,12.3502113 L18.696714,12.3502113 C18.3802893,12.0272334 17.9409448,11.8283388 17.4515415,11.8283388 C16.9632444,11.8283388 16.5274951,12.0272334 16.215034,12.3502113 L16.2068591,12.3502113 C15.8914175,12.6707226 15.6956379,13.1180958 15.6956379,13.6124287 C15.6956379,14.1096973 15.8914175,14.5542605 16.2068591,14.8716176 L16.215034,14.8804207 C16.5274951,15.2005886 16.9632444,15.3967045 17.4515415,15.3967045 C17.9409448,15.3967045 18.3802893,15.2005886 18.696714,14.8804207 L18.7003073,14.8716176 C19.0171934,14.5542605 19.2103614,14.1096973 19.2103614,13.6124287 C19.2103614,13.1180958 19.0171934,12.6707226 18.7003073,12.3502113 L18.696714,12.3502113 L18.696714,12.3502113 Z M17.4515415,36.773223 L17.4515415,36.773223 C17.9409448,36.773223 18.3802893,36.5706437 18.696714,36.2536294 L18.7003073,36.2444803 C19.0171934,35.9279971 19.2103614,35.4805931 19.2103614,34.9889447 C19.2103614,34.491801 19.0171934,34.0463954 18.7003073,33.7242606 L18.696714,33.7242606 C18.3802893,33.3982541 17.9409448,33.2011701 17.4515415,33.2011701 C16.9632444,33.2011701 16.5274951,33.3982541 16.215034,33.7242606 L16.2068591,33.7242606 C15.8914175,34.0463954 15.6956379,34.491801 15.6956379,34.9889447 C15.6956379,35.4805931 15.8914175,35.9279971 16.2068591,36.2444803 L16.215034,36.2536294 C16.5274951,36.5706437 16.9632444,36.773223 17.4515415,36.773223 L17.4515415,36.773223 Z M27.0184765,31.3674975 L27.0184765,31.3674975 C27.4533961,31.2512518 27.8472293,30.9676779 28.0875371,30.5387272 L28.119954,30.4760288 L28.119954,30.4760288 C28.3337419,30.0698708 28.3729835,29.6001732 28.2586075,29.1835553 C28.1433703,28.738493 27.8611476,28.3436695 27.4398108,28.0981574 L27.4151067,28.0812046 C27.0045562,27.8520224 26.5372473,27.802127 26.1078903,27.9210579 C25.6711882,28.0318083 25.2786454,28.3273408 25.0396593,28.7526383 C24.7975394,29.1752512 24.7469884,29.6610603 24.8627171,30.1083086 C24.9825018,30.5483754 25.2624511,30.9457277 25.6811449,31.19405 L25.6837757,31.19405 C26.1032992,31.439343 26.5778294,31.4831185 27.0184643,31.3674975 L27.0184643,31.3674975 L27.0184765,31.3674975 Z M19.2526169,22.4724001 L19.2526169,22.4724001 C18.7916695,22.005387 18.1555617,21.7126652 17.4515415,21.7126652 C16.7484734,21.7126652 16.1142092,22.005387 15.6542146,22.4724001 C15.1954181,22.9389442 14.9127347,23.5824333 14.9127347,24.297768 C14.9127347,25.0131027 15.1954181,25.6594013 15.6542146,26.1314413 C16.1142092,26.5956437 16.7484734,26.8856809 17.4515415,26.8856809 C18.1555617,26.8856809 18.7916695,26.5956437 19.2526169,26.1314413 C19.7122431,25.6594013 19.9949265,25.0131027 19.9949265,24.297768 C19.9949265,23.5824333 19.7122431,22.9389442 19.2526169,22.4724001 L19.2526169,22.4724001 Z M18.2398232,19.4317437 L18.2398232,19.4317437 C19.2615899,19.6027559 20.1794288,20.1000245 20.8808067,20.8180444 L20.8861967,20.8180444 C20.9978078,20.9309802 21.1063454,21.0553755 21.2071701,21.1798016 L22.9604608,20.1494201 C22.7245785,19.4257801 22.713762,18.6691987 22.9031794,17.9593593 C23.1531052,17.0094727 23.7594352,16.1587522 24.6682395,15.6258886 L24.6980192,15.6066229 C25.5969899,15.0898394 26.6187567,14.9823674 27.5411129,15.2361849 C28.4751462,15.4905022 29.3178199,16.1093553 29.8422555,17.0314223 L29.8422555,17.0341132 C30.3644165,17.951184 30.4701885,19.0036406 30.2212156,19.9508426 C29.9727342,20.9008548 29.3641294,21.7570705 28.4561863,22.2871548 L28.2167081,22.4306902 L28.1924339,22.4306902 C27.3524334,22.8369725 26.4292173,22.9005127 25.581135,22.6736416 C24.8847974,22.4860808 24.2460775,22.0908825 23.745857,21.5305735 L21.9953319,22.5578956 C22.1965207,23.0989711 22.3076704,23.6817294 22.3076704,24.2977732 C22.3076704,24.9106627 22.1965207,25.5020705 21.9953319,26.0457997 L23.745857,27.0704674 C24.2460775,26.5013533 24.8847974,26.1149601 25.581135,25.9270252 C26.5156296,25.6675875 27.5509484,25.7778382 28.4561882,26.3138861 L28.5142653,26.3413335 L28.5142653,26.3440244 C29.3884986,26.882883 29.9754997,27.7139636 30.2212156,28.6528911 C30.4701885,29.5947222 30.3644165,30.6475229 29.8422555,31.5664357 L29.8106985,31.6304731 L29.8106985,31.6304731 L29.807041,31.6249631 C29.2827285,32.5109346 28.4561574,33.1110231 27.5437271,33.36484 C26.6079113,33.6154726 25.5721004,33.5083754 24.6682132,32.9801331 L24.6682132,32.9728292 C23.7594089,32.4390916 23.1530789,31.5865605 22.9031531,30.638359 C22.7137344,29.93183 22.7245509,29.1752487 22.9604345,28.4516086 L21.2071438,27.4239123 C21.1063191,27.5483384 20.9977815,27.6672384 20.8861704,27.7801743 L20.8807804,27.7856843 C20.1794025,28.501019 19.2615636,28.9982876 18.2397969,29.1638039 L18.2397969,31.2220073 C18.9680938,31.3766581 19.6199044,31.7467213 20.1307881,32.2658152 L20.1307881,32.2658152 L20.1335473,32.2712611 C20.8182694,32.9636775 21.2422487,33.9283333 21.2422487,34.9889396 C21.2422487,36.0460489 20.8182694,37.0052095 20.1335473,37.7012791 L20.1307881,37.7121133 L20.1307881,37.7121133 C19.4411489,38.4078088 18.4954995,38.8387264 17.4515152,38.8387264 C16.4130613,38.8387264 15.4646464,38.4078088 14.7768205,37.7121133 L14.7740613,37.7121133 L14.7740613,37.7012791 C14.0885403,37.0052095 13.6636082,36.0460489 13.6636082,34.9889396 C13.6636082,33.9283333 14.0885403,32.9636775 14.7740613,32.2712611 L14.7740613,32.2658152 L14.7768205,32.2658152 C15.2872127,31.7467213 15.9403444,31.3766581 16.6661216,31.2220073 L16.6661216,29.1638039 C15.6442316,28.9982876 14.728206,28.501019 14.027781,27.7856843 L14.020588,27.7801743 C13.1459864,26.8883635 12.5981351,25.6593988 12.5981351,24.2977655 C12.5981351,22.9389416 13.1459864,21.7098526 14.020588,20.8180418 L14.027781,20.8180418 C14.728206,20.1000219 15.6442316,19.6027533 16.6661216,19.4317411 L16.6661216,17.3822185 C15.9403707,17.2221993 15.287239,16.8521361 14.7768468,16.3357281 L14.7740876,16.3357281 L14.7740876,16.3302181 C14.0885666,15.6313697 13.6636345,14.6731772 13.6636345,13.6124147 C13.6636345,12.5572729 14.0885666,11.5907123 14.7740876,10.8947365 L14.7740876,10.8947365 L14.7768468,10.8919238 C15.4646727,10.19345 16.4130876,9.76287529 17.4515415,9.76287529 C18.4955259,9.76287529 19.4411752,10.19345 20.1308144,10.8919238 L20.1308144,10.8947365 L20.1335736,10.8947365 C20.8182958,11.5907123 21.242275,12.5572729 21.242275,13.6124147 C21.242275,14.6731772 20.8182958,15.6313697 20.1335736,16.3302181 L20.1308144,16.3357281 C19.6199307,16.8521361 18.9681202,17.2221993 18.2398232,17.3822211 L18.2398232,19.4317437 L18.2398232,19.4317437 Z M28.0875371,18.0646145 L28.0727853,18.0421645 C27.8310337,17.6283573 27.4452206,17.3520898 27.0184752,17.2330341 C26.5778403,17.1142589 26.1033101,17.1639986 25.6811436,17.4101348 L25.6837744,17.4101348 C25.2624376,17.6529926 24.9807064,18.0504705 24.8627037,18.4954078 C24.746975,18.9372852 24.7975259,19.4257801 25.0396459,19.8512025 L25.0476988,19.8621904 C25.2904026,20.2819926 25.6765538,20.5637239 26.1078781,20.6771595 C26.5408304,20.8015548 27.0238729,20.749005 27.4398011,20.5028688 L27.4623877,20.4918809 C27.8719552,20.2435586 28.1448051,19.8512018 28.2585979,19.4202842 C28.3747873,18.9757211 28.3283237,18.4899119 28.087525,18.0646138 L28.087525,18.0646138 L28.0875371,18.0646145 Z" id="path3139" fill="#FFFFFF" fill-rule="nonzero"></path>
            </g>
        </g>
    </g>
</svg>