<?xml version="1.0" encoding="UTF-8"?>
<svg width="42px" height="49px" viewBox="0 0 42 49" version="1.1" xmlns="http://www.w3.org/2000/svg" xmlns:xlink="http://www.w3.org/1999/xlink">
    <!-- Generator: Sketch 46.1 (44463) - http://www.bohemiancoding.com/sketch -->
    <title>hexagon-docker</title>
    <desc>Created with Sketch.</desc>
    <defs></defs>
    <g id="Page-1" stroke="none" stroke-width="1" fill="none" fill-rule="evenodd">
        <g id="Hexagon---Swag,-goodies" transform="translate(-403.000000, -99.000000)">
            <g id="hexagon-docker" transform="translate(403.000000, 99.000000)">
                <polygon id="Polygon" fill="#22B8EB" points="21 0 42 12.25 42 36.75 21 49 1.687539e-14 36.75 3.10862447e-15 12.25"></polygon>
                <g id="Group-7" transform="translate(5.000000, 15.000000)" fill-rule="nonzero" fill="#FFFFFF">
                    <path d="M16.0547145,9.23047895 C16.1780069,9.24140007 16.1698778,9.13764929 16.1712326,9.05574077 C16.1739424,8.76906096 16.1725875,8.48238114 16.1725875,8.19706647 C16.1725875,7.8926398 16.1739424,7.586848 16.1712326,7.28242135 C16.1712326,7.20870368 16.1725875,7.1213346 16.069618,7.1213346 C15.9666485,7.1213346 15.9680034,7.20733854 15.9680034,7.28242135 C15.9666485,7.87352782 15.9666485,8.4646343 15.9680034,9.05710591 C15.9666485,9.12809329 15.9558096,9.22228809 16.0547145,9.23047895 L16.0547145,9.23047895 L16.0547145,9.23047895 Z" id="Shape"></path>
                    <path d="M19.7605866,9.2359395 C19.8743949,9.22638352 19.863556,9.12536301 19.863556,9.04208936 C19.8649109,8.75677467 19.863556,8.46872971 19.863556,8.1820499 L19.863556,7.29334248 C19.863556,7.20733854 19.8594915,7.11314375 19.7443282,7.11450889 C19.6318747,7.11450889 19.6549073,7.21279911 19.6549073,7.28105621 C19.6521975,7.87352782 19.6521975,8.46599944 19.6549073,9.05847105 C19.6549073,9.13491901 19.6251003,9.24822579 19.7605866,9.2359395 L19.7605866,9.2359395 L19.7605866,9.2359395 Z" id="Shape"></path>
                    <path d="M17.5934085,9.23730464 C17.6923134,9.24140007 17.7126363,9.16631726 17.7126363,9.0857739 L17.7126363,7.25511851 C17.7126363,7.16911457 17.6787648,7.10495289 17.5839244,7.11450889 C17.4945036,7.12269973 17.5053425,7.20187797 17.5039876,7.26467451 C17.5026328,7.56910116 17.5026328,7.87489296 17.5026328,8.17931961 C17.5026328,8.47555543 17.5012778,8.77179124 17.5039876,9.06666191 C17.5066973,9.13628415 17.4796,9.23184409 17.5934085,9.23730464 L17.5934085,9.23730464 L17.5934085,9.23730464 Z" id="Shape"></path>
                    <path d="M16.8335468,9.2359395 C16.9338065,9.23457437 16.9419357,9.15130071 16.9419357,9.07485275 L16.9419357,7.27150021 C16.9419357,7.19368713 16.9283871,7.11723917 16.8281273,7.11587403 C16.7143189,7.11587403 16.7346419,7.20870368 16.7346419,7.27832592 C16.7319321,7.57456174 16.733287,7.87079753 16.733287,8.1656682 C16.733287,8.46053887 16.7319321,8.75813981 16.7346419,9.05301048 C16.7346419,9.12809329 16.6980606,9.23866979 16.8335468,9.2359395 L16.8335468,9.2359395 Z" id="Shape"></path>
                    <path d="M16.1400705,4.30504671 C16.1400705,4.24088503 16.1400705,4.16307195 16.0492947,4.16716738 C15.958519,4.17262793 15.9693579,4.25453646 15.9693579,4.31733298 L15.9693579,5.20467526 C15.9693579,5.50091107 15.9666482,5.79714689 15.9693579,6.09201754 C15.9707128,6.15890951 15.9476801,6.25856486 16.0601336,6.25719974 C16.1495545,6.25446945 16.1400705,6.16983064 16.1400705,6.10839926 C16.1427802,5.50773679 16.1427802,4.90570918 16.1400705,4.30504671 L16.1400705,4.30504671 Z" id="Shape"></path>
                    <path d="M17.2019616,9.2359395 C17.3184797,9.24276521 17.325254,9.14993556 17.325254,9.06393163 L17.325254,7.28788192 C17.325254,7.20051282 17.3184797,7.10904832 17.2019616,7.11587403 C17.0922178,7.12269973 17.1179602,7.22098995 17.1179602,7.28788192 C17.1138956,7.58411772 17.1152505,7.88035353 17.1152505,8.1752242 C17.1152505,8.47009486 17.1152505,8.76769581 17.1179602,9.06256648 C17.119315,9.13082358 17.0922178,9.22774866 17.2019616,9.2359395 L17.2019616,9.2359395 L17.2019616,9.2359395 Z" id="Shape"></path>
                    <path d="M16.3445501,8.17112877 C16.3445501,8.46736457 16.3445501,8.76360038 16.3459049,9.05847105 C16.3472598,9.12672815 16.3188077,9.22501837 16.4258418,9.23457437 C16.541005,9.24686064 16.5559085,9.15676128 16.5559085,9.06666191 L16.5559085,7.29061219 C16.5559085,7.20460825 16.5531988,7.10768317 16.4353258,7.11450889 C16.3052591,7.12269973 16.3499695,7.23600652 16.3486146,7.30972419 C16.3418403,7.596404 16.3445501,7.88444896 16.3445501,8.17112877 L16.3445501,8.17112877 L16.3445501,8.17112877 Z" id="Shape"></path>
                    <path d="M20.0409347,9.07894818 C20.0409347,9.14857042 20.0233214,9.24140007 20.1357749,9.23866979 C20.2333251,9.23730464 20.2495834,9.15812642 20.2495834,9.08031332 C20.2509384,8.47828571 20.2509384,7.87762325 20.2495834,7.27559564 C20.2495834,7.19778254 20.2360348,7.11860432 20.1384847,7.11450889 C20.0246764,7.11041346 20.0409347,7.20187797 20.0409347,7.27286535 C20.038225,7.56910116 20.0395798,7.86533698 20.0395798,8.16157277 C20.0395798,8.46736457 20.038225,8.77179124 20.0409347,9.07894818 L20.0409347,9.07894818 Z" id="Shape"></path>
                    <path d="M13.1236119,6.29132827 C13.2414849,6.29815399 13.2469043,6.20532434 13.2469043,6.11932038 C13.2469043,5.52002306 13.2469043,4.91936059 13.2455495,4.31869812 C13.2455495,4.24225017 13.2374203,4.16307195 13.1344508,4.16170681 C13.0179327,4.16170681 13.0409653,4.25317131 13.0409653,4.32142841 C13.0396105,4.61493394 13.0396105,4.91116975 13.0396105,5.2060404 C13.0396105,5.51183222 13.0396105,5.81625887 13.0409653,6.12068553 C13.0423202,6.18894262 13.015223,6.2858677 13.1236119,6.29132827 L13.1236119,6.29132827 L13.1236119,6.29132827 Z" id="Shape"></path>
                    <path d="M14.5769491,6.14798837 C14.5769491,6.21215004 14.5755943,6.28723285 14.6623055,6.29405856 C14.7585006,6.29951913 14.7896625,6.23535745 14.7896625,6.1520838 C14.7910173,5.54186533 14.7910173,4.93028173 14.7896625,4.32142841 C14.7896625,4.24498046 14.7815333,4.16580223 14.6799187,4.16307195 C14.5674651,4.16034166 14.5769491,4.24771074 14.5769491,4.31869812 C14.5755943,4.6231248 14.5755943,4.92891659 14.5755943,5.23334325 C14.5755943,5.53640477 14.5755943,5.84219657 14.5769491,6.14798837 L14.5769491,6.14798837 L14.5769491,6.14798837 Z" id="Shape"></path>
                    <path d="M13.1222574,7.11450889 C13.0152233,7.12406487 13.0409656,7.22098995 13.0396108,7.28924707 C13.0382559,7.58548286 13.0396108,7.88171867 13.0396108,8.17795449 C13.0396108,8.47419028 13.0382559,8.7704261 13.0396108,9.06529677 C13.0409656,9.13355386 13.0152233,9.23184409 13.1263219,9.2359395 C13.2414852,9.24003493 13.2496144,9.14584013 13.2496144,9.0598362 L13.2496144,7.28378649 C13.2496144,7.19505225 13.2347109,7.10495289 13.1222574,7.11450889 L13.1222574,7.11450889 Z" id="Shape"></path>
                    <path d="M13.510994,6.29132827 C13.628867,6.29815399 13.6342864,6.20395919 13.6342864,6.11795524 C13.6342864,5.51865792 13.6369962,4.91799545 13.6342864,4.31733298 C13.6342864,4.24088503 13.6248024,4.16170681 13.5231878,4.16034166 C13.4066696,4.16034166 13.4283474,4.25180617 13.4283474,4.32006327 C13.4269926,4.61493394 13.4283474,4.91116975 13.4283474,5.2060404 C13.4283474,5.51183222 13.4269926,5.81625887 13.4283474,6.12068553 C13.4310572,6.18894262 13.4012502,6.2858677 13.5137037,6.29132827 L13.510994,6.29132827 L13.510994,6.29132827 Z" id="Shape"></path>
                    <path d="M14.1963391,6.14525808 C14.1963391,6.20805462 14.1855003,6.28723285 14.2803406,6.29269342 C14.3751809,6.29815399 14.403633,6.23262718 14.403633,6.14798837 C14.403633,5.53913504 14.4063427,4.92891659 14.403633,4.32142841 C14.403633,4.2463456 14.3982136,4.16443709 14.2952441,4.16170681 C14.1787259,4.15761138 14.1990489,4.24907588 14.1990489,4.31733298 C14.1949843,4.61356879 14.1963391,4.90980461 14.1963391,5.20467526 C14.1963391,5.51729277 14.1949843,5.83264057 14.1963391,6.14525808 L14.1963391,6.14525808 Z" id="Shape"></path>
                    <path d="M13.8997322,6.29132827 C13.9986371,6.2954237 14.01896,6.22034089 14.01896,6.14116265 C14.01896,5.53230935 14.0203149,4.92209088 14.01896,4.31460269 C14.01896,4.23678962 14.0054114,4.15897652 13.9037967,4.16170681 C13.7859238,4.16307195 13.813021,4.25863189 13.813021,4.32552384 C13.8103113,4.62039451 13.8116661,4.91663031 13.8116661,5.21150098 C13.8116661,5.51592763 13.8116661,5.82171944 13.813021,6.12478096 C13.813021,6.19303805 13.7859238,6.28723285 13.8997322,6.29132827 L13.8997322,6.29132827 L13.8997322,6.29132827 Z" id="Shape"></path>
                    <path d="M16.733287,3.17197887 C16.733287,3.24023597 16.7061897,3.33852619 16.8145787,3.34671705 C16.9283871,3.35763818 16.9419357,3.26753881 16.9419357,3.17743944 L16.9419357,2.29146231 C16.9419357,1.99659163 16.9419357,1.70035583 16.939226,1.40548516 C16.939226,1.32494179 16.9527746,1.22255614 16.8335467,1.21709557 C16.6967057,1.211635 16.7359967,1.32494179 16.7359967,1.39729431 C16.7319321,1.98976592 16.733287,2.57950726 16.733287,3.17197887 L16.733287,3.17197887 L16.733287,3.17197887 Z" id="Shape"></path>
                    <path d="M18.0620822,4.3241587 C18.0620822,4.25726674 18.0810503,4.15897652 17.9672418,4.16716738 C17.8751112,4.17262793 17.8927245,4.25863189 17.8927245,4.31869812 C17.8913695,4.60264765 17.8927245,4.88796234 17.8927245,5.17464215 C17.8927245,5.47770366 17.8900147,5.78213032 17.8927245,6.08519184 C17.8940792,6.1520838 17.8656272,6.25446945 17.975371,6.25719974 C18.08376,6.25993 18.0620822,6.15754437 18.0620822,6.0906524 C18.0647919,5.50227622 18.0647919,4.91390002 18.0620822,4.3241587 L18.0620822,4.3241587 L18.0620822,4.3241587 Z" id="Shape"></path>
                    <path d="M18.9980134,9.23184409 C19.099628,9.22774866 19.0982732,9.14310985 19.0982732,9.06802704 C19.099628,8.77179124 19.0982732,8.47555543 19.0982732,8.17931961 C19.0982732,7.88308382 19.099628,7.586848 19.0982732,7.29061219 C19.0982732,7.21689454 19.1036927,7.12952544 19.0034328,7.1213346 C18.9004634,7.1117786 18.8869148,7.19232198 18.8869148,7.27013506 C18.8855599,7.87216267 18.8855599,8.47419028 18.8869148,9.0762179 C18.8869148,9.15403099 18.895044,9.23730464 18.9980134,9.23184409 L18.9980134,9.23184409 L18.9980134,9.23184409 Z" id="Shape"></path>
                    <path d="M17.5988277,4.16170681 C17.4836644,4.16170681 17.506697,4.25453646 17.5053422,4.32279355 C17.5026325,4.61766422 17.5039873,4.91390002 17.5039873,5.20877069 C17.5039873,5.51456249 17.5026325,5.81898916 17.5053422,6.12341581 C17.506697,6.19167291 17.4795997,6.2858677 17.5906985,6.29405856 C17.6855387,6.30088428 17.712636,6.22716661 17.712636,6.14662323 C17.7139909,5.53640477 17.7139909,4.92755145 17.712636,4.32006327 C17.712636,4.24225017 17.6990873,4.16443709 17.5988277,4.16170681 L17.5988277,4.16170681 L17.5988277,4.16170681 Z" id="Shape"></path>
                    <path d="M16.4434537,4.16170681 C16.3269356,4.16170681 16.3499682,4.25453646 16.3486133,4.32279355 C16.3459036,4.61766422 16.3472585,4.91390002 16.3472585,5.20877069 C16.3472585,5.51456249 16.3459036,5.81898916 16.3486133,6.12341581 C16.3499682,6.19167291 16.3242258,6.2858677 16.4353245,6.29405856 C16.5301648,6.30088428 16.5572621,6.22716661 16.5572621,6.14662323 C16.5586169,5.53640477 16.5586169,4.92755145 16.5572621,4.32006327 C16.5572621,4.24225017 16.5437135,4.16307195 16.4434537,4.16170681 L16.4434537,4.16170681 L16.4434537,4.16170681 Z" id="Shape"></path>
                    <path d="M17.8927246,2.27098518 C17.8927246,2.56722098 17.8900148,2.86345679 17.8927246,3.15696232 C17.8940793,3.22385427 17.8656273,3.32350964 17.9835003,3.31804906 C18.074276,3.31531878 18.0634371,3.23067998 18.0634371,3.16924859 C18.064792,2.56995126 18.064792,1.9692888 18.0634371,1.36862633 C18.0634371,1.30856008 18.075631,1.22528642 17.9821455,1.22119099 C17.8629176,1.21709557 17.8940793,1.31675093 17.8927246,1.38364289 C17.8900148,1.6798787 17.8913696,1.97611451 17.8927246,2.27098518 L17.8927246,2.27098518 L17.8927246,2.27098518 Z" id="Shape"></path>
                    <path d="M16.8335463,4.16307195 C16.6980601,4.15761138 16.7373511,4.2722833 16.7359963,4.34463582 C16.7319317,4.63131564 16.7332866,4.91663031 16.7332866,5.20331012 C16.7332866,5.50773679 16.7319317,5.81216344 16.7346414,6.1165901 C16.7359963,6.18621234 16.7075442,6.28313742 16.8159331,6.29269342 C16.9297415,6.30224942 16.944645,6.21078489 16.944645,6.12341581 L16.944645,4.35146154 C16.9432901,4.26955301 16.9500645,4.16853252 16.8335463,4.16307195 L16.8335463,4.16307195 L16.8335463,4.16307195 Z" id="Shape"></path>
                    <path d="M17.2195742,4.16307195 C17.084088,4.15761138 17.1220242,4.2722833 17.1220242,4.34463582 C17.1166047,4.63131564 17.1193145,4.91663031 17.1193145,5.20331012 C17.1193145,5.50773679 17.1166047,5.81216344 17.1193145,6.1165901 C17.1220242,6.18621234 17.0935721,6.28313742 17.201961,6.29269342 C17.3157694,6.30224942 17.3306729,6.21078489 17.3306729,6.12341581 L17.3306729,4.35146154 C17.329318,4.26955301 17.3360923,4.16853252 17.2195742,4.16307195 L17.2195742,4.16307195 L17.2195742,4.16307195 Z" id="Shape"></path>
                    <path d="M17.8927244,9.06120134 C17.8927244,9.12126758 17.8778208,9.20727153 17.9713064,9.20727153 C18.0851147,9.20863668 18.0620821,9.11171159 18.0620821,9.04481962 C18.0647919,8.75950495 18.0634369,8.47419028 18.0634369,8.18887561 C18.0634369,7.89400494 18.0647919,7.60049943 18.0620821,7.30562876 C18.0607272,7.23873681 18.082405,7.14044659 17.9685967,7.14590716 C17.8751111,7.15000257 17.8927244,7.23464138 17.8927244,7.29334248 C17.8900146,7.88308382 17.8900146,8.47146 17.8927244,9.06120134 L17.8927244,9.06120134 L17.8927244,9.06120134 Z" id="Shape"></path>
                    <path d="M16.058779,3.31668392 C16.1631034,3.31531878 16.1427805,3.21293313 16.1427805,3.14604117 C16.146845,2.86209165 16.1441353,2.57541183 16.1441353,2.28873202 C16.1441353,1.9856705 16.1441353,1.68124384 16.1427805,1.37681718 C16.1427805,1.31675093 16.1576839,1.23211213 16.0655533,1.22528642 C15.9503901,1.21573043 15.9693581,1.31402065 15.9693581,1.38227775 C15.9666484,1.97065394 15.9666484,2.56039526 15.9693581,3.1501366 C15.9693581,3.21702856 15.9476803,3.31941421 16.0560693,3.31668392 L16.058779,3.31668392 L16.058779,3.31668392 Z" id="Shape"></path>
                    <path d="M16.3472597,3.16924859 C16.3472597,3.2443314 16.3174527,3.35763818 16.4529389,3.34535191 C16.5681022,3.33579591 16.5531987,3.23341025 16.5531987,3.15286689 C16.5559084,2.86618708 16.5545536,2.58087241 16.5531987,2.29555772 C16.5531987,1.99932192 16.5545536,1.70308611 16.5518438,1.40958059 C16.5518438,1.32903721 16.5653925,1.22665156 16.4488743,1.21982585 C16.3093236,1.21026986 16.3472597,1.32494179 16.3472597,1.39865945 C16.34455,1.98840078 16.34455,2.57814212 16.3472597,3.16924859 L16.3472597,3.16924859 L16.3472597,3.16924859 Z" id="Shape"></path>
                    <path d="M19.2715898,9.0338985 C19.2715898,9.11307674 19.2255244,9.2454955 19.3799788,9.23457437 C19.5141101,9.22501837 19.4843032,9.10625102 19.4843032,9.01888194 C19.4883677,8.74175811 19.4856579,8.46736457 19.4856579,8.19024076 C19.4856579,7.90629123 19.4856579,7.61961142 19.4843032,7.33429675 C19.4843032,7.24692765 19.5114004,7.1281603 19.3759141,7.11996946 C19.2228147,7.1117786 19.2715898,7.24283222 19.2715898,7.32064532 C19.2675253,7.88990953 19.2675253,8.46190402 19.2715898,9.0338985 L19.2715898,9.0338985 L19.2715898,9.0338985 Z" id="Shape"></path>
                    <path d="M17.1193145,2.27235031 C17.1193145,2.57814212 17.1166048,2.88256877 17.1193145,3.18699543 C17.1193145,3.25525254 17.1003465,3.34808219 17.2155097,3.34808219 C17.3144146,3.34671705 17.3252535,3.26890395 17.3252535,3.19109086 C17.3266084,2.59179353 17.3266084,1.99249621 17.3252535,1.39183374 C17.3252535,1.30719494 17.3225438,1.21300014 17.2046708,1.21982585 C17.0895076,1.22528642 17.1206694,1.32357664 17.1206694,1.3904686 C17.11525,1.68533927 17.1179597,1.98157507 17.1179597,2.27644573 L17.1179597,2.27235031 L17.1193145,2.27235031 Z" id="Shape"></path>
                    <path d="M17.5039878,2.28190631 C17.5039878,2.57677698 17.502633,2.87301277 17.5053427,3.16788344 C17.5066975,3.24296625 17.4741808,3.35354275 17.6096671,3.34535191 C17.708572,3.33989133 17.7112817,3.25661767 17.7112817,3.18016973 C17.7112817,2.58087241 17.7126365,1.98157507 17.7099267,1.38091261 C17.7099267,1.30719494 17.707217,1.22119099 17.6069573,1.21709557 C17.4687613,1.21026986 17.5066975,1.3222115 17.5053427,1.39592917 C17.501278,1.69216498 17.502633,1.98840078 17.5039878,2.28190631 L17.5039878,2.28190631 L17.5039878,2.28190631 Z" id="Shape"></path>
                    <path d="M13.5109947,7.11450889 C13.4012509,7.1213346 13.4269932,7.21962481 13.4269932,7.28651678 C13.4256384,7.58275258 13.4256384,7.87898839 13.4256384,8.1752242 C13.4256384,8.47146 13.4256384,8.76769581 13.4269932,9.06256648 C13.4269932,9.13218872 13.4012509,9.2291138 13.5109947,9.2359395 C13.6248031,9.24276521 13.6369968,9.14993556 13.6369968,9.06393163 L13.6369968,7.28651678 C13.635642,7.20051282 13.6261579,7.10904832 13.5109947,7.11450889 L13.5109947,7.11450889 Z" id="Shape"></path>
                    <path d="M14.9643318,6.08928727 C14.9643318,6.15617923 14.9372346,6.25993 15.0469784,6.26129515 C15.1784,6.26539058 15.1404639,6.14798837 15.1404639,6.07563584 C15.1458833,5.78895603 15.1431736,5.50227622 15.1431736,5.2155964 C15.1431736,4.92891659 15.1458833,4.64087164 15.1404639,4.35419182 C15.1404639,4.2818393 15.1797548,4.16443709 15.0469784,4.16716738 C14.9385894,4.16853252 14.9643318,4.2722833 14.9643318,4.33917525 C14.9616221,4.92209088 14.9616221,5.50637165 14.9643318,6.08928727 L14.9643318,6.08928727 Z" id="Shape"></path>
                    <path d="M10.2019921,9.2359395 C10.3185102,9.24276521 10.3266394,9.14993556 10.3266394,9.06393163 L10.3266394,7.28788192 C10.3266394,7.20051282 10.3185102,7.10904832 10.2019921,7.11587403 C10.0922483,7.12269973 10.1179906,7.22098995 10.1179906,7.28788192 C10.1152809,7.58411772 10.1166358,7.88035353 10.1166358,8.1752242 C10.1166358,8.47009486 10.1152809,8.76769581 10.1179906,9.06256648 C10.1193455,9.13082358 10.0922483,9.22774866 10.2019921,9.2359395 L10.2019921,9.2359395 L10.2019921,9.2359395 Z" id="Shape"></path>
                    <path d="M9.12244499,9.06529677 C9.12244499,9.12809329 9.11838041,9.20863668 9.21186587,9.20454125 C9.30264163,9.19908067 9.29044787,9.11717215 9.29044787,9.05710591 C9.29451245,8.76223524 9.29315759,8.46736457 9.29315759,8.17112877 C9.29315759,7.88717925 9.29451245,7.60049943 9.29044787,7.31518475 C9.29044787,7.24965794 9.31889997,7.14727228 9.20509158,7.15000257 C9.11567068,7.15000257 9.12379986,7.23464138 9.12244499,7.29607276 C9.12109013,7.88717925 9.12109013,8.47692057 9.12244499,9.06529677 L9.12244499,9.06529677 L9.12244499,9.06529677 Z" id="Shape"></path>
                    <path d="M10.6015704,9.2359395 C10.7194434,9.23184409 10.7126691,9.13355386 10.7126691,9.0502802 L10.7126691,7.28378649 C10.7126691,7.19505225 10.6977656,7.10768317 10.5826024,7.11587403 C10.478278,7.12543001 10.4972461,7.21825968 10.4958912,7.28788192 C10.4931815,7.58275258 10.4945364,7.8762581 10.4945364,8.17249392 C10.4945364,8.46736457 10.4931815,8.7608701 10.4958912,9.05574077 C10.4972461,9.13218872 10.4701488,9.24003493 10.5988607,9.2359395 L10.6015704,9.2359395 L10.6015704,9.2359395 Z" id="Shape"></path>
                    <path d="M10.8859822,9.04618477 C10.8873371,9.11444188 10.8656593,9.21136696 10.9781128,9.20863668 C11.0702435,9.20727153 11.0634692,9.12399786 11.0634692,9.06393163 C11.064824,8.47419028 11.064824,7.88308382 11.0634692,7.29334248 C11.0634692,7.2319111 11.074308,7.15000257 10.9835323,7.14590716 C10.868369,7.14044659 10.8873371,7.23600652 10.8873371,7.30426362 C10.8859822,7.58957829 10.8859822,7.8762581 10.8859822,8.16293792 C10.8859822,8.45644344 10.8832725,8.75131411 10.8859822,9.04618477 L10.8859822,9.04618477 L10.8859822,9.04618477 Z" id="Shape"></path>
                    <path d="M8.73641736,9.06802704 C8.73641736,9.13082358 8.73506249,9.21000182 8.82854796,9.2031761 C8.92067858,9.19771553 8.91119454,9.11717215 8.91119454,9.05574077 C8.91390427,8.76906096 8.91254941,8.48238114 8.91254941,8.19843162 C8.91254941,7.9021958 8.91390427,7.60595999 8.91119454,7.31245448 C8.90983968,7.24419736 8.93287233,7.14590716 8.81906394,7.15000257 C8.7282882,7.15136771 8.73641736,7.23600652 8.73506249,7.29607276 C8.73506249,7.88717925 8.73506249,8.47828571 8.73641736,9.06802704 L8.73641736,9.06802704 L8.73641736,9.06802704 Z" id="Shape"></path>
                    <path d="M11.6566832,9.04891505 C11.6566832,9.11853729 11.6377152,9.21819266 11.7515236,9.20863668 C11.8585576,9.20044582 11.8328153,9.10215559 11.8341701,9.0338985 C11.8368798,8.74858383 11.8341701,8.46190402 11.8341701,8.17658935 C11.8341701,7.89127466 11.8368798,7.60459485 11.8341701,7.31791503 C11.8328153,7.25102308 11.8599125,7.15273286 11.7501687,7.14590716 C11.6377152,7.1377163 11.6566832,7.23737167 11.6566832,7.30562876 C11.6553284,7.88717925 11.6553284,8.46736457 11.6566832,9.04891505 L11.6566832,9.04891505 Z" id="Shape"></path>
                    <path d="M11.2706553,8.17112877 C11.2706553,8.46736457 11.2693005,8.76223524 11.2706553,9.05710591 C11.2706553,9.11717215 11.2584616,9.19908067 11.3505922,9.20727153 C11.4644006,9.21546237 11.4481423,9.11990244 11.4481423,9.05164534 C11.4494971,8.47009486 11.4494971,7.88990953 11.4481423,7.30835905 C11.4481423,7.24010195 11.46982,7.14044659 11.3573665,7.14454202 C11.2489776,7.14727228 11.2720102,7.24692765 11.2720102,7.31518475 C11.2693005,7.60049943 11.2720102,7.88717925 11.2720102,8.17385906 L11.2720102,8.17112877 L11.2706553,8.17112877 Z" id="Shape"></path>
                    <path d="M27.823795,10.4126919 C27.9782062,9.93352705 28.2396214,9.81748998 28.7326533,9.80656886 C30.3878318,9.77107516 31.7233522,9.13628415 32.4656091,7.53906804 C32.5346877,7.3916327 32.5292697,7.33702703 32.3816312,7.24556251 C31.3224252,6.58892923 30.1860137,6.46879674 28.9900051,6.72953885 C28.8870643,6.75274626 28.7678699,6.84421077 28.7299443,6.63124863 C28.5552159,5.63469498 28.0215495,4.84018237 27.302319,4.15897652 C27.0639299,3.93236294 26.8309588,3.69892367 26.534327,3.54466262 C26.2688483,3.80130932 26.0236867,4.08116342 25.8828205,4.42654435 C25.3193554,5.80533773 25.3193554,7.16228886 26.0900565,8.47009486 C26.1794523,8.62162562 26.1388178,8.66940559 26.0101419,8.73220211 C25.6728755,8.90147972 25.323419,9.03662878 24.9644809,9.15130071 C23.9824804,9.46528336 22.9693271,9.41340796 21.9602369,9.42296396 C21.7570645,9.42432911 21.6961128,9.37381885 21.7001761,9.16358699 C21.7123666,8.33904124 21.6920492,7.51449548 21.7123666,6.69131487 C21.7191389,6.43330304 21.6351611,6.3896185 21.4035443,6.39371393 C20.6599331,6.40736534 19.9149673,6.40053964 19.171356,6.39780936 C18.7243764,6.39644421 18.7866827,6.44968475 18.7853283,6.0223953 C18.7826193,4.26272731 18.7826193,2.50442445 18.7880373,0.744756448 C18.7880373,0.563192565 18.7582386,0.486744615 18.5510026,0.488109758 C17.5324312,0.499030893 16.5125053,0.499030893 15.491225,0.488109758 C15.2921159,0.486744615 15.2487725,0.553636571 15.2514814,0.742026164 C15.2609628,1.54745993 15.244709,2.35289369 15.2623173,3.15832746 C15.2677352,3.40678329 15.1973021,3.46138897 14.9575586,3.46138897 C13.1926669,3.44910268 11.4304842,3.45729354 9.66694698,3.44910268 C9.44481173,3.44773756 9.39605034,3.51462951 9.3987593,3.72759166 C9.41094964,4.54121627 9.3987593,5.35620603 9.40959516,6.17256092 C9.41094964,6.35275967 9.36083376,6.4060002 9.17933301,6.40463505 C8.37070651,6.39371393 7.56208001,6.40463505 6.75345351,6.39371393 C6.54621756,6.39098364 6.47172098,6.43466818 6.47578443,6.6626469 C6.49068376,7.5049395 6.47578443,8.34723208 6.48391134,9.19088982 C6.48662031,9.37108857 6.43785891,9.42705939 6.25635814,9.42296396 C5.56692617,9.41204282 4.87884867,9.42159882 4.19077118,9.41613825 C4.05396838,9.41613825 3.96863593,9.42842452 3.9550911,9.59770212 C3.90903867,10.2079206 3.86840418,10.8154088 3.9225835,11.4269924 C3.95102765,11.7478007 3.95238213,11.7478007 3.62730616,11.6822739 C2.98663558,11.5525854 2.40691674,11.3027644 1.93149312,10.8140436 C1.89221311,11.2863827 1.76218271,11.4788678 1.34635635,11.6877345 C0.919694129,11.9061572 0.44968844,11.9935263 0,12.1505176 C1.25018804,12.1505176 2.4990216,12.1559782 3.74785517,12.145057 C3.96050904,12.1436919 4.02281526,12.2146793 4.05803183,12.4126249 C4.29642089,13.7299869 4.83821418,14.9094695 5.69289311,15.9374214 C7.37651579,17.9673876 9.60193178,18.9107006 12.1551327,19.1400446 C14.1353872,19.317513 16.096679,19.1291235 18.0268176,18.6472282 C21.7787362,17.7080106 24.7585995,15.6630279 26.8255408,12.3334466 C26.9162912,12.1873765 27.0151685,12.1464222 27.1804154,12.1491525 C28.8139223,12.154613 30.4501381,12.1532479 32.0849992,12.1532479 L32.3640228,12.1532479 C32.0538462,12.0372108 31.739606,11.9744143 31.4416198,11.8665681 C30.9472334,11.6863693 30.4162759,11.5225523 30.4338843,10.8249648 C30.2686372,10.9587487 30.1331889,11.087072 29.9801323,11.1880925 C29.1728604,11.7191328 28.26942,11.8037716 27.3375355,11.7573567 C27.1722885,11.7491659 27.215632,11.6809088 27.2616844,11.586714 C27.454021,11.1990137 27.6897011,10.8235996 27.8224406,10.4154222 L27.823795,10.4126919 L27.823795,10.4126919 Z M18.6674883,7.06126835 C18.6674883,6.90973758 18.7311489,6.8742439 18.8652428,6.8742439 C19.5898912,6.87833933 20.3145399,6.87833933 21.0405429,6.8742439 C21.1814091,6.8742439 21.2382974,6.9261193 21.2382974,7.06945921 C21.2355885,7.81073129 21.2355885,8.55063824 21.2382974,9.29054518 C21.2382974,9.4407108 21.1651553,9.47893477 21.032416,9.47620449 C20.6721234,9.47210908 20.3145399,9.47483936 19.9569562,9.47483936 C19.5980182,9.47483936 19.2404347,9.47074393 18.8814966,9.47620449 C18.7406302,9.47893477 18.6620703,9.45163195 18.6634247,9.2809892 C18.6729062,8.53971709 18.6715516,7.79981015 18.6674883,7.06126835 L18.6674883,7.06126835 L18.6674883,7.06126835 Z M18.3207405,6.31453569 C18.3207405,6.47016188 18.2584342,6.52476755 18.1080867,6.52476755 C17.3820837,6.52067214 16.6574351,6.51794185 15.931432,6.52476755 C15.7607671,6.52749783 15.7377409,6.44695447 15.7390954,6.30361456 C15.7458678,5.94321708 15.7418044,5.5828196 15.7418044,5.22242212 C15.7418044,4.86202464 15.7472223,4.50026202 15.7390954,4.13986454 C15.735032,3.98696863 15.7783754,3.92826753 15.9395589,3.92963266 C16.6547261,3.93645837 17.3726022,3.93645837 18.0891239,3.92963266 C18.2489529,3.92826753 18.3207405,3.97468236 18.3207405,4.14805538 C18.3139681,4.87021548 18.3139681,5.59237558 18.3207405,6.31453569 L18.3207405,6.31453569 Z M15.7418044,2.26825489 C15.7418044,1.91604826 15.7485768,1.56520677 15.7390954,1.21436529 C15.735032,1.05464368 15.7675395,0.983656292 15.9476858,0.986386576 C16.662853,0.99594257 17.3793747,0.994577429 18.0945419,0.986386576 C18.2665611,0.985021435 18.3180315,1.04781797 18.3166771,1.21300014 C18.3112592,1.92560425 18.3112592,2.63820836 18.3166771,3.35081248 C18.3180315,3.51599465 18.2679157,3.58152146 18.0972508,3.58015632 C17.3820837,3.57333061 16.665562,3.57196546 15.9490403,3.58015632 C15.771603,3.58152146 15.732323,3.51326437 15.7377409,3.3521776 C15.7472223,2.99178014 15.7418044,2.63001752 15.7418044,2.26825489 L15.7418044,2.26825489 L15.7418044,2.26825489 Z M15.7390954,7.10085746 C15.7377409,6.93977071 15.771603,6.87287876 15.9503948,6.8742439 C16.665562,6.88243474 17.3820837,6.88243474 18.0972508,6.87560904 C18.2679157,6.8742439 18.3180315,6.93840557 18.3166771,7.10358774 C18.3112592,7.81482672 18.3099046,8.52606568 18.3166771,9.24003493 C18.3180315,9.41750339 18.2638521,9.48712563 18.0796424,9.48029992 C17.7234134,9.46801365 17.3644753,9.47756963 17.0068917,9.47756963 C16.6574351,9.47756963 16.3079784,9.47074393 15.9598762,9.48029992 C15.8014016,9.48439534 15.732323,9.44753652 15.735032,9.26733777 C15.7458678,8.54654281 15.7431589,7.82574785 15.7377409,7.10495289 L15.7390954,7.10085746 L15.7390954,7.10085746 Z M13.0301289,3.9309978 C13.7358147,3.93918866 14.4415005,3.93918866 15.1471862,3.9309978 C15.3164966,3.92963266 15.3733849,3.9828732 15.3666125,4.1521508 C15.3557767,4.51254828 15.3625491,4.87294577 15.3625491,5.2319781 C15.3625491,5.59237558 15.3571311,5.95277306 15.3666125,6.31317054 C15.3693215,6.46606645 15.323269,6.52476755 15.1647945,6.52476755 C14.4509818,6.51794185 13.7344602,6.51794185 13.0206475,6.52476755 C12.8635275,6.52476755 12.817475,6.47289217 12.8188295,6.31726597 C12.8256019,5.59647101 12.8269564,4.87567605 12.8188295,4.15624623 C12.8161205,3.98969891 12.856755,3.92690239 13.0301289,3.9309978 L13.0301289,3.9309978 L13.0301289,3.9309978 Z M15.3625491,8.20252704 C15.3625491,8.56292452 15.3584856,8.92332201 15.365258,9.28508461 C15.367967,9.42705939 15.3178511,9.47893477 15.1742759,9.47756963 C14.4482729,9.47210908 13.7236243,9.47347422 12.9989758,9.47620449 C12.8702999,9.47756963 12.8188295,9.43525023 12.820184,9.30146633 C12.8242474,8.55200338 12.8242474,7.80254044 12.820184,7.05307749 C12.8188295,6.92202387 12.8635275,6.87287876 12.9962668,6.8742439 C13.7209154,6.87833933 14.4455639,6.87970447 15.1702124,6.87287876 C15.3381684,6.87014847 15.367967,6.94659643 15.365258,7.08993633 C15.3584856,7.4598898 15.3625491,7.82984328 15.3625491,8.19979676 L15.3625491,8.20252704 L15.3625491,8.20252704 Z M10.0841278,3.9309978 C10.8074219,3.93645837 11.5320704,3.93645837 12.256719,3.9309978 C12.4016487,3.92963266 12.4449921,3.98833377 12.4422832,4.12894339 C12.4382197,4.86748519 12.4382197,5.60602701 12.4422832,6.34593396 C12.4449921,6.47562243 12.3989397,6.52749783 12.2675548,6.52613269 C11.5347794,6.5234024 10.802004,6.52203726 10.0692285,6.52613269 C9.90533603,6.52613269 9.89856362,6.43739847 9.89856362,6.31453569 C9.90262706,5.95413821 9.90127258,5.59237558 9.90127258,5.23334325 C9.90127258,4.86338978 9.90533603,4.49480144 9.89856362,4.12484796 C9.89450017,3.98423834 9.93784363,3.92963266 10.0841278,3.9309978 L10.0841278,3.9309978 Z M10.1193444,6.8742439 C10.4782824,6.88379988 10.835866,6.87833933 11.1948041,6.87833933 C11.5456152,6.87833933 11.8937175,6.88379988 12.2418196,6.87560904 C12.4002942,6.87151362 12.4463466,6.93021473 12.4436377,7.08447576 C12.4368652,7.81619186 12.4368652,8.54654281 12.4436377,9.27825891 C12.4463466,9.44344109 12.3786224,9.47893477 12.2323383,9.47756963 C11.525298,9.47210908 10.8169033,9.47074393 10.109863,9.47893477 C9.93648915,9.48029992 9.89314569,9.42023368 9.89720914,9.2550515 C9.90262706,8.53425654 9.90533603,7.81073129 9.89450017,7.08993633 C9.89314569,6.90837244 9.95680639,6.86878333 10.1193444,6.8742439 L10.1193444,6.8742439 L10.1193444,6.8742439 Z M6.96881635,7.07491976 C6.96881635,6.90973758 7.03518602,6.8742439 7.18147022,6.8742439 C7.88851047,6.87970447 8.59555072,6.88106962 9.30259099,6.8742439 C9.47731932,6.87287876 9.51795383,6.93431014 9.51659935,7.09949232 C9.50982692,7.82165242 9.50711796,8.54244738 9.51659935,9.26324234 C9.5193083,9.4407108 9.45293862,9.4830302 9.2931096,9.47893477 C8.94365293,9.46937879 8.59419624,9.47620449 8.24744853,9.47620449 C7.90070081,9.47620449 7.54853517,9.47074393 7.20178746,9.47756963 C7.04737636,9.48029992 6.96881635,9.45026681 6.9715253,9.26733777 C6.9796522,8.53698683 6.97829772,7.80527072 6.9715253,7.0762849 L6.96881635,7.0762849 L6.96881635,7.07491976 Z M26.240404,12.3607495 C25.598379,13.3231746 24.8710216,14.2146123 24.014988,14.9859175 C22.9706815,15.9305957 21.8017625,16.6855192 20.5217757,17.2643394 C19.1700015,17.8772881 17.753212,18.2649886 16.2876611,18.4861416 C15.5738484,18.5939878 14.8519089,18.6390374 14.1313238,18.6854523 L14.1313238,18.6854523 C12.3366335,18.75917 10.5825777,18.5857969 8.91791775,17.8295082 C7.93727187,17.3817416 7.09207431,16.7414901 6.32001887,15.9933923 C6.28480229,15.9592637 6.23062297,15.9292306 6.23333193,15.8350358 C7.1259364,15.8923718 8.0158319,15.8814506 8.90708187,15.8295752 C9.59515936,15.7681438 10.2737555,15.6671233 10.9428702,15.4923852 L10.9428702,15.4923852 L10.9428702,15.4923852 C11.0282026,15.462352 11.1162441,15.4336841 11.2015765,15.4036509 C11.3397338,15.355871 11.4264207,15.2685019 11.3803683,15.1142408 C11.3356703,14.9558844 11.2124124,14.9395027 11.0715461,14.9831872 C10.5148535,15.1661162 9.94461605,15.2739624 9.35947928,15.3299333 C8.8976005,15.3736178 8.43436722,15.4391446 7.96977947,15.4173024 C7.3115006,15.4391446 6.65322175,15.4227629 5.99629736,15.3763481 C5.89471113,15.3695224 5.8310504,15.3326636 5.77280763,15.250755 C5.1443274,14.3593173 4.72443759,13.3805105 4.53074649,12.3020484 C4.5050113,12.154613 4.56460856,12.1491525 4.67025826,12.1491525 C5.03596874,12.1532479 5.40167921,12.154613 5.76738969,12.1573433 C5.85001316,12.1559782 5.93128217,12.1491525 6.01526014,12.1491525 L23.4284968,12.1491525 C23.5111203,12.1491525 23.5923893,12.154613 23.6763673,12.1573433 C24.4931207,12.1559782 25.3098741,12.1559782 26.1266275,12.1464222 C26.3298,12.145057 26.3460538,12.2037582 26.240404,12.3621146 L26.240404,12.3607495 L26.240404,12.3607495 Z M26.7727161,11.4747723 C26.691447,11.6222077 26.6142415,11.6604317 26.44764,11.6112865 C26.0846386,11.5089009 25.7229915,11.4078804 25.4141693,11.1799017 C25.3058106,11.1007234 25.2584037,11.1212006 25.1676534,11.2072045 C24.9685443,11.3983244 24.7301552,11.538934 24.4497772,11.5880791 C23.8389053,11.8215184 23.1955257,11.8542818 22.5562096,11.8570121 C21.7936356,11.8597424 21.0364794,11.7846596 20.2955771,11.5894443 C19.8282803,11.4652164 19.3420209,11.3628307 19.0142359,10.9505578 C18.9397393,10.8590933 18.9072317,10.942367 18.8679518,10.9778607 C17.9929555,11.7614521 16.9256227,11.8815846 15.8244279,11.836535 C15.2067835,11.8119624 14.6094564,11.6727179 14.0527638,11.3833078 C13.8211471,11.2645405 13.6382919,10.9942424 13.428347,10.9560184 C13.2441372,10.9218898 13.0599275,11.2440634 12.820184,11.3423536 C12.2038941,11.6017305 11.5537422,11.7191328 10.8995267,11.7955807 C10.0218216,11.8938709 9.14276196,11.8925058 8.27318372,11.7013859 C7.86548425,11.6112865 7.46862067,11.4911541 7.16792537,11.1812668 C7.07175706,11.0816115 7.02164118,11.1362171 6.9403722,11.1867274 C6.54757204,11.4351832 6.1222643,11.5949048 5.65767656,11.6454151 C5.31228332,11.7587219 4.95334526,11.7559916 4.59847065,11.7641824 C4.50094785,11.7669127 4.45354094,11.7327842 4.43593266,11.624938 C4.35872711,11.1102794 4.39529817,10.5928906 4.40613402,10.0755018 C4.41019747,9.93898762 4.4968844,9.91441506 4.61201547,9.91714535 C4.9249011,9.92397106 5.23643225,9.92397106 5.5479634,9.92670135 C5.66715793,9.92397106 5.78635246,9.91851049 5.90554698,9.91851049 C11.5903132,9.91851049 17.2750794,9.91987564 22.9598456,9.91578021 C23.9391371,9.91578021 24.8940477,9.76288432 25.8042604,9.37108857 C26.1510082,9.22092294 26.481502,9.04072421 26.7862609,8.81547578 C26.845858,8.77179124 26.9650526,8.73220211 26.8377311,8.61070449 C26.3501171,8.14519107 26.1117281,7.54725889 26.0277502,6.8906256 C25.9221005,6.04969814 25.9952426,5.22788267 26.4151324,4.46886374 C26.5790249,4.17126279 26.5885062,4.16989765 26.8363767,4.38968551 C27.5989507,5.07089136 28.1651248,5.86813427 28.2816103,6.92338901 C28.2978641,7.06945921 28.2965097,7.21825968 28.2924462,7.36706014 C28.2897372,7.43122183 28.2924462,7.47490637 28.3682973,7.4790018 C29.4681376,6.9779947 30.5720415,6.94386614 31.6894902,7.42166583 C31.910271,7.51586062 31.8940172,7.61415085 31.7815951,7.78888902 C31.2343838,8.6502936 30.4203394,9.08167847 29.4518838,9.25232122 C28.9940685,9.33422972 28.5294808,9.39975655 28.0608296,9.31784803 C27.8522392,9.2809892 27.7371081,9.34515087 27.6571935,9.56630387 C27.4188044,10.2256674 27.1126913,10.8536327 26.7767794,11.4706769 L26.7767794,11.4747723 L26.7727161,11.4747723 Z" id="Shape"></path>
                    <path d="M7.20043345,9.04618477 C7.20178832,9.11307674 7.1774008,9.21273209 7.29391892,9.20181096 C7.3833398,9.19498525 7.36843632,9.10898131 7.36843632,9.04891505 C7.37114605,8.46872971 7.37114605,7.88717925 7.36843632,7.30699391 C7.36843632,7.23873681 7.38604952,7.14044659 7.27359599,7.15136771 C7.18146539,7.15819343 7.20043345,7.24419736 7.20043345,7.30426362 C7.19772373,7.58957829 7.19907859,7.8762581 7.19907859,8.16157277 C7.19907859,8.4550783 7.19772373,8.74994897 7.20043345,9.04618477 L7.20043345,9.04618477 Z" id="Shape"></path>
                    <path d="M8.35174411,9.0502802 C8.35174411,9.11034645 8.33684064,9.1936201 8.4303261,9.20044582 C8.5441345,9.20863668 8.52516643,9.11307674 8.52787616,9.04481962 C8.52923102,8.46326916 8.52923102,7.88171867 8.52787616,7.29880305 C8.52787616,7.23873681 8.54142479,7.15546314 8.44929417,7.14863743 C8.33548577,7.14044659 8.35174411,7.23600652 8.35174411,7.30426362 C8.35038927,7.59094343 8.35038927,7.8762581 8.35038927,8.16293792 C8.35038927,8.45780859 8.35038927,8.7540444 8.35174411,9.0502802 L8.35174411,9.0502802 L8.35174411,9.0502802 Z" id="Shape"></path>
                    <path d="M7.66504496,9.20454125 C7.75717556,9.20727153 7.75311099,9.12672815 7.75311099,9.06256648 C7.75582072,8.76769581 7.75446586,8.47146 7.75446586,8.17658935 C7.75446586,7.88171867 7.75582072,7.58548286 7.75311099,7.29061219 C7.75311099,7.22781567 7.75853043,7.14863743 7.66775469,7.14727228 C7.57562408,7.14590716 7.57833381,7.22508538 7.57833381,7.28788192 L7.57833381,9.0598362 C7.57968867,9.12263272 7.57562408,9.20181096 7.66504496,9.20454125 L7.66504496,9.20454125 Z" id="Shape"></path>
                    <path d="M13.9132818,7.11587403 C13.7791505,7.10904832 13.813022,7.22372024 13.8116671,7.29743791 C13.8089574,7.88035353 13.8089574,8.46326916 13.8116671,9.04754991 C13.8116671,9.12126758 13.773731,9.23457437 13.9065075,9.2359395 C14.0230256,9.23730464 14.0216707,9.13764929 14.0216707,9.05437563 C14.0230256,8.76769581 14.0216707,8.481016 14.0216707,8.19433619 C14.0216707,7.89810037 14.0230256,7.60186458 14.0216707,7.30562876 C14.0216707,7.22235509 14.0270902,7.12269973 13.9132818,7.11587403 L13.9132818,7.11587403 L13.9132818,7.11587403 Z" id="Shape"></path>
                    <path d="M8.05242746,9.20454125 C8.14184834,9.20454125 8.13913861,9.12536301 8.13913861,9.06256648 C8.14049347,8.77588667 8.14049347,8.490572 8.14049347,8.20389217 C8.14049347,7.89810037 8.14184834,7.59367372 8.13913861,7.28924707 C8.13913861,7.22508538 8.1432032,7.14590716 8.05242746,7.14590716 C7.96029685,7.14590716 7.9657163,7.22508538 7.9657163,7.28788192 C7.96436144,7.87898839 7.96436144,8.47009486 7.9657163,9.0598362 C7.9657163,9.12399786 7.96029685,9.20181096 8.05242746,9.20454125 L8.05242746,9.20454125 L8.05242746,9.20454125 Z" id="Shape"></path>
                    <path d="M15.0564618,7.14727228 C14.9440083,7.14727228 14.967041,7.24419736 14.9656861,7.31245448 C14.9616215,7.59913429 14.9643312,7.8858141 14.9643312,8.17112877 C14.9643312,8.46736457 14.9629764,8.76360038 14.9656861,9.05710591 C14.9656861,9.11990244 14.9575569,9.19908067 15.0496875,9.2031761 C15.143173,9.20727153 15.1404633,9.12809329 15.1404633,9.06529677 L15.1404633,7.29197733 C15.1404633,7.23054595 15.1472376,7.14727228 15.0564618,7.14727228 L15.0564618,7.14727228 L15.0564618,7.14727228 Z" id="Shape"></path>
                    <path d="M20.5272227,9.23730464 C20.6247729,9.23457437 20.6342568,9.15130071 20.6342568,9.07485275 C20.6369665,8.47282514 20.6369665,7.87216267 20.6342568,7.27013506 C20.6342568,7.19095684 20.6166437,7.11450889 20.5190936,7.11450889 C20.4052852,7.11450889 20.4269631,7.20733854 20.4269631,7.27832592 C20.4242533,7.57456174 20.4256081,7.87079753 20.4256081,8.1656682 C20.4256081,8.46190402 20.4228984,8.75813981 20.4269631,9.05437563 C20.4269631,9.12945844 20.3930914,9.24140007 20.5272227,9.23730464 L20.5272227,9.23730464 Z" id="Shape"></path>
                    <path d="M12.1307763,6.26129515 C12.2229069,6.26129515 12.2134228,6.1780215 12.2134228,6.11795524 C12.2147777,5.81352859 12.2147777,5.51046708 12.2147777,5.20740555 C12.2147777,4.90434404 12.2147777,4.59991738 12.2134228,4.29685585 C12.2134228,4.24225017 12.2174874,4.1780885 12.14297,4.16989765 C12.0481297,4.15897652 12.0440651,4.23132904 12.0440651,4.298221 L12.0440651,6.12068553 C12.0440651,6.18211692 12.0400005,6.26129515 12.1307763,6.26129515 L12.1307763,6.26129515 L12.1307763,6.26129515 Z" id="Shape"></path>
                    <path d="M14.7937271,7.31791503 C14.7937271,7.22781567 14.804566,7.11314375 14.6704347,7.11587403 C14.5457874,7.11723917 14.5796589,7.2319111 14.5796589,7.30699391 C14.5769492,7.88717925 14.5769492,8.46872971 14.5796589,9.04754991 C14.5796589,9.12263272 14.5484971,9.2359395 14.6758541,9.2359395 C14.8099854,9.2359395 14.7937271,9.12126758 14.7937271,9.03116821 C14.7964368,8.74585354 14.7964368,8.46053887 14.7964368,8.17385906 C14.7964368,7.88717925 14.7964368,7.6032297 14.7937271,7.31791503 L14.7937271,7.31791503 L14.7937271,7.31791503 Z" id="Shape"></path>
                    <path d="M12.042711,8.16157277 C12.042711,8.45644344 12.0400012,8.74994897 12.0440658,9.04481962 C12.0440658,9.11171159 12.0210331,9.21000182 12.1334867,9.20727153 C12.2269722,9.20590639 12.2134235,9.11990244 12.2134235,9.06120134 C12.2147784,8.47282514 12.2147784,7.88308382 12.2134235,7.29470762 C12.2134235,7.23600652 12.2310367,7.15136771 12.1361964,7.14590716 C12.022388,7.14044659 12.0440658,7.23873681 12.042711,7.30699391 C12.0400012,7.59230858 12.042711,7.87762325 12.042711,8.16157277 L12.042711,8.16157277 L12.042711,8.16157277 Z" id="Shape"></path>
                    <path d="M11.658038,6.12068553 C11.658038,6.18484721 11.6553283,6.26266029 11.746104,6.26129515 C11.8368798,6.25993 11.8314603,6.18075178 11.8314603,6.11795524 C11.8328152,5.82308459 11.8328152,5.52821392 11.8328152,5.2319781 C11.8328152,4.92755145 11.8328152,4.62448994 11.8314603,4.32006327 C11.8314603,4.25863189 11.8463638,4.17672336 11.7542332,4.16989765 C11.6417796,4.15761138 11.658038,4.25317131 11.6566831,4.32279355 C11.6553283,4.92209088 11.6553283,5.5213882 11.658038,6.12068553 L11.658038,6.12068553 L11.658038,6.12068553 Z" id="Shape"></path>
                    <path d="M14.2884701,7.11587403 C14.1584034,7.12269973 14.2017589,7.23600652 14.2004041,7.30972419 C14.1963395,7.596404 14.1976943,7.88308382 14.1976943,8.16976363 C14.1976943,8.46599944 14.1963395,8.76223524 14.1990492,9.05847105 C14.2004041,9.13355386 14.1692422,9.2454955 14.3047284,9.2359395 C14.3995688,9.2291138 14.4090528,9.14720528 14.4090528,9.06939218 L14.4090528,7.29197733 C14.4090528,7.20733854 14.4036334,7.10904832 14.2884701,7.11587403 L14.2884701,7.11587403 Z" id="Shape"></path>
                    <path d="M20.894282,9.23730464 C21.0094453,9.2454955 21.0216391,9.15403099 21.0216391,9.06529677 C21.0229939,8.76906096 21.0216391,8.47282514 21.0216391,8.17795449 L21.0216391,7.28924707 C21.0216391,7.20187797 21.0135099,7.10904832 20.8983467,7.11450889 C20.7886029,7.11996946 20.8129904,7.21825968 20.8129904,7.28515164 C20.8102807,7.87762325 20.8102807,8.47009486 20.8129904,9.06256648 C20.8129904,9.13218872 20.7886029,9.2291138 20.894282,9.23730464 L20.894282,9.23730464 Z" id="Shape"></path>
                    <path d="M10.2047013,6.29269342 C10.3008965,6.29815399 10.3266389,6.22580146 10.3266389,6.14525808 C10.3279938,5.53640477 10.3279938,4.92618631 10.3266389,4.31869812 C10.3266389,4.24225017 10.3130903,4.16307195 10.2128305,4.16307195 C10.0976672,4.16307195 10.119345,4.2559016 10.119345,4.3241587 C10.1166353,4.61766422 10.1179902,4.91390002 10.1179902,5.21013583 C10.1179902,5.51592763 10.1166353,5.8203543 10.119345,6.12478096 C10.119345,6.19167291 10.0949575,6.28723285 10.2047013,6.29269342 L10.2047013,6.29269342 L10.2047013,6.29269342 Z" id="Shape"></path>
                    <path d="M10.5866658,6.29269342 C10.7018291,6.30088428 10.7140228,6.20941977 10.7140228,6.12205067 C10.7140228,5.5213882 10.7140228,4.91936059 10.712668,4.32006327 C10.712668,4.24225017 10.6991193,4.16443709 10.5988596,4.16307195 C10.486406,4.16034166 10.4999546,4.24771074 10.4999546,4.32006327 C10.4972449,4.61493394 10.4985998,4.91116975 10.4985998,5.2060404 C10.4985998,5.51183222 10.4972449,5.81625887 10.4999546,6.12205067 C10.4999546,6.19167291 10.4796317,6.28723285 10.5866658,6.29269342 L10.5866658,6.29269342 Z" id="Shape"></path>
                    <path d="M11.2720099,6.12068553 C11.2720099,6.18484721 11.2693002,6.26266029 11.3614308,6.26129515 C11.4522065,6.25993 11.4467871,6.17938664 11.4467871,6.11795524 C11.448142,5.81216344 11.4467871,5.50910193 11.4467871,5.20467526 C11.4467871,4.90980461 11.448142,4.61356879 11.4467871,4.32006327 C11.4467871,4.25999703 11.4630454,4.17672336 11.36956,4.16989765 C11.2571064,4.15761138 11.2720099,4.25317131 11.2720099,4.32279355 C11.2706551,4.92209088 11.2706551,5.5213882 11.2720099,6.12068553 L11.2720099,6.12068553 Z" id="Shape"></path>
                    <path d="M10.9713384,6.25993 C11.0837919,6.26402543 11.0607593,6.16300492 11.063469,6.09474783 C11.0648239,5.79987717 11.063469,5.5050065 11.063469,5.21013583 C11.063469,4.91526516 11.0648239,4.62039451 11.063469,4.32552384 C11.063469,4.25726674 11.0797274,4.16170681 10.9645641,4.16853252 C10.8737884,4.17399307 10.887337,4.2559016 10.887337,4.31733298 C10.8859821,4.90707432 10.8859821,5.49818079 10.887337,6.08792213 C10.887337,6.15481408 10.8643043,6.25446945 10.9713384,6.25993 L10.9713384,6.25993 L10.9713384,6.25993 Z" id="Shape"></path>
                    <path d="M12.9867854,14.2924254 C12.980013,13.8897085 12.660355,13.5825515 12.256719,13.5921075 C11.8693368,13.6043938 11.5713504,13.9197416 11.5740594,14.3156328 C11.5781228,14.7006028 11.8977809,15.020046 12.2797452,15.0159506 C12.6833812,15.0132203 12.9922034,14.6978725 12.9867854,14.2924254 L12.9867854,14.2924254 Z M12.29329,14.8152747 C12.0142665,14.8207353 11.7853588,14.6050429 11.7745229,14.3238236 C11.7636871,14.0494301 11.9627961,13.8159908 12.2296293,13.8009743 C12.3244431,13.7955137 12.4571825,13.7490989 12.3894583,13.9593307 C12.3339245,14.1231478 12.4544735,14.2514711 12.6143025,14.1873094 C12.8025757,14.1122266 12.7795495,14.2132471 12.7836129,14.3251888 C12.778195,14.5954869 12.5628322,14.8098142 12.29329,14.8152747 L12.29329,14.8152747 Z" id="Shape"></path>
                </g>
            </g>
        </g>
    </g>
</svg>