<?xml version="1.0" encoding="UTF-8"?>
<svg width="42px" height="49px" viewBox="0 0 42 49" version="1.1" xmlns="http://www.w3.org/2000/svg" xmlns:xlink="http://www.w3.org/1999/xlink">
    <!-- Generator: Sketch 46.1 (44463) - http://www.bohemiancoding.com/sketch -->
    <title>hexagon-ruby</title>
    <desc>Created with Sketch.</desc>
    <defs></defs>
    <g id="Page-1" stroke="none" stroke-width="1" fill="none" fill-rule="evenodd">
        <g id="Hexagon---Swag,-goodies" transform="translate(-250.000000, -99.000000)">
            <g id="hexagon-ruby" transform="translate(250.000000, 99.000000)">
                <polygon id="Polygon" fill="#C7337E" points="21 0 42 12.25 42 36.75 21 49 1.86517468e-14 36.75 4.88498131e-15 12.25"></polygon>
                <path d="M8.8147447,22.4658686 L20.5092129,34.4507071 L14.9159393,22.4658686 L8.8147447,22.4658686 L8.8147447,22.4658686 Z M16.4579214,22.4658686 L21.8123293,34.3257134 L27.1667371,22.4658686 L16.4579214,22.4658686 L16.4579214,22.4658686 Z M34.4222203,22.4658686 L28.7087194,22.4658686 L23.1305931,34.4507071 L34.4222203,22.4658686 L34.4222203,22.4658686 Z M17.123462,21.0906286 L26.7265037,21.0906286 L21.9250358,16.2039027 L17.123462,21.0906286 L17.123462,21.0906286 Z M30.1825902,15.7858809 L23.1892768,15.7858809 L27.9807875,20.6625949 L30.1825902,15.7858809 L30.1825902,15.7858809 Z M13.4420683,15.7858809 L15.7147362,20.8197917 L20.6610066,15.7858809 L13.4420683,15.7858809 L13.4420683,15.7858809 Z M34.4369442,21.0906286 L31.3599711,16.593437 L29.3296644,21.0906286 L34.4369442,21.0906286 L34.4369442,21.0906286 Z M9.26133374,21.0906286 L14.294994,21.0906286 L12.3100243,16.6938654 L9.26133374,21.0906286 L9.26133374,21.0906286 Z M12.0408633,15 L31.5992606,15 L36.4384386,22.0729281 L21.7192193,37.3977087 L7,22.2694498 L12.0408633,15 L12.0408633,15 Z" id="Shape" fill="#FFFFFF" fill-rule="nonzero"></path>
            </g>
        </g>
    </g>
</svg>