<?xml version="1.0" encoding="UTF-8"?>
<svg width="42px" height="49px" viewBox="0 0 42 49" version="1.1" xmlns="http://www.w3.org/2000/svg" xmlns:xlink="http://www.w3.org/1999/xlink">
    <!-- Generator: Sketch 46.1 (44463) - http://www.bohemiancoding.com/sketch -->
    <title>hexagon-meteor</title>
    <desc>Created with Sketch.</desc>
    <defs></defs>
    <g id="Page-1" stroke="none" stroke-width="1" fill="none" fill-rule="evenodd">
        <g id="Hexagon---Swag,-goodies" transform="translate(-104.000000, -168.000000)">
            <g id="hexagon-meteor" transform="translate(104.000000, 168.000000)">
                <polygon id="Polygon" fill="#D65248" points="21 0 42 12.25 42 36.75 21 49 2.48689958e-14 36.75 1.11022302e-14 12.25"></polygon>
                <g id="meteor-logo" transform="translate(6.000000, 10.000000)" fill-rule="nonzero" fill="#FFFFFF">
                    <path d="M0.185185186,0.185185186 L25.5768503,27.0811072 C25.5768503,27.0811072 26.4418978,27.6912226 27.1034041,26.9794218 C27.7649103,26.2676199 27.2560591,25.5558191 27.2560591,25.5558191 L0.185185186,0.185185186 L0.185185186,0.185185186 Z" id="path8"></path>
                    <path d="M8.22503116,2.72733282 L27.5613692,23.5729442 C27.5613692,23.5729442 28.4264166,24.1830585 29.0879229,23.4712577 C29.7494292,22.7594558 29.240578,22.047655 29.240578,22.047655 L8.22503116,2.72733282 L8.22503116,2.72733282 Z" id="path10"></path>
                    <path d="M2.57678497,8.16752881 L21.9131238,29.01314 C21.9131238,29.01314 22.7781701,29.6232554 23.4396764,28.9114535 C24.1011827,28.1996527 23.5923314,27.4878508 23.5923314,27.4878508 L2.57678497,8.16752881 L2.57678497,8.16752881 Z" id="path12"></path>
                    <path d="M15.0216773,4.91357977 L28.5308214,19.4771638 C28.5308214,19.4771638 29.1351789,19.9034145 29.5973334,19.406122 C30.0594878,18.9088284 29.7039842,18.4115347 29.7039842,18.4115347 L15.0216773,4.91357977 L15.0216773,4.91357977 Z" id="path14"></path>
                    <path d="M4.43757588,14.4720546 L17.9467208,29.035638 C17.9467208,29.035638 18.5510771,29.4618898 19.0132328,28.9645962 C19.4753872,28.4673037 19.1198836,27.97001 19.1198836,27.97001 L4.43757588,14.4720546 L4.43757588,14.4720546 Z" id="path16"></path>
                    <path d="M21.9640088,8.06584291 L28.0868073,14.6865977 C28.0868073,14.6865977 28.3857632,14.8863277 28.6143768,14.653309 C28.8429892,14.4202902 28.6671331,14.1872703 28.6671331,14.1872703 L21.9640088,8.06584291 L21.9640088,8.06584291 Z" id="path18"></path>
                    <path d="M7.81795039,21.1833245 L13.9407502,27.8040792 C13.9407502,27.8040792 14.2397049,28.0038092 14.4683185,27.7707905 C14.6969309,27.5377717 14.5210749,27.3047529 14.5210749,27.3047529 L7.81795039,21.1833245 L7.81795039,21.1833245 Z" id="path20"></path>
                </g>
            </g>
        </g>
    </g>
</svg>