<svg xmlns="http://www.w3.org/2000/svg" width="2846" height="3284" viewBox="0 0 2846 3284">
  <g fill="none" fill-rule="evenodd">
    <polygon fill="#FC9C04" points="1423 0 2846 820.835 2846 2462.505 1423 3283.34 0 2462.505 0 820.835"/>
    <g stroke="#FFF" stroke-linecap="round" stroke-width="58" transform="translate(192 411)">
      <path d="M310.776105,1761.99146 C44.2522817,1300.36229 161.145006,712.690385 584.036105,388.191457 C1006.92635,63.7031762 1604.81844,102.89148 1981.7361,479.802457 C2358.64739,856.719857 2397.83612,1454.61196 2073.3481,1877.50246 C1748.85205,2300.39701 1161.17967,2417.29411 699.548105,2150.77246" transform="rotate(10 1230.62 1230.922)"/>
      <path d="M369.139641,1727.55746 C119.630141,1295.39668 229.062693,745.239518 624.959641,441.457462 C1020.85789,137.667498 1580.60003,174.354243 1933.45964,527.219462 C2286.32486,880.07907 2323.01161,1439.82121 2019.22164,1835.71946 C1715.43958,2231.61641 1165.28242,2341.04896 733.121641,2091.53946" transform="rotate(-5 1230.284 1230.395)"/>
      <path d="M429.918932,1692.70763 C198.111468,1291.22953 299.772511,780.122377 667.568932,497.907632 C1035.35769,215.680708 1555.36325,249.762547 1883.16893,577.579632 C2210.98602,905.385316 2245.06786,1425.39087 1962.84093,1793.17963 C1680.62619,2160.97605 1169.51904,2262.6371 768.040932,2030.82963" transform="rotate(-20 1229.918 1230.831)"/>
    </g>
    <path fill="#FFF" d="M905.589592,1107.74734 C934.910132,1116.45594 957.997445,1141.16513 967.585239,1174.09524 C982.477659,1225.23212 1166.73508,1778.54154 1168.87086,1778.51832 C1170.11287,1778.50671 1185.6437,1743.46331 1203.39156,1700.64024 C1300.90615,1465.34556 1345.7111,1359.05423 1353.37204,1344.92308 C1381.72916,1292.53216 1460.5905,1285.91363 1495.97016,1332.95166 C1506.12672,1346.4674 1542.21443,1433.36759 1635.45746,1668.94094 C1658.30102,1726.6383 1678.04537,1773.90857 1679.35702,1773.98985 C1681.43476,1774.11757 1844.79869,1282.9527 1875.81393,1183.32635 C1906.46933,1084.84954 2017.90131,1073.63287 2056.13641,1165.17764 C2068.47518,1194.72881 2065.07418,1206.96729 1948.30275,1553.27917 C1759.57644,2112.95166 1774.32957,2077.04902 1727.69064,2090.11192 C1660.81985,2108.84121 1641.22639,2088.18441 1569.37598,1923.23198 C1482.98137,1724.90819 1428.60024,1604.78761 1424.56083,1603.33618 C1421.18305,1602.12859 1307.51082,1850.93901 1244.45889,1997.56856 C1211.08733,2075.17958 1178.74884,2102.01367 1129.68395,2092.80578 C1082.88252,2084.02751 1074.75727,2071.61486 1029.02373,1939.04679 C897.220586,1557.02967 784.964472,1215.93134 784.964472,1197.46912 C784.964472,1152.01024 813.797497,1116.29338 859.484609,1105.1696 C879.519151,1100.29279 880.714723,1100.35084 905.589592,1107.74734"/>
  </g>
</svg>
