<?xml version="1.0" encoding="UTF-8"?>
<svg width="42px" height="49px" viewBox="0 0 42 49" version="1.1" xmlns="http://www.w3.org/2000/svg" xmlns:xlink="http://www.w3.org/1999/xlink">
    <!-- Generator: Sketch 46.1 (44463) - http://www.bohemiancoding.com/sketch -->
    <title>hexagon-mongodb</title>
    <desc>Created with Sketch.</desc>
    <defs>
        <path d="M7.76945273,29.9525368 L6.9947384,29.6870775 C6.9947384,29.6870775 7.08935062,25.7275657 5.67180567,25.4434236 C4.72711701,24.3444261 5.82334905,-21.163475 9.22488352,25.2917032 C9.22488352,25.2917032 8.05308459,25.8788755 7.84522441,26.8832274 C7.61831892,27.868486 7.76945273,29.9525368 7.76945273,29.9525368 L7.76945273,29.9525368 Z" id="path-1"></path>
    </defs>
    <g id="Page-1" stroke="none" stroke-width="1" fill="none" fill-rule="evenodd">
        <g id="Hexagon---Swag,-goodies" transform="translate(-403.000000, -247.000000)">
            <g id="hexagon-mongodb" transform="translate(403.000000, 247.000000)">
                <polygon id="Polygon" fill="#58AA50" points="21 0 42 12.25 42 36.75 21 49 2.17603713e-14 36.75 7.99360578e-15 12.25"></polygon>
                <g id="Group-10" transform="translate(14.000000, 9.000000)" fill-rule="nonzero">
                    <g id="Shape">
                        <use fill="#FFFFFF" fill-rule="evenodd" xlink:href="#path-1"></use>
                        <path stroke="#FFFFFF" stroke-width="1" d="M7.28722254,27.1788851 C7.30579389,27.0322215 7.32847838,26.8994719 7.35560032,26.7818951 C7.46290648,26.2634064 7.76021408,25.8140102 8.18034824,25.4264036 C8.36150102,25.259276 8.54181061,25.123014 8.70339375,25.0174046 C7.92125476,14.3979695 7.21919917,8.07633738 6.61698059,5.68467328 C6.608892,5.65255009 6.60083741,5.62126623 6.59283082,5.59083351 C6.49591305,6.07362824 6.40100768,6.74995979 6.3159388,7.5853983 C6.04631789,10.2332728 5.87512197,14.4167055 5.85008302,18.4264405 C5.82984082,21.6680255 5.93745088,24.4968579 6.02702394,25.030255 C6.68993194,25.3012532 7.06959841,26.0677473 7.28722254,27.1788851 Z M7.49531492,29.3300637 C7.49671894,29.4418918 7.49666807,29.5500704 7.49535439,29.653783 C7.49481951,29.6894614 7.49481951,29.6894614 7.49459572,29.6990215 L7.15681478,29.2140751 L7.93152911,29.4795345 L7.27076232,29.9887015 C7.26430093,29.8996025 7.25479449,29.7438774 7.24533367,29.539863 C7.24207183,29.4695243 7.23908619,29.3989708 7.23640053,29.328335 C7.23528461,29.2989851 7.23422048,29.269621 7.23320984,29.2402522 C7.22057234,28.8730087 7.21629992,28.5050332 7.22372893,28.1549298 C7.2315732,27.7852572 7.25200024,27.4570464 7.28722254,27.1788851 C7.30617612,27.2756576 7.32390056,27.3750443 7.34047595,27.4769455 C7.44472054,28.1178146 7.48828012,28.7697506 7.49531492,29.3300637 Z"></path>
                    </g>
                    <path d="M8.08235834,26.0570783 C8.08235834,26.0570783 14.8301327,21.5949578 13.2510354,12.3115591 C11.7287636,5.56213839 8.1387765,3.35002973 7.74405308,2.49915566 C7.31185334,1.89413975 6.89818809,0.835515548 6.89818809,0.835515548 L7.18027887,19.6096533 C7.18027887,19.6287073 6.59756283,25.357407 8.08256202,26.0572831" id="Shape" fill="#FFFFFF"></path>
                    <path d="M6.52390373,26.3494272 C6.52390373,26.3494272 0.239681333,21.9891884 0.612693376,14.3116757 C0.966913372,6.63395771 5.4048676,2.86145239 6.26263365,2.17901595 C6.82215172,1.57238296 6.8407417,1.3447672 6.87812373,0.738134206 C7.26972576,1.59128246 7.19516376,13.4965319 7.25093371,14.8992038 C7.41864768,20.3019968 6.95268573,25.3259779 6.52390373,26.3494272 Z" id="Shape" fill="#FFFFFF"></path>
                </g>
            </g>
        </g>
    </g>
</svg>