<?xml version="1.0" encoding="UTF-8"?>
<svg width="42px" height="49px" viewBox="0 0 42 49" version="1.1" xmlns="http://www.w3.org/2000/svg" xmlns:xlink="http://www.w3.org/1999/xlink">
    <!-- Generator: Sketch 46.1 (44463) - http://www.bohemiancoding.com/sketch -->
    <title>hexagon-python</title>
    <desc>Created with Sketch.</desc>
    <defs></defs>
    <g id="Page-1" stroke="none" stroke-width="1" fill="none" fill-rule="evenodd">
        <g id="Hexagon---Swag,-goodies" transform="translate(-696.000000, -30.000000)">
            <g id="hexagon-python" transform="translate(696.000000, 30.000000)">
                <polygon id="Polygon" fill="#6193BD" points="21 0 42 12.25 42 36.75 21 49 1.59872116e-14 36.75 2.22044605e-15 12.25"></polygon>
                <g id="Group-5" transform="translate(10.000000, 13.000000)" fill-rule="nonzero" fill="#FFFFFF">
                    <path d="M8.25332745,1.76074513 C8.8124753,1.76074513 9.26918973,2.21970981 9.26918973,2.78408402 C9.26918973,3.34655381 8.81237903,3.80142399 8.25332745,3.80142399 C7.6920616,3.80142399 7.23746516,3.34664903 7.23746516,2.78408402 C7.23736889,2.21970981 7.6920616,1.76074513 8.25332745,1.76074513 L8.25332745,1.76074513 Z M11.1808631,0.119422668 C10.255304,0.123707608 9.37162317,0.201788737 8.5940341,0.337954608 C6.30314526,0.738168002 5.88734643,1.57611183 5.88734643,3.12116596 L5.88734643,5.16184482 L11.3007218,5.16184482 L11.3007218,5.8422933 L5.88734643,5.8422933 L3.85562185,5.8422933 C2.2823446,5.8422933 0.904884618,6.77755287 0.473874812,8.55694561 C-0.023273869,10.5963866 -0.04532016,11.8690137 0.473874812,13.9984385 C0.85857778,15.5837711 1.77759042,16.7129956 3.35086768,16.7129956 L5.21209452,16.7129956 L5.21209452,14.2666757 C5.21209452,12.4995665 6.75822308,10.9405149 8.5940341,10.9405149 L14.0010556,10.9405149 C15.5063647,10.9405149 16.708032,9.71483162 16.708032,8.21967322 L16.708032,3.12107074 C16.708032,1.67028529 15.4701665,0.580196549 14.0010556,0.337859387 C13.0712604,0.184744198 12.1061335,0.115232949 11.1808631,0.119422668 L11.1808631,0.119422668 Z" id="Shape"></path>
                    <path d="M14.3418585,18.7535792 C14.903028,18.7535792 15.3576244,19.208259 15.3576244,19.7710145 C15.3576244,20.3352934 14.903028,20.7943533 14.3418585,20.7943533 C13.7827105,20.7943533 13.3259962,20.3352934 13.3259962,19.7710145 C13.3259962,19.208259 13.7827105,18.7535792 14.3418585,18.7535792 L14.3418585,18.7535792 Z M17.3829951,5.84210286 L17.3829951,8.21967322 C17.3829951,10.0630544 15.8027863,11.6143931 14.0010556,11.6143931 L8.5940341,11.6143931 C7.11298545,11.6143931 5.88734643,12.8681666 5.88734643,14.33533 L5.88734643,19.4339325 C5.88734643,20.8848132 7.16295061,21.7385636 8.5940341,22.1545837 C10.3075797,22.6529699 11.9507504,22.7432393 14.0010556,22.1545837 C15.3638821,21.7643685 16.708032,20.9789867 16.708032,19.4339325 L16.708032,17.3931584 L11.3007218,17.3931584 L11.3007218,16.71271 L16.708032,16.71271 L19.4145271,16.71271 C20.987997,16.71271 21.5741973,15.6274774 22.1213111,13.9981529 C22.6864278,12.3210273 22.6624561,10.7079855 22.1213111,8.55665995 C21.7323722,7.00751131 20.9899224,5.84200764 19.4145271,5.84200764 L17.3829951,5.84200764 L17.3829951,5.84210286 Z" id="Shape"></path>
                </g>
            </g>
        </g>
    </g>
</svg>