<?xml version="1.0" encoding="UTF-8"?>
<svg width="42px" height="49px" viewBox="0 0 42 49" version="1.1" xmlns="http://www.w3.org/2000/svg" xmlns:xlink="http://www.w3.org/1999/xlink">
    <!-- Generator: Sketch 46.1 (44463) - http://www.bohemiancoding.com/sketch -->
    <title>hexagon-postgresql</title>
    <desc>Created with Sketch.</desc>
    <defs></defs>
    <g id="Page-1" stroke="none" stroke-width="1" fill="none" fill-rule="evenodd">
        <g id="Hexagon---Swag,-goodies" transform="translate(-250.000000, -247.000000)">
            <g id="hexagon-postgresql" transform="translate(250.000000, 247.000000)">
                <polygon id="Polygon" fill="#336791" points="21 0 42 12.25 42 36.75 21 49 1.9095836e-14 36.75 5.32907052e-15 12.25"></polygon>
                <g id="Group-9" transform="translate(7.000000, 10.000000)" fill-rule="nonzero">
                    <path d="M26.4157868,17.5349213 C23.1140673,18.2162146 22.8870325,17.0980495 22.8870325,17.0980495 C26.3730443,11.9238845 27.8303971,5.35603858 26.5728794,3.74858598 C23.1419332,-0.636233775 17.2029458,1.43751889 17.1038054,1.49126722 L17.0719428,1.49704184 C16.4195923,1.36156051 15.6896392,1.28093802 14.8690942,1.26750094 C13.375216,1.24306988 12.2419291,1.65928627 11.3819721,2.31159554 C11.3819721,2.31159554 0.787382589,-2.05423462 1.28019809,7.80236489 C1.38500048,9.89921601 4.28482945,23.6684496 7.74353052,19.509506 C9.0077094,17.9886726 10.2292568,16.7028216 10.2292568,16.7028216 C10.8358673,17.1059341 11.5621568,17.3115992 12.3235284,17.2377507 L12.3827018,17.187556 C12.3642725,17.3763415 12.37271,17.5610181 12.4063489,17.779676 C11.5153065,18.7754638 11.7772015,18.9502569 9.99600487,19.3170559 C8.19360351,19.6886301 9.25239635,20.3500455 9.94371469,20.5230618 C10.7818008,20.7326137 12.7206451,21.0295621 14.030675,19.1951227 L13.9784959,19.4044525 C14.3275411,19.6841881 14.5726722,21.223789 14.5315949,22.6195798 C14.4905177,24.0152595 14.4630959,24.9735123 14.7380912,25.7219911 C15.0133085,26.4704699 15.2874156,28.1545471 17.6290386,27.652711 C19.585535,27.2332741 20.599476,26.1464252 20.7405817,24.3334185 C20.8406103,23.0445692 21.0672011,23.2351314 21.0814116,22.0827628 L21.2631505,21.5372839 C21.4726442,19.7901301 21.2964563,19.2264389 22.5017949,19.4886286 L22.7948863,19.5143922 C23.681932,19.5547035 24.8431958,19.3715816 25.5247444,19.0547552 C26.9922,18.3735729 27.8625928,17.236085 26.4155648,17.5349213 L26.4157868,17.5349213" id="Shape" fill="#336791"></path>
                    <path d="M12.002127,8.74007334 C11.7045948,8.69865159 11.4351505,8.73696393 11.2988185,8.84024068 C11.2222151,8.89831997 11.1984569,8.96561643 11.1920178,9.01192439 C11.1749208,9.13463493 11.2608499,9.27033836 11.3136951,9.34030003 C11.4631274,9.5384137 11.6813917,9.67456133 11.8974356,9.7045449 C11.9287431,9.70898691 11.9599396,9.71098581 11.990914,9.71098581 C12.3511722,9.71098581 12.6787907,9.43036179 12.7076558,9.22325304 C12.7437371,8.96383962 12.3672701,8.79093436 12.002127,8.74018439 M21.858881,8.74829106 C21.83046,8.54495802 21.4687585,8.48698978 21.1254863,8.5347414 C20.7826581,8.58249301 20.4502658,8.73729708 20.4780206,8.94107432 C20.5002245,9.09954305 20.7863218,9.3700615 21.1249312,9.3700615 C21.1535742,9.3700615 21.1824393,9.36817364 21.2115264,9.36406478 C21.4375621,9.33274861 21.6034252,9.18916061 21.682249,9.10642817 C21.8021501,8.98027506 21.8716483,8.83968543 21.858881,8.74829106" id="Shape" fill="#FFFFFF"></path>
                    <path d="M27.5144357,17.4575192 C27.3885396,17.0767279 26.9833184,16.9542394 26.3100963,17.0932743 C24.3111904,17.5059371 23.5953368,17.2200938 23.3603085,17.0469664 C24.9140262,14.6793747 26.1921936,11.8173873 26.8817356,9.14718361 C27.2083549,7.88232108 27.3887616,6.70763137 27.4035272,5.75015597 C27.4198471,4.69928731 27.2408837,3.92704376 26.8718549,3.45530223 C25.3839717,1.55356642 23.2002184,0.533458677 20.5568445,0.50547401 C18.7395665,0.485040761 17.204167,0.950230326 16.9065238,1.08104754 C16.2797078,0.925132966 15.5963828,0.829407636 14.8524413,0.817192107 C13.4882338,0.795093104 12.3089848,1.12180299 11.3326795,1.78777143 C10.908585,1.62985795 9.81260068,1.2535086 8.47226242,1.03751583 C6.15506371,0.664386941 4.31369452,0.947120918 2.99966788,1.8782774 C1.43173969,2.98944636 0.707892637,4.97569142 0.848110248,7.78170954 C0.895293529,8.72574785 1.43307192,11.6299344 2.28170487,14.4111883 C3.39878294,18.0718493 4.61311407,20.1441583 5.89072632,20.5704803 C6.04026956,20.6203418 6.21268283,20.6552116 6.40285921,20.6552116 C6.86891901,20.6552116 7.4403363,20.4451045 8.03484565,19.7301629 C8.75997646,18.8600344 9.51007772,18.0110344 10.2842115,17.1842245 C10.7864636,17.4538546 11.3382305,17.6044387 11.9025425,17.6195416 C11.9036527,17.6343112 11.9050959,17.6490809 11.9064282,17.6637396 C11.809289,17.7796074 11.7141679,17.8971533 11.6211081,18.0163242 C11.2300975,18.5128299 11.1487202,18.6162177 9.89009228,18.875409 C9.53205444,18.9493685 8.58117254,19.1453722 8.56718408,19.812118 C8.55208543,20.5406078 9.69125638,20.8465512 9.82103816,20.8789779 C10.2733315,20.9922492 10.709083,21.0481075 11.124629,21.0481075 C12.1352393,21.0481075 13.0246164,20.7158451 13.7353632,20.0729751 C13.7134924,22.6699966 13.8217364,25.2290389 14.1334791,26.0087229 C14.3888239,26.6470398 15.0125314,28.2069629 16.9826832,28.2068518 C17.2717779,28.2068518 17.5899597,28.1732036 17.9400042,28.0981336 C19.9961961,27.6572641 20.8891258,26.7482066 21.2345074,24.7440824 C21.4193549,23.6730026 21.7365375,21.1154039 21.8857477,19.7434889 C22.200599,19.8417684 22.6059311,19.8867438 23.044125,19.8866327 C23.9580375,19.8866327 25.0126116,19.6924058 25.6739546,19.3853518 C26.416897,19.0402076 27.7575683,18.1933383 27.5144357,17.4575192 L27.5144357,17.4575192 Z M22.6178102,8.18704301 C22.611038,8.59204333 22.5553062,8.95973076 22.4962439,9.34352048 C22.4326297,9.75629432 22.3669062,10.1830605 22.3503643,10.70111 C22.3340444,11.2052782 22.3969925,11.7294354 22.4578311,12.2363799 C22.5808407,13.2602634 22.7070699,14.3143525 22.2184731,15.3544493 C22.1373111,15.210599 22.0650137,15.0619217 22.0019851,14.9092488 C21.9412575,14.7619961 21.8093663,14.525459 21.6267393,14.1980829 C20.9163256,12.92367 19.2526986,9.93930516 20.1043291,8.72152794 C20.3580086,8.35905987 21.0018106,7.98637518 22.6178102,8.18704301 L22.6178102,8.18704301 Z M20.6589824,1.32558022 C23.0274721,1.3778849 24.901037,2.26417707 26.2274978,3.95969254 C27.2448804,5.2602022 26.1245827,11.1777377 22.8813705,16.2828295 C22.8487549,16.2413455 22.8159668,16.1999974 22.7830072,16.1587864 L22.74193,16.1074811 C23.5800161,14.7230175 23.4161513,13.3532124 23.2702717,12.1387667 C23.2103212,11.6403731 23.1537013,11.1696311 23.1681338,10.7274289 C23.1830104,10.2587968 23.2449593,9.85679481 23.3049098,9.46811888 C23.3785157,8.98915908 23.4534539,8.49354175 23.4328043,7.9093063 C23.448236,7.84800655 23.4544531,7.77560178 23.4463486,7.68964887 C23.3936144,7.12940028 22.7541421,5.45265231 21.4507734,3.93503938 C20.7378062,3.10493864 19.6981088,2.17600316 18.2785026,1.54945756 C18.8891098,1.42286026 19.7240873,1.30481383 20.6589824,1.32558022 L20.6589824,1.32558022 Z M7.40569822,19.2068941 C6.75068326,19.9946846 6.29838987,19.8436563 6.14962376,19.7941279 C5.18042365,19.4707495 4.05579625,17.42165 3.06428123,14.1723192 C2.20632264,11.3607486 1.70495864,8.53351984 1.66521366,7.74073199 C1.53998368,5.23343909 2.14759333,3.48606315 3.47127866,2.5470221 C5.62550077,1.01897044 9.16724441,1.93358043 10.5904032,2.39743739 C10.5699756,2.41764854 10.5486599,2.43652709 10.5284543,2.45707139 C8.19304842,4.81622324 8.24844714,8.84690369 8.25422015,9.09332423 C8.25399811,9.18838326 8.26199152,9.32297618 8.27287143,9.50809698 C8.31306048,10.1860589 8.38788761,11.447812 8.18805254,12.8766957 C8.00242796,14.2045238 8.41164578,15.504145 9.31057056,16.4424087 C9.40282574,16.538516 9.49979093,16.6299858 9.60110856,16.7164808 C9.20099433,17.1451348 8.3313787,18.0930599 7.40569822,19.2068941 Z M9.90130525,15.8761634 C9.17679208,15.1199111 8.84773032,14.068043 8.99838377,12.989967 C9.20932079,11.4805718 9.13149613,10.1659588 9.08964178,9.45967906 C9.08375775,9.36084432 9.07853984,9.27422512 9.07554231,9.2059292 C9.41670519,8.90331723 10.9977337,8.0560037 12.1252476,8.31441767 C12.6397119,8.432242 12.9532309,8.78271664 13.0835678,9.38549748 C13.7581222,12.5063431 13.1728275,13.8070749 12.7025489,14.852391 C12.6056289,15.0677175 12.5140378,15.2712726 12.4358801,15.4818239 L12.3752635,15.6446236 C12.2218345,16.0561759 12.0790635,16.4388551 11.990581,16.8022116 C11.2203278,16.7999906 10.4710572,16.4708376 9.90130525,15.8760524 L9.90130525,15.8761634 Z M10.019541,20.0849685 C9.79461552,20.0287771 9.59233802,19.9311639 9.47365819,19.8502083 C9.57279859,19.8035671 9.74920855,19.7400464 10.0551783,19.6769698 C11.5358451,19.3721369 11.7645453,19.1569214 12.2639109,18.5227134 C12.378372,18.3772375 12.5081538,18.2124389 12.6878943,18.01166 L12.6881164,18.0114379 C12.9557844,17.7116022 13.0782389,17.7624633 13.3002778,17.854635 C13.4802404,17.9290387 13.6555402,18.1546928 13.7265927,18.4030012 C13.7602316,18.5202703 13.7979782,18.742815 13.6744135,18.9160534 C12.6312744,20.3770307 11.1111956,20.3582632 10.019541,20.0849685 L10.019541,20.0849685 Z M17.7685901,27.2979054 C15.9571962,27.6861371 15.3158366,26.7616437 14.8931854,25.7047783 C14.6204105,25.0224854 14.486299,21.9457268 14.5814427,18.5479218 C14.5826639,18.5027243 14.5762248,18.4590816 14.5637906,18.417993 C14.552668,18.3368564 14.5357497,18.2566208 14.5131657,18.1779023 C14.3717269,17.6835065 14.0270114,17.2699553 13.6134638,17.0984937 C13.449155,17.0304199 13.147626,16.9054883 12.7852584,16.9982153 C12.862528,16.6797232 12.9965285,16.3200313 13.141853,15.9305781 L13.2028027,15.7667789 C13.2714128,15.5821023 13.3575639,15.3907627 13.4485999,15.188207 C13.9407492,14.094584 14.6147485,12.596627 13.8832411,9.21259222 C13.6092451,7.94506448 12.6942225,7.3260703 11.307145,7.46988039 C10.475609,7.55594435 9.71479251,7.89153825 9.33532791,8.08398837 C9.25372858,8.12529906 9.17912349,8.16527716 9.10940325,8.20414475 C9.21531584,6.92706669 9.61543007,4.54037438 11.1121948,3.03031286 C12.0546392,2.07972258 13.3097145,1.61020206 14.8388969,1.63552152 C17.8519657,1.68482784 19.7841489,3.23153594 20.8745823,4.52049638 C21.8142512,5.63111009 22.3230535,6.74994152 22.5261081,7.35338867 C20.9990351,7.19802934 19.9604478,7.49953082 19.4339934,8.25245162 C18.2886054,9.89022094 20.0605874,13.0689238 20.9122179,14.5966423 C21.0684223,14.8766 21.2031999,15.1185785 21.2456094,15.2214111 C21.5229361,15.8937094 21.8819731,16.3425746 22.1440901,16.6701728 C22.2244682,16.7705623 22.3024039,16.8679534 22.3616883,16.9530179 C21.8991811,17.0863892 21.0684223,17.3945537 21.1441376,18.934932 C21.0830768,19.7078418 20.6488796,23.3265258 20.4282839,24.6050475 C20.1370798,26.294122 19.5157037,26.9232218 17.7685901,27.2980164 L17.7685901,27.2979054 Z M25.3294612,18.6430919 C24.8565182,18.8626382 24.0650602,19.0273258 23.3132363,19.0627508 C22.4828105,19.1016184 22.0600483,18.9696907 21.9605749,18.8885129 C21.9139467,17.9285944 22.2710964,17.8283161 22.6491177,17.722152 C22.7085131,17.7054945 22.7664653,17.6891701 22.8224191,17.6696252 C22.8571682,17.697943 22.8952479,17.7260388 22.9369912,17.7535792 C23.6044404,18.1942267 24.7949023,18.2417562 26.4756263,17.8947241 L26.4940556,17.8910595 C26.2673538,18.1030544 25.8794517,18.3875652 25.3294612,18.6430919 Z" id="Shape" fill="#FFFFFF"></path>
                </g>
            </g>
        </g>
    </g>
</svg>