<?xml version="1.0" encoding="UTF-8"?>
<svg width="42px" height="49px" viewBox="0 0 42 49" version="1.1" xmlns="http://www.w3.org/2000/svg" xmlns:xlink="http://www.w3.org/1999/xlink">
    <!-- Generator: Sketch 46.1 (44463) - http://www.bohemiancoding.com/sketch -->
    <title>hexagon-couchbase</title>
    <desc>Created with Sketch.</desc>
    <defs></defs>
    <g id="Page-1" stroke="none" stroke-width="1" fill="none" fill-rule="evenodd">
        <g id="Hexagon---Swag,-goodies" transform="translate(-552.000000, -247.000000)">
            <g id="hexagon-couchbase" transform="translate(552.000000, 247.000000)">
                <polygon id="Polygon" fill="#ED2226" points="21 0 42 12.25 42 36.75 21 49 1.99840144e-14 36.75 6.21724894e-15 12.25"></polygon>
                <path d="M21.4257762,9.76017339 C13.3872469,9.76017339 6.84630656,16.2837707 6.84630656,24.3501107 C6.84630656,32.3944114 13.3652235,38.940048 21.4257762,38.940048 C29.4643056,38.940048 36.0052459,32.4164506 36.0052459,24.3501107 C36.0052459,16.2837707 29.4643056,9.76017339 21.4257762,9.76017339 Z M31.2702218,26.9066556 C31.2702218,27.7882228 30.7636843,28.5595941 29.7726327,28.7359075 C28.05481,29.0442357 24.4429777,29.2207695 21.4257762,29.2207695 C18.4085748,29.2207695 14.7967424,29.0442357 13.0789197,28.7359075 C12.0878682,28.5595941 11.5813307,27.7882228 11.5813307,26.9066556 L11.5813307,21.2205471 C11.5813307,20.3389799 12.2640551,19.5235302 13.0789197,19.3912951 C13.5854572,19.3031384 14.7747191,19.2149817 15.6997005,19.2149817 C16.0520744,19.2149817 16.3383782,19.4794518 16.3383782,19.8981963 L16.3383782,23.8872879 L21.4477996,23.777092 L26.557221,23.8872879 L26.557221,19.8981963 C26.557221,19.4794518 26.8435248,19.2149817 27.1958987,19.2149817 C28.1208801,19.2149817 29.310142,19.3031384 29.8166795,19.3912951 C30.6535675,19.5235302 31.3142685,20.3389799 31.3142685,21.2205471 C31.2702218,23.0938774 31.2702218,25.0112861 31.2702218,26.9066556 L31.2702218,26.9066556 Z" id="Shape" fill="#FFFFFF" fill-rule="nonzero"></path>
            </g>
        </g>
    </g>
</svg>