<?xml version="1.0" encoding="UTF-8"?>
<svg width="42px" height="49px" viewBox="0 0 42 49" version="1.1" xmlns="http://www.w3.org/2000/svg" xmlns:xlink="http://www.w3.org/1999/xlink">
    <!-- Generator: Sketch 46.1 (44463) - http://www.bohemiancoding.com/sketch -->
    <title>hexagon-mysql</title>
    <desc>Created with Sketch.</desc>
    <defs></defs>
    <g id="Page-1" stroke="none" stroke-width="1" fill="none" fill-rule="evenodd">
        <g id="Hexagon---Swag,-goodies" transform="translate(-104.000000, -247.000000)">
            <g id="hexagon-mysql" transform="translate(104.000000, 247.000000)">
                <polygon id="Polygon" fill="#F8981D" points="21 0 42 12.25 42 36.75 21 49 1.99840144e-14 36.75 6.21724894e-15 12.25"></polygon>
                <g id="Group-21" transform="translate(9.000000, 13.000000)" fill-rule="nonzero" fill="#FFFFFF">
                    <path d="M23.8963816,19.3451258 C22.4809058,19.3074497 21.3996644,19.4366751 20.4753196,19.8194216 C20.2126299,19.9282244 19.7937609,19.9310413 19.7509058,20.2542807 C19.8952506,20.4028723 19.9176644,20.6247033 20.032423,20.8074497 C20.253154,21.158154 20.6257609,21.6280483 20.9582023,21.8745272 C21.3214851,22.1437173 21.6958851,22.4317455 22.0853471,22.6648441 C22.778023,23.0796328 23.5513885,23.3164286 24.218423,23.7319216 C24.6114713,23.9768159 25.0020092,24.2852666 25.385554,24.5616751 C25.5750851,24.6982948 25.7025747,24.9107948 25.9489471,24.9963582 L25.9489471,24.9569216 C25.8194851,24.7951258 25.7861333,24.5725906 25.6672506,24.4035765 C25.4929609,24.2324497 25.318492,24.0611469 25.144023,23.8898441 C24.6324506,23.2231187 23.9829885,22.6375554 23.2926437,22.1511117 C22.7421609,21.7630835 21.5099402,21.2389638 21.2802437,20.6099145 C21.2667954,20.5967103 21.2535265,20.5835061 21.2398989,20.5703018 C21.6302575,20.527168 22.0873196,20.3884357 22.447554,20.2937173 C23.0527265,20.1343864 23.5935265,20.1755835 24.218423,20.0171328 C24.5001196,19.9380835 24.7818161,19.8588582 25.063692,19.7799849 L25.063692,19.6218864 C24.7477471,19.3035765 24.5225333,18.8824497 24.1780782,18.5944216 C23.2768644,17.8409004 22.2931678,17.0880835 21.2802437,16.4603371 C20.7184644,16.112168 20.0241747,15.885918 19.4288644,15.5908828 C19.2285747,15.4916751 18.8767678,15.4400906 18.7444368,15.2747033 C18.4317196,14.8832068 18.2613747,14.3870272 18.0202023,13.9310589 C17.5149058,12.97583 17.018754,11.9325554 16.5711954,10.9276258 C16.2658299,10.2423089 16.0664368,9.56644621 15.6857609,8.95162227 C13.8582299,6.00148142 11.8910161,4.22079481 8.8436368,2.47054833 C8.19525059,2.09833002 7.41453335,1.95132297 6.58952645,1.75928072 C6.14698852,1.7329779 5.70409197,1.70649903 5.26137473,1.68019621 C4.99115404,1.56929833 4.70999542,1.24468565 4.45645059,1.08737931 C3.44693335,0.461205016 0.85751266,-0.900824913 0.109788522,0.889826495 C-0.362335616,2.02009058 0.815374729,3.12303072 1.23657473,3.69572438 C1.53225749,4.09752016 1.91078163,4.5479779 2.12200921,4.99980889 C2.26097473,5.29674551 2.28500232,5.5945272 2.40388507,5.90880537 C2.69651956,6.68283706 2.95096094,7.52494973 3.32948507,8.24035466 C3.52080921,8.60227368 3.73167818,8.98361171 3.97356783,9.3073441 C4.12185749,9.50593565 4.37594025,9.59343565 4.41610576,9.900161 C4.16758163,10.2416223 4.15341611,10.7716751 4.01373335,11.2042631 C3.38471266,13.1517103 3.62194025,15.5723089 4.53696094,17.0136117 C4.81776094,17.4560413 5.47905749,18.4049849 6.38834025,18.0410765 C7.18376094,17.7229427 7.00606438,16.7372033 7.23360921,15.8675202 C7.28507128,15.6703018 7.25351266,15.5253723 7.35428507,15.39333 L7.35428507,15.4328723 C7.59581611,15.9070624 7.83734714,16.3812349 8.07887818,16.8553371 C8.61501611,17.7032244 9.56661611,18.5893159 10.3729747,19.1872033 C10.7911265,19.4972385 11.1203402,20.03333 11.6609609,20.214668 L11.6609609,20.1750554 L11.6206161,20.1750554 C11.5158989,20.014668 11.3520092,19.9482948 11.2182437,19.8194216 C10.9031954,19.5162526 10.5530023,19.1393159 10.2924644,18.7919568 C9.55908507,17.8143159 8.91087818,16.7442455 8.32040921,15.6304251 C8.03835404,15.0986469 7.7932368,14.5118511 7.55547128,13.9706011 C7.46384369,13.7618864 7.46491956,13.4463934 7.27395404,13.3382596 C7.01359542,13.7348969 6.63005059,14.0555483 6.42868507,14.5238758 C6.10664369,15.2724673 6.06504369,16.1854075 5.94580232,17.1320976 C5.87515404,17.1569216 5.90653335,17.1398441 5.86511266,17.1715342 C5.30458852,17.0387878 5.10752645,16.4721857 4.89934714,15.9861469 C4.37235404,14.7568511 4.27445059,12.7774145 4.73814714,11.3624321 C4.85810576,10.9963934 5.40034025,9.84325959 5.18086438,9.50507297 C5.07614714,9.16757297 4.7304368,8.97243213 4.53696094,8.71454481 C4.29758163,8.3957772 4.05856094,7.9760941 3.89287818,7.60799551 C3.4616368,6.64949199 3.26027128,5.57354128 2.80625749,4.60472086 C2.58929197,4.14153424 2.22224369,3.67285466 1.920823,3.2610941 C1.58712645,2.80496734 1.21344369,2.46899903 0.954878177,1.91729128 C0.86289197,1.72128776 0.73791266,1.40750255 0.874367832,1.20600607 C0.917760936,1.07000255 0.978905763,1.0132772 1.11589887,0.968911002 C1.34936094,0.792169805 1.99954025,1.02771382 2.24268507,1.12692157 C2.88820232,1.3901434 3.42685059,1.64081241 3.97356783,1.99637579 C4.23607818,2.16727368 4.50145749,2.49771382 4.81865749,2.58919269 L5.18086438,2.58919269 C5.74748507,2.71709762 6.38224369,2.628911 6.91156783,2.7867279 C7.84720921,3.06595326 8.68566438,3.50024903 9.44719542,3.97236171 C11.7671127,5.41056593 13.6638575,7.45790748 14.9613471,9.900161 C15.1700644,10.2933652 15.2604368,10.6686997 15.4442299,11.0857948 C15.815223,11.9268864 16.2825058,12.7923793 16.6515265,13.6148793 C17.0198299,14.4355131 17.3788092,15.2636997 17.8993471,15.9466047 C18.173154,16.3055835 19.2301885,16.498154 19.7105609,16.6974145 C20.0473058,16.8372033 20.5990437,16.9828018 20.9180368,17.1715342 C21.5273333,17.5324497 22.117623,17.9620272 22.6890851,18.3572737 C22.9747265,18.5548089 23.8526299,18.9880835 23.8963816,19.3451258 L23.8963816,19.3451258 Z" id="Shape-Copy"></path>
                    <path d="M5.9245931,4.22586491 C5.62944828,4.2205304 5.42073103,4.25750223 5.2,4.30479097 L5.2,4.34433322 L5.24034483,4.34433322 C5.38110345,4.62834731 5.62962759,4.81111139 5.80373793,5.05577688 C5.93786207,5.33241421 6.07198621,5.60905153 6.20628966,5.8855128 C6.21955862,5.87243181 6.23318621,5.85920998 6.24645517,5.846129 C6.49569655,5.67368181 6.60991724,5.39774871 6.60866207,4.97669238 C6.50878621,4.87352336 6.49408276,4.74406914 6.40747586,4.62095294 C6.29235862,4.45693885 6.06965517,4.36375223 5.9245931,4.22586491 L5.9245931,4.22586491 Z" id="Shape-Copy-2"></path>
                </g>
            </g>
        </g>
    </g>
</svg>