<?xml version="1.0" encoding="UTF-8"?>
<svg width="42px" height="49px" viewBox="0 0 42 49" version="1.1" xmlns="http://www.w3.org/2000/svg" xmlns:xlink="http://www.w3.org/1999/xlink">
    <!-- Generator: Sketch 46.1 (44463) - http://www.bohemiancoding.com/sketch -->
    <title>hexagon-rabbitmq</title>
    <desc>Created with Sketch.</desc>
    <defs></defs>
    <g id="Page-1" stroke="none" stroke-width="1" fill="none" fill-rule="evenodd">
        <g id="Hexagon---Swag,-goodies" transform="translate(-552.000000, -315.000000)">
            <g id="hexagon-rabbitmq" transform="translate(552.000000, 315.000000)">
                <polygon id="Polygon" fill="#FF6600" points="21 0 42 12.25 42 36.75 21 49 4.53415083e-13 36.75 4.40092407e-13 12.25"></polygon>
                <path d="M31.4192059,20.7115507 L23.8484627,20.7115507 C23.4684712,20.7114037 23.1604502,20.4039099 23.1602538,20.0245197 L23.1602538,12.1468486 C23.1602538,11.5634852 22.6864706,11.0902741 22.1024495,11.0902741 L19.3998837,11.0902741 C18.8155066,11.0902741 18.3419904,11.5634852 18.3419904,12.1468486 L18.3419904,19.9768167 C18.3419904,20.3830479 18.0130559,20.7132386 17.6061807,20.7150152 L15.1251586,20.7268299 C14.7148134,20.7290508 14.3814303,20.3966393 14.382231,19.9872989 L14.3976234,12.1486252 C14.398958,11.5643735 13.9249969,11.0902741 13.3398191,11.0902741 L10.6394776,11.0902741 C10.0550116,11.0902741 9.58158439,11.5634852 9.58158439,12.1468486 L9.58158439,34.2053938 C9.58158439,34.723643 10.0020725,35.1434656 10.5206982,35.1434656 L31.4192059,35.1434656 C31.9382765,35.1434656 32.3587646,34.723643 32.3587646,34.2053938 L32.3587646,21.6496225 C32.3587646,21.1313734 31.9382765,20.7115507 31.4192059,20.7115507 L31.4192059,20.7115507 Z M27.8689909,28.9936765 C27.8689909,29.6728014 27.317534,30.2234745 26.6373327,30.2234745 L24.5015272,30.2234745 C23.8212369,30.2234745 23.26978,29.6728014 23.26978,28.9936765 L23.26978,26.861251 C23.26978,26.1820373 23.8212369,25.6314531 24.5015272,25.6314531 L26.6373327,25.6314531 C27.317534,25.6314531 27.8689909,26.1820373 27.8689909,26.861251 L27.8689909,28.9936765 L27.8689909,28.9936765 Z" id="Shape" fill="#FFFFFF" fill-rule="nonzero"></path>
            </g>
        </g>
    </g>
</svg>