<?xml version="1.0" encoding="UTF-8"?>
<svg width="42px" height="49px" viewBox="0 0 42 49" version="1.1" xmlns="http://www.w3.org/2000/svg" xmlns:xlink="http://www.w3.org/1999/xlink">
    <!-- Generator: Sketch 46.1 (44463) - http://www.bohemiancoding.com/sketch -->
    <title>hexagon-golang</title>
    <desc>Created with Sketch.</desc>
    <defs></defs>
    <g id="Page-1" stroke="none" stroke-width="1" fill="none" fill-rule="evenodd">
        <g id="Hexagon---Swag,-goodies" transform="translate(-250.000000, -30.000000)">
            <g id="hexagon-golang" transform="translate(250.000000, 30.000000)">
                <polygon id="Polygon" fill="#6AD8E6" points="21 0 42 12.25 42 36.75 21 49 1.9095836e-14 36.75 5.32907052e-15 12.25"></polygon>
                <g id="Group-2" transform="translate(6.000000, 11.000000)">
                    <path d="M3.54886612,20.302262 C2.63822229,20.4289855 1.57768776,20.690944 1.02577415,21.023965 C0.526342712,21.3254401 0.591894365,22.2128429 0.947221081,22.6518497 C1.3222201,23.115377 1.76229428,23.0905861 2.29358261,22.8480821 C2.64230651,22.688867 3.06229996,22.334095 3.49617975,21.936699 C3.50707099,21.5904383 3.51925556,21.2439074 3.5331419,20.8981195 C3.54137839,20.6928354 3.54648367,20.494509 3.54886612,20.302262 L3.54886612,20.302262 Z" id="Shape" stroke="#FFFFFF" stroke-width="1.28652529"></path>
                    <path d="M29.7126885,20.7199905 C29.2021617,20.411963 28.256734,20.164933 27.3970748,20.0292253 C27.4185849,20.4896454 27.4481955,20.9958643 27.4882209,21.5668634 C27.4954362,21.6700121 27.5025837,21.7717421 27.5095268,21.8727968 C27.8470872,22.1685977 28.1684469,22.4177893 28.4448121,22.54404 C28.9762366,22.7866118 29.4161745,22.8114025 29.7911736,22.3478752 C30.1465685,21.9088685 30.212188,21.0213305 29.7126885,20.7199905 L29.7126885,20.7199905 Z" id="Shape" stroke="#FFFFFF" stroke-width="1.28652529"></path>
                    <path d="M0.805362676,22.4223152 C1.03224083,22.260398 1.19254627,22.0851737 1.60750253,21.8753637" id="Shape" stroke="#FFFFFF" stroke-width="1.28652529"></path>
                    <path d="M29.9331001,22.1183407 C29.706222,21.9564235 29.5459165,21.7811992 29.1310283,21.5713892" id="Shape" stroke="#FFFFFF" stroke-width="1.28652529"></path>
                    <path d="M3.25745737,5.675415 C3.25745737,5.20465985 3.64144166,4.82307054 4.11514255,4.82307054 C4.39293725,4.82307054 4.63907928,4.95486037 4.79584507,5.15838818 C5.17492831,4.54294116 5.63195197,4.01206661 6.151328,3.55549694 C5.89402245,3.30839945 5.47593497,3.12790615 4.81966966,3.04042906 C2.70608833,2.75847583 1.62601764,3.79469108 1.37926297,5.18344919 C1.14115323,6.52350381 1.86739475,7.96265414 3.48971308,8.33681296 C3.65716588,7.68259231 3.86232964,7.08247913 4.09894183,6.52694886 C3.63279674,6.51823492 3.25745737,6.14069861 3.25745737,5.675415 L3.25745737,5.675415 Z" id="Shape" stroke="#FFFFFF" stroke-width="1.28652529"></path>
                    <path d="M4.11514255,4.82307054 C3.64144166,4.82307054 3.25745737,5.20465985 3.25745737,5.675415 C3.25745737,6.14069861 3.63279674,6.51823492 4.09894183,6.52688131 C4.26768798,6.13063368 4.45229451,5.75688016 4.65112772,5.40298631 C4.69789198,5.31983241 4.74642607,5.23856989 4.79584507,5.15832063 C4.63907928,4.95486037 4.39286918,4.82307054 4.11514255,4.82307054 L4.11514255,4.82307054 Z" id="Shape" fill="#FFFFFF" fill-rule="nonzero"></path>
                    <path d="M28.6413989,4.63629511 C28.3946444,3.24746946 27.3145736,2.21132175 25.2010603,2.49327499 C24.4682841,2.59101966 24.0325663,2.80467996 23.7859478,3.0975087 C24.2533863,3.49807953 24.6883552,3.958432 25.0977979,4.48349727 C25.1176743,4.50896358 25.1365978,4.53470008 25.1561339,4.56023394 C25.3124233,4.35116704 25.5620369,4.21512156 25.8441881,4.21512156 C26.317889,4.21512156 26.7018733,4.59671087 26.7018733,5.06746602 C26.7018733,5.48012828 26.4067887,5.82415985 26.0148403,5.90278792 C26.3059767,6.46230362 26.5420444,7.06457841 26.7310073,7.73622692 C28.2124202,7.29370761 28.8695023,5.91981049 28.6413989,4.63629511 L28.6413989,4.63629511 Z" id="Shape" stroke="#FFFFFF" stroke-width="1.28652529"></path>
                    <path d="M26.7018733,5.06746602 C26.7018733,4.59671087 26.317889,4.21512156 25.8441881,4.21512156 C25.5619689,4.21512156 25.3124233,4.35116704 25.1561339,4.56023394 C25.4838922,4.98883797 25.7692428,5.43068176 26.0148403,5.90278792 C26.4067887,5.82415985 26.7018733,5.48012828 26.7018733,5.06746602 L26.7018733,5.06746602 Z" id="Shape" fill="#FFFFFF" fill-rule="nonzero"></path>
                    <path d="M25.0977979,4.48349727 C24.6882871,3.958432 24.2533863,3.49807953 23.7859478,3.0975087 C21.7576586,1.35958524 19.1175538,0.747448179 15.2956815,0.860053839 C11.9818855,0.957798523 8.45645902,1.52920301 6.151328,3.55549694 C5.63195197,4.01199906 5.17499637,4.54287361 4.79584507,5.15838818 C4.74642607,5.23863744 4.69789198,5.31989996 4.65112772,5.40305386 C4.45229451,5.75694771 4.26768798,6.13063368 4.09894183,6.52694886 C3.86232964,7.08247913 3.65716588,7.68259231 3.48971308,8.33681296 C3.16522218,9.60472431 2.98170478,11.0748125 2.98177285,12.8124657 C2.981909,15.8611947 3.5852837,17.3739744 3.54893418,20.3023295 C3.54655173,20.4945765 3.54144646,20.6929029 3.53320996,20.8981872 C3.51932362,21.243975 3.4962465,22.283206 3.49624781,21.9367665 C3.49624783,21.9351397 3.49624783,22.2873146 3.49624783,22.2873146 L8.83066674,25.8794192 L20.0521136,25.8794192 C20.0521136,25.8794192 27.3646047,23.2468255 27.3646047,22.2873146 C27.3646047,22.1859931 27.4955724,21.6702147 27.4883569,21.5670661 C27.4483317,20.9960669 27.4187891,20.489848 27.397211,20.0294279 C27.2792451,17.5069127 27.4015674,16.3603209 27.3646053,13.4813447 C27.3330887,11.0312428 27.1471208,9.21482637 26.7311435,7.73642958 C26.5421804,7.06484861 26.3061129,6.46257383 26.0149763,5.90299057 C25.7692428,5.43068176 25.4839604,4.98877042 25.1561339,4.56023394 C25.1365978,4.53470008 25.1176743,4.50896358 25.0977979,4.48349727 Z" id="Shape" stroke="#FFFFFF" stroke-width="1.28652529"></path>
                    <ellipse id="Oval" stroke="#FFFFFF" stroke-width="1.28652529" cx="10.2720969" cy="6.83173394" rx="3.73705685" ry="3.58689894"></ellipse>
                    <ellipse id="Oval" fill="#FFFFFF" fill-rule="nonzero" cx="8.3116736" cy="7.01405108" rx="1.28652777" ry="1.27669284"></ellipse>
                    <path d="M8.25219771,7.80885912 C8.66430587,7.80885912 8.99838555,7.47758484 8.99838555,7.06893731 C8.99838555,6.66028978 8.66430587,6.32901549 8.25219771,6.32901549 C7.84008956,6.32901549 7.50600989,6.66028978 7.50600989,7.06893731 C7.50600989,7.47758484 7.84008956,7.80885912 8.25219771,7.80885912 Z" id="Oval" fill="#6ED7E8" fill-rule="nonzero"></path>
                    <ellipse id="Oval" stroke="#FFFFFF" stroke-width="1.28652529" cx="19.6453705" cy="6.40610212" rx="3.73705685" ry="3.58689894"></ellipse>
                    <ellipse id="Oval" fill="#FFFFFF" fill-rule="nonzero" cx="17.6849473" cy="6.58855436" rx="1.28652777" ry="1.27669284"></ellipse>
                    <path d="M17.6080565,7.44013144 C18.0545116,7.44013144 18.4164348,7.0809749 18.4164348,6.63793287 C18.4164348,6.19489083 18.0545116,5.83573429 17.6080565,5.83573429 C17.1616016,5.83573429 16.7996783,6.19489083 16.7996783,6.63793287 C16.7996783,7.0809749 17.1616016,7.44013144 17.6080565,7.44013144 Z" id="Oval" fill="#6ED7E8" fill-rule="nonzero"></path>
                    <path d="M15.09467,12.1511524 C14.3606004,12.1638517 14.2505308,12.4888342 13.6185666,12.6008319 C13.5962396,12.9876901 13.5678543,13.5172137 13.5394009,14.1474541 C13.4781377,15.5052068 15.2139291,15.2012324 15.2139291,14.3906337 L15.2139291,12.1525709 C15.1758098,12.1511524 15.1365332,12.1504769 15.09467,12.1511524 L15.09467,12.1511524 Z" id="Shape" stroke="#FFFFFF" stroke-width="1.28652529"></path>
                    <path d="M15.2139291,14.3905662 C15.2139291,15.2011648 16.9497206,15.5051393 16.8884573,14.1473866 C16.8592551,13.5001236 16.8301211,12.9591841 16.8075218,12.5698941 C16.0118486,12.53389 15.9147805,12.1772266 15.2139291,12.1525033 L15.2139291,14.3905662 L15.2139291,14.3905662 Z" id="Shape" stroke="#FFFFFF" stroke-width="1.28652529"></path>
                    <path d="M17.7974674,10.7970474 C17.5010896,10.4805761 17.1493706,10.3081213 16.6794136,10.2248323 C16.4300042,10.587305 15.808727,10.8441972 15.0811921,10.8441972 C14.381566,10.8441972 13.7802334,10.6065567 13.5132619,10.2659702 C13.0101547,10.3616883 12.645162,10.5486664 12.3458571,10.8914821 C11.758615,11.5642114 12.0438294,12.5728663 12.8329678,12.6271764 C13.1703921,12.6504136 13.4200057,12.6360254 13.6185666,12.6007644 C14.2505308,12.4887667 14.3606004,12.1637842 15.09467,12.1510848 C15.1365332,12.1504093 15.1758098,12.1510848 15.2139291,12.1524358 C15.9147123,12.1771591 16.0117805,12.5338225 16.8075218,12.5698266 C16.9649002,12.5769193 17.1495067,12.5715829 17.371756,12.5484808 C18.1585802,12.4669481 18.4081257,11.4490389 17.7974674,10.7970474 L17.7974674,10.7970474 Z" id="Shape" stroke="#FFFFFF" stroke-width="1.28652529"></path>
                    <path d="M15.0812602,10.8441972 C15.808795,10.8441972 16.4300042,10.587305 16.6794816,10.2248323 C16.7548354,10.1152664 16.7966986,9.9961759 16.7966986,9.87147881 C16.7966986,9.33425458 16.0287981,8.89876045 15.0813282,8.89876045 C14.1339945,8.89876045 13.3659579,9.33425458 13.3659579,9.87147881 C13.3659579,10.0119826 13.4189165,10.1453261 13.5133981,10.2659702 C13.7802334,10.6065567 14.3816341,10.8441972 15.0812602,10.8441972 L15.0812602,10.8441972 Z" id="Shape" fill="#FFFFFF" fill-rule="nonzero"></path>
                    <path d="M2.69331732,23.2034378 C2.80068712,23.1026554 4.55251281,22.0203994 4.52353663,20.7640314 C4.51865592,20.5524107 25.874671,20.0999233 25.906173,20.2057894 C25.9376749,20.3116557 26.5188015,20.5637023 26.7372155,20.7640314 C26.8308869,20.8499469 26.8966177,21.9693573 28.0449316,22.9282585 C29.1932456,23.8871598 29.6615288,25.8147134 29.3166807,26.3575522 C28.7128798,27.3080186 0.968256534,26.5359278 0.968256534,26.5359278 C0.968256534,26.5359278 2.56859744,23.3205058 2.69331732,23.2034378 Z" id="Rectangle-4" fill="#6AD8E6" fill-rule="nonzero"></path>
                </g>
            </g>
        </g>
    </g>
</svg>