<?xml version="1.0" encoding="UTF-8"?>
<svg width="42px" height="49px" viewBox="0 0 42 49" version="1.1" xmlns="http://www.w3.org/2000/svg" xmlns:xlink="http://www.w3.org/1999/xlink">
    <!-- Generator: Sketch 46.1 (44463) - http://www.bohemiancoding.com/sketch -->
    <title>hexagon-cassandra</title>
    <desc>Created with Sketch.</desc>
    <defs></defs>
    <g id="Page-1" stroke="none" stroke-width="1" fill="none" fill-rule="evenodd">
        <g id="Hexagon---Swag,-goodies" transform="translate(-696.000000, -315.000000)">
            <g id="hexagon-cassandra" transform="translate(696.000000, 315.000000)">
                <polygon id="Polygon" fill="#ABD3E7" points="21 0 42 12.25 42 36.75 21 49 4.55635529e-13 36.75 4.41868764e-13 12.25"></polygon>
                <g id="Group-13" transform="translate(6.000000, 17.000000)">
                    <path d="M15.096741,11.1740075 C10.015964,11.6081317 5.73441036,9.92875673 5.51747831,7.42683081 C5.30054626,4.92490489 9.23957563,2.53722217 14.3203526,2.10309804 C19.3897122,1.66897391 23.6826833,3.33692452 23.8996154,5.85027475 C24.1165474,8.35220067 20.1775181,10.7398834 15.096741,11.1740075 Z" id="Shape" fill="#ABD3E7" fill-rule="nonzero"></path>
                    <path d="M14.4573624,2.38870602 C12.5163914,2.35443306 10.255731,3.13128677 8.56594452,3.85101888 C8.39468237,4.35368893 8.29192508,4.89063194 8.29192508,5.45042358 C8.29192508,8.42074659 10.975032,10.8312779 14.2861002,10.8312779 C17.5971684,10.8312779 20.2916928,8.43217091 20.2916928,5.45042358 C20.2916928,4.5136294 20.0176734,3.6225325 19.5495569,2.85710311 C18.2022946,2.65146536 16.341246,2.42297898 14.4573624,2.38870602" id="Shape" fill="#FFFFFF" fill-rule="nonzero"></path>
                    <path d="M11.500236,5.13054264 C11.6372457,4.83351034 11.7970904,4.570751 11.9911875,4.31941597 C11.9683525,4.26229438 11.956935,4.19374846 11.956935,4.13662687 C11.956935,3.83959457 12.196702,3.61110818 12.4821389,3.61110818 C12.5506438,3.61110818 12.6191487,3.6225325 12.676236,3.64538114 C13.5553817,2.9713463 14.7085468,2.68573832 15.8731294,2.94849766 C15.9758867,2.9713463 16.078644,3.00561926 16.1814013,3.0284679 C15.0396537,2.86852743 13.8522361,3.22268133 12.9730904,3.93098912 C12.9959254,3.99953503 13.0187603,4.06808095 13.0187603,4.13662687 C13.0187603,4.43365917 12.7789933,4.66214555 12.4935564,4.66214555 C12.4250516,4.66214555 12.3679642,4.65072123 12.2994593,4.62787259 C12.1053622,4.89063194 11.9341001,5.18766424 11.8199253,5.50754518 C12.2423719,5.95309363 12.7561584,6.31867184 13.3270322,6.52430959 L13.3270322,6.44433936 C13.3270322,5.56466677 14.0463332,4.84493466 14.9254789,4.84493466 C15.7132848,4.84493466 16.3754984,5.41615062 16.5010906,6.17015569 C16.9007023,5.91882067 17.2432266,5.59893973 17.540081,5.2219372 C17.4715761,5.14196696 17.4259062,5.03914809 17.4259062,4.92490489 C17.4259062,4.66214555 17.6428383,4.44508349 17.9054402,4.44508349 C17.9396927,4.44508349 17.9739451,4.44508349 18.019615,4.4565078 C18.1680422,4.14805118 18.282217,3.82817025 18.3507218,3.49686499 C16.9692072,2.46867625 14.2975177,2.6171924 14.2975177,2.6171924 C14.2975177,2.6171924 12.1738671,2.50294921 10.735265,3.21125701 C10.8151874,3.90814048 11.0892068,4.570751 11.500236,5.13054264" id="Shape" fill="#ABD3E7" fill-rule="nonzero"></path>
                    <path d="M18.2137121,4.58217532 C18.3164694,4.67356987 18.3735568,4.79923738 18.3735568,4.93632921 C18.3735568,5.19908856 18.1566247,5.41615062 17.8940228,5.41615062 C17.8711878,5.41615062 17.8369354,5.41615062 17.8141004,5.4047263 C17.517246,5.87312339 17.1176344,6.27297457 16.6495178,6.57000687 C17.3345664,6.67282574 17.9853626,6.96985804 18.521984,7.41540649 C18.9101782,6.71852302 19.1385277,5.90739635 19.1385277,5.05057241 C19.1385277,4.39938621 18.8530908,3.9195648 18.4192267,3.5654109 C18.3963917,3.9195648 18.3278869,4.26229438 18.2137121,4.58217532" id="Path" fill="#ABD3E7"></path>
                    <path d="M12.4136341,9.0833571 C12.6534011,8.42074659 13.0644302,7.8381063 13.6238866,7.39255785 C13.5439642,7.27831466 13.4754594,7.16407147 13.4297895,7.02697964 C12.7561584,6.82134189 12.1624496,6.43291504 11.6943331,5.93024499 C11.6943331,5.94166931 11.6829156,5.96451795 11.6829156,5.97594227 C11.5915758,6.36436912 11.5801583,6.76422029 11.6258282,7.14122283 C11.9455175,7.19834443 12.196702,7.48395241 12.196702,7.82668199 C12.196702,8.03231973 12.1053622,8.21510884 11.9683525,8.34077635 C12.0825273,8.60353569 12.2423719,8.85487072 12.4136341,9.0833571" id="Path" fill="#ABD3E7"></path>
                    <path d="M12.2994593,9.47178396 C12.0140224,9.18617598 11.7742554,8.86629504 11.5915758,8.51214114 C11.5573233,8.51214114 11.5230709,8.52356546 11.4888185,8.52356546 C11.1006243,8.52356546 10.7923524,8.21510884 10.7923524,7.82668199 C10.7923524,7.55249832 10.9521971,7.31258762 11.1805466,7.19834443 C11.1234592,6.76422029 11.1462942,6.33009616 11.2490515,5.88454771 C11.2718864,5.7588802 11.3175563,5.63321269 11.3518088,5.50754518 C10.9293621,4.89063194 10.6781777,4.13662687 10.6781777,3.3255002 L10.6781777,3.23410564 C9.95887665,3.59968386 9.42225525,4.1594755 9.42225525,5.05057241 C9.42225525,7.02697964 10.5982553,8.72920321 12.2880418,9.48320828 C12.2994593,9.48320828 12.2994593,9.48320828 12.2994593,9.47178396" id="Path" fill="#ABD3E7"></path>
                    <path d="M16.4211683,6.98128236 C16.2042363,7.5981956 15.6105275,8.05516837 14.9140614,8.05516837 C14.5372847,8.05516837 14.1947604,7.92950086 13.9321584,7.71243879 C13.3727021,8.14656292 12.9502555,8.74062753 12.6876535,9.41466236 C12.8018283,9.54032987 12.9274205,9.65457307 13.0530128,9.76881626 C13.441207,9.87163513 13.8522361,9.92875673 14.2746827,9.92875673 C15.9758867,9.92875673 17.4829936,9.04908415 18.3507218,7.71243879 C17.779848,7.3011633 17.1062169,7.03840396 16.4211683,6.98128236" id="Path" fill="#ABD3E7"></path>
                    <polygon id="Shape" fill="#FFFFFF" fill-rule="nonzero" points="16.4782557 6.57000687 17.9511102 6.21585297 16.4668382 6.13588274 17.6770907 5.2219372 16.3069935 5.71318292 17.2318091 4.42223485 15.9416343 5.27905879 16.3869159 3.77104865 15.5077702 5.01629945 15.4849352 3.43974339 14.9026439 4.84493466 14.4231099 3.42831907 14.4459449 5.09626968 13.6124691 3.59968386 14.0691682 5.18766424 12.7104885 4.20517278 13.7723138 5.54181813 12.0825273 4.92490489 13.4069545 5.90739635 11.7057505 5.96451795 13.4526244 6.4100664 11.7057505 6.78706893 13.4297895 6.91273644 11.97977 7.8381063 13.4754594 7.3011633 12.436469 8.61496001 13.7494788 7.55249832 13.2813623 9.31184349 14.2975177 7.87237926 14.160508 9.56317851 14.7313818 8.02089541 15.2223333 9.63172443 15.336508 8.00947109 16.0672265 9.39181372 15.6333624 7.81525767 16.9577897 8.8434464 16.101479 7.52964968 17.562916 8.10086565 16.4440033 7.004131 17.9396927 7.11837419 16.4782557 6.57000687"></polygon>
                    <path d="M0.939070258,9.04908415 C5.51747831,4.46793212 9.17107077,3.05131654 12.4935564,2.41155466 C12.9274205,2.33158442 13.0187603,1.36051729 13.0187603,1.36051729 C13.0187603,1.36051729 13.0758477,2.06882508 13.3841196,2.16021963 C13.6923914,2.25161419 14.0920031,1.05206067 14.0920031,1.05206067 C14.0920031,1.05206067 13.7266439,2.12594668 14.0920031,2.19449259 C14.4573624,2.25161419 15.1424109,1.14345522 15.1424109,1.14345522 C15.1424109,1.14345522 14.8683915,2.09167372 15.0510711,2.16021963 C15.2337508,2.21734123 16.1585664,0.777877004 16.1585664,0.777877004 C16.1585664,0.777877004 15.6105275,1.7260955 16.1243139,1.82891438 C16.6495178,1.92030893 17.4144888,1.17772818 17.4144888,1.17772818 C17.4144888,1.17772818 16.82078,1.85176301 17.0833819,1.95458189 C18.2251296,2.35443306 19.1385277,0.880695878 19.1385277,0.880695878 C19.1385277,0.880695878 18.9215957,1.53188208 18.3735568,2.24018987 C19.5723918,2.54864649 20.462955,0.743604047 20.462955,0.743604047 L19.5723918,2.54864649 C20.0290909,2.79998151 21.878722,0.675058131 21.878722,0.675058131 C21.878722,0.675058131 20.9310715,2.33158442 20.3716152,2.674314 C20.679887,2.89137607 21.7873822,1.90888461 21.7873822,1.90888461 C21.7873822,1.90888461 20.8968191,3.01704358 21.2393434,3.07416517 C21.7302949,3.47401635 23.5456736,1.01778771 23.5456736,1.01778771 C23.5456736,1.01778771 22.8263726,2.46867625 21.7873822,3.59968386 C22.6551104,4.03380799 24.8358484,1.23484977 24.8358484,1.23484977 C24.8358484,1.23484977 24.7787611,2.12594668 23.2031493,3.54256226 C24.3677319,3.39404611 25.8748388,1.17772818 25.8748388,1.17772818 C25.8748388,1.17772818 25.3267999,2.83425447 24.0023727,4.01095935 C25.1441203,3.89671616 26.982334,1.06348499 26.982334,1.06348499 C26.982334,1.06348499 26.2744505,3.0284679 24.8358484,4.17089982 C26.4342951,4.52505372 28.7406254,2.137371 28.7406254,2.137371 C28.7406254,2.137371 27.8386447,3.82817025 26.6512272,4.52505372 C27.9756545,5.02772377 29.7910332,2.93707334 29.7910332,2.93707334 C29.7910332,2.93707334 27.9756545,5.73603156 25.0870329,5.61036405 C24.1393824,5.56466677 21.2735958,2.7314356 15.1309935,2.95992198 C7.00175025,3.2683786 5.2777113,6.7070987 0.939070258,9.04908415" id="Shape" fill="#FFFFFF" fill-rule="nonzero"></path>
                    <path d="M0.539458582,9.62030011 C2.95996359,10.8312779 5.17495402,9.437511 7.96081827,10.225789 C10.0844689,10.8198536 12.6648186,11.5624344 16.1699838,11.04834 C19.6751491,10.54567 22.6665279,9.01481119 24.10513,6.29582321 C24.5504115,5.08484536 26.3657903,6.57000687 26.3657903,6.57000687 C26.3657903,6.57000687 25.041363,6.02163954 25.0756155,6.27297457 C25.1098679,6.53573391 27.0622564,7.43825513 27.0622564,7.43825513 C27.0622564,7.43825513 25.2925475,6.88988781 25.4067223,7.3011633 C25.5094796,7.71243879 27.6217127,9.3803894 27.6217127,9.3803894 C27.6217127,9.3803894 25.2354601,7.56392264 25.041363,7.81525767 C24.8472659,8.06659269 26.0575184,9.06050847 26.0575184,9.06050847 C26.0575184,9.06050847 24.0480426,7.81525767 23.340159,8.18083588 C22.8263726,8.44359523 25.4295572,10.1458188 25.4295572,10.1458188 C25.4295572,10.1458188 23.7397707,8.85487072 23.340159,9.1976003 C22.9405474,9.54032987 25.2468776,12.3050151 25.2468776,12.3050151 C25.2468776,12.3050151 22.6322755,9.47178396 22.3696735,9.60887579 C22.1070716,9.74596762 23.0889746,11.1054616 23.0889746,11.1054616 C23.0889746,11.1054616 21.7873822,9.70027034 21.4334405,9.94018105 C21.0794987,10.1915161 23.2716542,13.8587226 23.2716542,13.8587226 C23.2716542,13.8587226 20.8854016,10.0886972 19.9034986,10.7170348 C21.4562754,14.1214819 20.8739841,14.6013033 20.8739841,14.6013033 C20.8739841,14.6013033 20.679887,11.1397346 18.7503335,11.2311291 C17.779848,11.2768264 19.2070326,13.8130253 19.2070326,13.8130253 C19.2070326,13.8130253 17.9054402,11.5053128 17.0262946,11.5510101 C18.6361587,14.6127276 18.0652849,15.8465541 18.0652849,15.8465541 C18.0652849,15.8465541 18.3278869,13.230385 16.1471489,11.7794964 C16.9806247,12.5220772 15.621945,15.8465541 15.621945,15.8465541 C15.621945,15.8465541 16.8093625,10.9455211 14.7427993,11.8823153 C14.4116925,12.0308315 14.7199643,14.3271196 14.7199643,14.3271196 C14.7199643,14.3271196 14.3089352,11.6995262 13.680974,11.836618 C13.3156147,11.9165883 11.3746437,15.4809759 11.3746437,15.4809759 C11.3746437,15.4809759 12.9616729,11.6309803 12.4821389,11.7909208 C12.1281972,11.905164 11.4659835,13.4931443 11.4659835,13.4931443 C11.4659835,13.4931443 11.7856729,11.9280126 11.4659835,11.836618 C11.1462942,11.7452235 9.34233292,13.4931443 9.34233292,13.4931443 C9.34233292,13.4931443 10.6781777,11.9280126 10.4498281,11.5967073 C10.0958864,11.1054616 9.69627469,11.082613 9.2053232,11.2768264 C8.49743966,11.5510101 7.54978912,12.8419581 7.54978912,12.8419581 C7.54978912,12.8419581 8.49743966,11.5281614 8.33759499,11.04834 C8.07499303,10.260062 5.34621616,12.5677745 5.34621616,12.5677745 C5.34621616,12.5677745 6.95608034,11.04834 6.5907211,10.7170348 C6.22536185,10.3971538 4.215886,10.4885484 3.59934227,10.4885484 C1.73829361,10.4999727 1.09891493,10.0658486 0.539458582,9.62030011" id="Shape" fill="#FFFFFF" fill-rule="nonzero"></path>
                </g>
            </g>
        </g>
    </g>
</svg>